<?xml version="1.0" encoding="UTF-8" standalone="no"?>
<!-- Generator: Adobe Illustrator 18.0.0, SVG Export Plug-In . SVG Version: 6.00 Build 0)  -->

<svg
   xmlns:dc="http://purl.org/dc/elements/1.1/"
   xmlns:cc="http://creativecommons.org/ns#"
   xmlns:rdf="http://www.w3.org/1999/02/22-rdf-syntax-ns#"
   xmlns:svg="http://www.w3.org/2000/svg"
   xmlns="http://www.w3.org/2000/svg"
   xmlns:sodipodi="http://sodipodi.sourceforge.net/DTD/sodipodi-0.dtd"
   xmlns:inkscape="http://www.inkscape.org/namespaces/inkscape"
   version="1.1"
   id="Capa_1"
   x="0px"
   y="0px"
   viewBox="0 0 297 297"
   style="enable-background:new 0 0 297 297;"
   xml:space="preserve"
   inkscape:version="0.91 r13725"
   sodipodi:docname="beach.svg"><metadata
     id="metadata43"><rdf:RDF><cc:Work
         rdf:about=""><dc:format>image/svg+xml</dc:format><dc:type
           rdf:resource="http://purl.org/dc/dcmitype/StillImage" /></cc:Work></rdf:RDF></metadata><defs
     id="defs41" /><sodipodi:namedview
     pagecolor="#ffffff"
     bordercolor="#666666"
     borderopacity="1"
     objecttolerance="10"
     gridtolerance="10"
     guidetolerance="10"
     inkscape:pageopacity="0"
     inkscape:pageshadow="2"
     inkscape:window-width="718"
     inkscape:window-height="480"
     id="namedview39"
     showgrid="false"
     inkscape:zoom="0.79461279"
     inkscape:cx="197.58051"
     inkscape:cy="148.5"
     inkscape:window-x="0"
     inkscape:window-y="27"
     inkscape:window-maximized="0"
     inkscape:current-layer="Capa_1" /><g
     id="g3"><path
       d="M99.329,162.708h13.264c0.929,5.584,3.137,10.737,6.312,15.154l-9.404,9.403c-2.316,2.316-2.316,6.071-0.001,8.387   c1.158,1.158,2.676,1.737,4.194,1.737c1.517,0,3.036-0.579,4.193-1.736l9.411-9.411c4.418,3.165,9.568,5.364,15.148,6.286v13.297   c0,3.275,2.655,5.93,5.93,5.93c3.275,0,5.93-2.655,5.93-5.93v-13.297c5.58-0.922,10.731-3.121,15.148-6.286l9.41,9.41   c1.157,1.158,2.676,1.737,4.193,1.737s3.036-0.579,4.193-1.737c2.316-2.315,2.316-6.07,0-8.386l-9.403-9.403   c3.176-4.417,5.384-9.571,6.313-15.155h13.264c3.275,0,5.93-2.655,5.93-5.93s-2.655-5.93-5.93-5.93h-13.249   c-0.917-5.596-3.12-10.761-6.293-15.189l9.369-9.369c2.316-2.315,2.316-6.07,0-8.386c-2.315-2.316-6.071-2.316-8.386,0   l-9.362,9.362c-4.428-3.184-9.596-5.396-15.196-6.32v-7.77v-5.445c0-3.275-2.655-5.93-5.93-5.93c-3.275,0-5.93,2.655-5.93,5.93   v5.445v7.77c-5.6,0.925-10.768,3.137-15.196,6.32l-9.362-9.362c-2.315-2.316-6.071-2.316-8.386,0c-2.316,2.315-2.316,6.07,0,8.386   l9.369,9.369c-3.173,4.429-5.376,9.594-6.293,15.189H99.329c-3.275,0-5.93,2.655-5.93,5.93S96.055,162.708,99.329,162.708z    M148.376,132.313c13.467,0,24.423,10.956,24.423,24.423s-10.956,24.424-24.423,24.424c-13.467,0-24.423-10.957-24.423-24.424   S134.909,132.313,148.376,132.313z"
       id="path5"
       style="fill:#666666;fill-opacity:1" /><path
       d="M200.471,48.923h-17.625V9.884c0-5.458-4.425-9.884-9.884-9.884h-48.923c-5.458,0-9.884,4.425-9.884,9.884v39.04H96.529   c-21.754,0-39.452,17.698-39.452,39.452v169.172c0,21.754,17.698,39.452,39.452,39.452h103.941   c21.754,0,39.452-17.698,39.452-39.452V88.376C239.923,66.621,222.225,48.923,200.471,48.923z M133.922,19.767h29.156v29.156   h-29.156V19.767z M96.529,68.691h103.941c10.855,0,19.685,8.831,19.685,19.685v143.887H76.844V88.376   C76.844,77.521,85.675,68.691,96.529,68.691z M200.471,277.233H96.529c-10.855,0-19.685-8.831-19.685-19.685v-13.425h143.311   v13.425C220.156,268.402,211.325,277.233,200.471,277.233z"
       id="path7"
       style="fill:#666666;fill-opacity:1" /></g><g
     id="g9" /><g
     id="g11" /><g
     id="g13" /><g
     id="g15" /><g
     id="g17" /><g
     id="g19" /><g
     id="g21" /><g
     id="g23" /><g
     id="g25" /><g
     id="g27" /><g
     id="g29" /><g
     id="g31" /><g
     id="g33" /><g
     id="g35" /><g
     id="g37" /></svg>
