<?xml version="1.0" encoding="UTF-8" standalone="no"?>
<!-- Generator: Adobe Illustrator 19.0.0, SVG Export Plug-In . SVG Version: 6.00 Build 0)  -->

<svg
   xmlns:dc="http://purl.org/dc/elements/1.1/"
   xmlns:cc="http://creativecommons.org/ns#"
   xmlns:rdf="http://www.w3.org/1999/02/22-rdf-syntax-ns#"
   xmlns:svg="http://www.w3.org/2000/svg"
   xmlns="http://www.w3.org/2000/svg"
   xmlns:sodipodi="http://sodipodi.sourceforge.net/DTD/sodipodi-0.dtd"
   xmlns:inkscape="http://www.inkscape.org/namespaces/inkscape"
   version="1.1"
   id="Layer_1"
   x="0px"
   y="0px"
   viewBox="0 0 512 512"
   style="enable-background:new 0 0 512 512;"
   xml:space="preserve"
   inkscape:version="0.91 r13725"
   sodipodi:docname="food.svg"><metadata
     id="metadata51"><rdf:RDF><cc:Work
         rdf:about=""><dc:format>image/svg+xml</dc:format><dc:type
           rdf:resource="http://purl.org/dc/dcmitype/StillImage" /></cc:Work></rdf:RDF></metadata><defs
     id="defs49" /><sodipodi:namedview
     pagecolor="#ffffff"
     bordercolor="#666666"
     borderopacity="1"
     objecttolerance="10"
     gridtolerance="10"
     guidetolerance="10"
     inkscape:pageopacity="0"
     inkscape:pageshadow="2"
     inkscape:window-width="753"
     inkscape:window-height="480"
     id="namedview47"
     showgrid="false"
     inkscape:zoom="0.4609375"
     inkscape:cx="293.9661"
     inkscape:cy="256"
     inkscape:window-x="0"
     inkscape:window-y="27"
     inkscape:window-maximized="0"
     inkscape:current-layer="Layer_1" /><g
     id="g3"><g
       id="g5"><g
         id="g7"><path
           d="M375.137,142.132c3.961-6.387,6.251-13.916,6.251-21.969v-10.449c0-22.485-17.846-40.88-40.119-41.762     c2.274-4.762,3.547-10.089,3.547-15.707c0-20.166-16.406-36.571-36.571-36.571H204.771c-7.789-1.578-27.053-6.553-36.591-13.62     c-2.724-2.019-6.258-2.589-9.48-1.532c-3.221,1.058-5.729,3.613-6.727,6.856c-0.117,0.381-2.889,9.495-3.625,21.274     c-1.028,16.456,2.405,30.54,9.931,40.729c0.201,0.272,0.419,0.525,0.626,0.791c-16.436,5.629-28.292,21.223-28.292,39.543v10.449     c0,8.059,2.299,15.589,6.266,21.978c-18.528,4.281-32.389,20.905-32.389,40.716v10.449c0,19.439,13.341,35.821,31.347,40.473     v53.568c0,17.285,14.062,31.347,31.347,31.347h1.558l29.924,184.53c0.82,5.059,5.189,8.776,10.314,8.776h94.041     c5.125,0,9.494-3.718,10.314-8.776l29.924-184.53h1.558c17.285,0,31.347-14.062,31.347-31.347v-53.568     c18.006-4.652,31.347-21.035,31.347-40.473v-10.449C407.51,163.05,393.659,146.416,375.137,142.132z M355.265,287.347     c0,5.762-4.687,10.449-10.449,10.449h-10.449c-5.125,0-9.494,3.718-10.314,8.776l-29.924,184.53h-76.259l-27.958-172.408h86.986     v-20.898h-99.265h-10.449c-5.762,0-10.449-4.687-10.449-10.449v-52.245h198.531V287.347z M386.612,193.306     c0,11.523-9.375,20.898-20.898,20.898H146.286c-11.523,0-20.898-9.375-20.898-20.898v-10.449     c0-11.523,9.375-20.898,20.898-20.898h20.898h109.714v-20.898h-104.49c-11.523,0-20.898-9.375-20.898-20.898v-10.449     c0-11.523,9.375-20.898,20.898-20.898h26.122h62.694V67.918h-57.469c-13.628,0-23.263-3.672-28.634-10.911     c-6.102-8.222-6.647-20.593-5.636-30.454c14.322,6.302,30.048,9.405,32.333,9.836c0.639,0.122,1.287,0.182,1.937,0.182h104.49     c8.642,0,15.674,7.031,15.674,15.673c0,8.642-7.031,15.673-15.674,15.673c-5.771,0-10.449,4.678-10.449,10.449     c0,5.77,4.678,10.449,10.449,10.449h31.347c11.523,0,20.898,9.375,20.898,20.898v10.449c0,11.523-9.375,20.898-20.898,20.898     c-5.771,0-10.449,4.679-10.449,10.449c0,5.771,4.678,10.449,10.449,10.449h26.122c11.523,0,20.898,9.375,20.898,20.898V193.306z"
           id="path9"
           style="fill:#666666;fill-opacity:1" /><rect
           x="188.082"
           y="256"
           width="31.347"
           height="20.898"
           id="rect11"
           style="fill:#666666;fill-opacity:1" /><rect
           x="240.327"
           y="256"
           width="31.347"
           height="20.898"
           id="rect13"
           style="fill:#666666;fill-opacity:1" /><rect
           x="292.571"
           y="256"
           width="31.347"
           height="20.898"
           id="rect15"
           style="fill:#666666;fill-opacity:1" /></g></g></g><g
     id="g17" /><g
     id="g19" /><g
     id="g21" /><g
     id="g23" /><g
     id="g25" /><g
     id="g27" /><g
     id="g29" /><g
     id="g31" /><g
     id="g33" /><g
     id="g35" /><g
     id="g37" /><g
     id="g39" /><g
     id="g41" /><g
     id="g43" /><g
     id="g45" /></svg>
