<?xml version="1.0" encoding="UTF-8" standalone="no"?>
<!-- Generator: Adobe Illustrator 18.0.0, SVG Export Plug-In . SVG Version: 6.00 Build 0)  -->

<svg
   xmlns:dc="http://purl.org/dc/elements/1.1/"
   xmlns:cc="http://creativecommons.org/ns#"
   xmlns:rdf="http://www.w3.org/1999/02/22-rdf-syntax-ns#"
   xmlns:svg="http://www.w3.org/2000/svg"
   xmlns="http://www.w3.org/2000/svg"
   xmlns:sodipodi="http://sodipodi.sourceforge.net/DTD/sodipodi-0.dtd"
   xmlns:inkscape="http://www.inkscape.org/namespaces/inkscape"
   version="1.1"
   id="Laag_1"
   x="0px"
   y="0px"
   viewBox="0 0 100 99.999999"
   enable-background="new 0 0 200 200"
   xml:space="preserve"
   inkscape:version="0.91 r13725"
   sodipodi:docname="icon-koffer.svg"
   width="100"
   height="100"
   inkscape:export-filename="/home/mpo/projects/jubileum.veldenduin.be/img/svg/style/icon-koffer.svg.png"
   inkscape:export-xdpi="90"
   inkscape:export-ydpi="90"><metadata
     id="metadata11"><rdf:RDF><cc:Work
         rdf:about=""><dc:format>image/svg+xml</dc:format><dc:type
           rdf:resource="http://purl.org/dc/dcmitype/StillImage" /><dc:title /></cc:Work></rdf:RDF></metadata><defs
     id="defs9" /><sodipodi:namedview
     pagecolor="#ffffff"
     bordercolor="#666666"
     borderopacity="1"
     objecttolerance="10"
     gridtolerance="10"
     guidetolerance="10"
     inkscape:pageopacity="0"
     inkscape:pageshadow="2"
     inkscape:window-width="959"
     inkscape:window-height="1028"
     id="namedview7"
     showgrid="false"
     fit-margin-top="0"
     fit-margin-left="0"
     fit-margin-right="0"
     fit-margin-bottom="0"
     inkscape:zoom="1.18"
     inkscape:cx="-52.184748"
     inkscape:cy="-9.0203369"
     inkscape:window-x="482"
     inkscape:window-y="27"
     inkscape:window-maximized="0"
     inkscape:current-layer="Laag_1" /><path
     d="m 77.999999,29.700001 -14,0 0,-2.2 c 0,-4.2 -3.6,-8.8 -8.5,-8.8 l -10.8,0 c -4.900001,0 -8.500001,4.6 -8.500001,8.8 l 0,2.2 -14.199999,0 c -5.2,0 -9.4,4.2 -9.4,9.4 l 0,32.8 c 0,5.2 4.2,9.4 9.4,9.4 l 56,0 c 5.1,0 9.4,-4.2 9.4,-9.4 l 0,-32.9 c 0,-5.2 -4.3,-9.3 -9.4,-9.3 z m -36.500001,-2.3 c 0,-1.5 1.7,-3.5 3.200001,-3.5 l 10.7,0 c 1.5,0 3.2,2 3.2,3.5 l 0,2.2 -17.100001,0 0,-2.2 z m 40.500001,44.5 c 0,2.2 -1.8,4.1 -4,4.1 l -56,0 c -2.2,0 -4.1,-1.8 -4.1,-4.1 l 0,-32.9 c 0,-2.2 1.8,-4 4.1,-4 l 56,0 c 2.2,0 4,1.8 4,4 l 0,32.9 z m -41.100001,-28.2 -5.8,-5.8 c -0.6,-0.7 -1.8,-0.7 -2.5,0 l -9.699999,9.7 c -0.7,0.6 -0.7,1.8 0,2.5 l 5.799999,5.8 c 0.7,0.7 1.8,0.7 2.5,0 l 9.7,-9.6 c 0.7,-0.7 0.7,-1.9 0,-2.6 z m -10.9,8.4 -3.2,-3.2 7.1,-7.1 3.3,3.2 -7.2,7.1 z m 18.200001,3.2 c -0.7,-0.7 -1.8,-0.8 -2.5,-0.1 l -6.000001,5.6 c -0.7,0.6 -0.8,1.8 -0.1,2.5 l 9.300001,10 c 0.6,0.7 1.8,0.7 2.5,0.1 l 6,-5.6 c 0.7,-0.7 0.8,-1.8 0.1,-2.5 l -9.3,-10 z m 2.1,14.2 -6.900001,-7.3 3.400001,-3.2 6.9,7.4 -3.4,3.1 z m 29.1,-20.5 -12,-6.3 c -0.9,-0.5 -2,-0.1 -2.4,0.7 l -3.9,7.2 c -0.4,0.9 -0.1,2 0.8,2.5 l 12,6.3 c 0.9,0.4 2,0.1 2.5,-0.8 l 3.8,-7.2 c 0.4,-0.9 0.1,-2 -0.8,-2.4 z m -5.4,6.4 -8.9,-4.7 2.2,-4.1 8.9,4.7 -2.2,4.1 z"
     id="path5"
     inkscape:connector-curvature="0"
     style="clip-rule:evenodd;fill:#666666;fill-rule:evenodd" /></svg>
