<?xml version="1.0" encoding="UTF-8" standalone="no"?>
<!-- Generator: Adobe Illustrator 18.0.0, SVG Export Plug-In . SVG Version: 6.00 Build 0)  -->

<svg
   xmlns:dc="http://purl.org/dc/elements/1.1/"
   xmlns:cc="http://creativecommons.org/ns#"
   xmlns:rdf="http://www.w3.org/1999/02/22-rdf-syntax-ns#"
   xmlns:svg="http://www.w3.org/2000/svg"
   xmlns="http://www.w3.org/2000/svg"
   xmlns:sodipodi="http://sodipodi.sourceforge.net/DTD/sodipodi-0.dtd"
   xmlns:inkscape="http://www.inkscape.org/namespaces/inkscape"
   version="1.1"
   id="Laag_1"
   x="0px"
   y="0px"
   viewBox="0 0 100 100"
   enable-background="new 0 0 200 200"
   xml:space="preserve"
   inkscape:version="0.91 r13725"
   sodipodi:docname="icon-euro.svg"
   width="100"
   height="100"
   inkscape:export-filename="/home/mpo/projects/jubileum.veldenduin.be/img/svg/style/icon-euro.svg.png"
   inkscape:export-xdpi="120"
   inkscape:export-ydpi="120"><metadata
     id="metadata11"><rdf:RDF><cc:Work
         rdf:about=""><dc:format>image/svg+xml</dc:format><dc:type
           rdf:resource="http://purl.org/dc/dcmitype/StillImage" /><dc:title /></cc:Work></rdf:RDF></metadata><defs
     id="defs9" /><sodipodi:namedview
     pagecolor="#ffffff"
     bordercolor="#666666"
     borderopacity="1"
     objecttolerance="10"
     gridtolerance="10"
     guidetolerance="10"
     inkscape:pageopacity="0"
     inkscape:pageshadow="2"
     inkscape:window-width="1383"
     inkscape:window-height="1028"
     id="namedview7"
     showgrid="false"
     fit-margin-top="0"
     fit-margin-left="0"
     fit-margin-right="0"
     fit-margin-bottom="0"
     inkscape:zoom="5.939697"
     inkscape:cx="13.360044"
     inkscape:cy="52.634921"
     inkscape:window-x="401"
     inkscape:window-y="27"
     inkscape:window-maximized="0"
     inkscape:current-layer="Laag_1" /><g
     style="font-style:normal;font-variant:normal;font-weight:normal;font-stretch:normal;font-size:80px;line-height:125%;font-family:'Bitstream Vera Serif';-inkscape-font-specification:'Bitstream Vera Serif';letter-spacing:0px;word-spacing:0px;fill:#666666;fill-opacity:1;stroke:none;stroke-width:1px;stroke-linecap:butt;stroke-linejoin:miter;stroke-opacity:1"
     id="text4137"
     transform="matrix(1.2451953,0,0,1.2451953,-12.259765,-12.259765)"><path
       style="fill:#666666;fill-opacity:1"
       d="m 54.666275,15.669991 c -0.371026,0.0044 -0.743429,0.01733 -1.117187,0.04102 -11.529922,0.340598 -19.599135,11.107214 -21.976563,21.550781 -5.988772,-0.413452 -10.417591,7.595379 -7.58789,12.669922 1.22857,0.171671 6.833252,-0.930658 3.335937,0.517578 -3.225798,2.521365 -5.653178,7.683537 -3.302734,11.511719 2.308732,0.862844 6.487995,-1.453198 7.904297,0.898438 1.821791,12.897743 15.23368,24.871972 28.615234,20.585937 10.472632,-2.901295 15.55373,-14.240592 16.382813,-24.265625 -4.406713,1.897074 -12.29652,-2.428385 -14.203125,3.90625 0.888934,6.317406 -7.816029,13.01443 -12.226563,6.675781 -0.928358,-1.722201 -5.176129,-8.325463 -1.335937,-7.748047 4.888157,1.066543 11.317682,-0.61766 11.755859,-6.476562 1.289353,-1.746866 0.829214,-4.664513 -1.25,-5.404297 4.133642,-0.429827 5.83664,-5.258038 7.669922,-7.535156 5.300535,1.308038 8.847734,-4.187816 8.019531,-8.929688 -0.185957,-4.805878 1.1013,-11.841938 -4.820312,-13.859375 -5.037119,-2.16694 -10.297888,-4.204609 -15.863282,-4.138672 z m -0.0957,4.017579 c 2.578126,0 5.156251,0.403645 7.734375,1.210937 2.604167,0.807291 5.520834,2.109375 8.75,3.90625 l 0,13.359375 -4.140625,0 c -0.520833,-4.6875 -1.783854,-8.29427 -3.789062,-10.820312 -1.979167,-2.526042 -4.557292,-3.789063 -7.734375,-3.789063 -3.541667,0 -6.393229,1.54948 -8.554688,4.648438 -2.135416,3.098958 -3.476562,7.630208 -4.023437,13.59375 l 19.6875,0 -1.835938,4.0625 -18.085937,0 c -0.02604,0.364583 -0.05208,0.846353 -0.07813,1.445312 -0.05209,1.328125 -0.07813,2.213541 -0.07813,2.65625 0,0.234375 0.01302,0.794271 0.03906,1.679688 0.02604,0.885416 0.03906,1.653645 0.03906,2.304687 l 14.648437,0 -1.835937,4.0625 -12.5,0 c 0.598958,5.989583 1.966146,10.546875 4.101562,13.671875 2.135417,3.098958 4.960938,4.648438 8.476563,4.648438 3.020833,0 5.507813,-1.08073 7.460937,-3.242188 1.979167,-2.1875 3.307292,-5.338542 3.984375,-9.453125 l 5.195313,0 c -1.119792,5.338541 -3.190104,9.440104 -6.210938,12.304688 -2.994791,2.838542 -6.744791,4.257812 -11.25,4.257812 -4.921874,0 -9.153645,-1.979167 -12.695312,-5.9375 -3.541667,-3.958333 -5.924479,-9.375 -7.148438,-16.25 l -7.421875,0 1.757813,-4.0625 5.273437,0 c -0.02604,-0.390625 -0.05208,-0.898437 -0.07813,-1.523437 -0.05209,-1.276042 -0.07813,-2.096355 -0.07813,-2.460938 0,-0.885417 0.01302,-1.640625 0.03906,-2.265625 0.02604,-0.625 0.0651,-1.236979 0.117187,-1.835937 l -7.03125,0 1.757813,-4.0625 5.664062,0 c 1.223959,-6.875 3.593751,-12.278647 7.109375,-16.210938 3.541667,-3.932292 7.786459,-5.898437 12.734375,-5.898437 z m 0.291016,7.865234 c 0.293357,-0.01707 0.598502,-0.01205 0.914063,0.01563 4.927568,0.439401 6.522632,6.146071 7.09375,10.228516 -4.564018,-0.797525 -13.047544,1.578775 -15.228516,-1.148438 0.872832,-3.754385 2.820343,-8.839649 7.220703,-9.095703 z m -3.279297,21.751953 c 0.176198,8.79e-4 0.281309,0.01407 0.285156,0.04102 4.821995,0.526563 -1.635129,0.918201 -3.359375,0.833984 -2.833966,-0.308301 1.840836,-0.881151 3.074219,-0.875 z"
       id="path4142"
       inkscape:connector-curvature="0" /></g><g
     style="font-style:normal;font-variant:normal;font-weight:normal;font-stretch:normal;font-size:80px;line-height:125%;font-family:'Bitstream Vera Serif';-inkscape-font-specification:'Bitstream Vera Serif';letter-spacing:0px;word-spacing:0px;fill:#ffffff;fill-opacity:1;stroke:none;stroke-width:1px;stroke-linecap:butt;stroke-linejoin:miter;stroke-opacity:1"
     id="text4133" /></svg>
