<?xml version="1.0" encoding="UTF-8" standalone="no"?>
<!-- Generator: Adobe Illustrator 18.0.0, SVG Export Plug-In . SVG Version: 6.00 Build 0)  -->

<svg
   xmlns:dc="http://purl.org/dc/elements/1.1/"
   xmlns:cc="http://creativecommons.org/ns#"
   xmlns:rdf="http://www.w3.org/1999/02/22-rdf-syntax-ns#"
   xmlns:svg="http://www.w3.org/2000/svg"
   xmlns="http://www.w3.org/2000/svg"
   xmlns:sodipodi="http://sodipodi.sourceforge.net/DTD/sodipodi-0.dtd"
   xmlns:inkscape="http://www.inkscape.org/namespaces/inkscape"
   version="1.1"
   id="Laag_1"
   x="0px"
   y="0px"
   viewBox="0 0 100 100"
   enable-background="new 0 0 200 200"
   xml:space="preserve"
   inkscape:version="0.91 r13725"
   sodipodi:docname="Fun_facts_icons-03.svg"
   width="100"
   height="100"><metadata
     id="metadata11"><rdf:RDF><cc:Work
         rdf:about=""><dc:format>image/svg+xml</dc:format><dc:type
           rdf:resource="http://purl.org/dc/dcmitype/StillImage" /><dc:title></dc:title></cc:Work></rdf:RDF></metadata><defs
     id="defs9" /><sodipodi:namedview
     pagecolor="#ffffff"
     bordercolor="#666666"
     borderopacity="1"
     objecttolerance="10"
     gridtolerance="10"
     guidetolerance="10"
     inkscape:pageopacity="0"
     inkscape:pageshadow="2"
     inkscape:window-width="1082"
     inkscape:window-height="1028"
     id="namedview7"
     showgrid="false"
     fit-margin-top="0"
     fit-margin-left="0"
     fit-margin-right="0"
     fit-margin-bottom="0"
     inkscape:zoom="1.18"
     inkscape:cx="108.72802"
     inkscape:cy="-48.018738"
     inkscape:window-x="662"
     inkscape:window-y="27"
     inkscape:window-maximized="0"
     inkscape:current-layer="Laag_1" /><path
     d="m 82.783028,37.386743 c -3.4,0 -6.3,-1.3 -8.4,-3.7 -4.3,4.9 -12.4,4.9 -16.7,0 -4.3,4.9 -12.4,4.9 -16.8,0 -4.3,4.9 -12.4,4.9 -16.7,0 -1.6,1.9 -3.8,3.1 -6.3,3.6 -3.2,0.5 -4,-4.3 -0.8,-4.8 3,-0.5 4.3,-2.9 4.9,-4.3 0.8,-2.1 3.8,-2.1 4.6,0 2.2,5.9 10,5.9 12.2,0 0.8,-2.1 3.8,-2.1 4.6,0 2.2,5.9 10,5.9 12.2,0 0.8,-2.1 3.8,-2.1 4.6,0 2.2,5.9 10,5.9 12.2,0 0.8,-2.1 3.8,-2.1 4.6,0 0.6,1.7 2.2,4.4 6.1,4.4 2.9,-0.1 2.9,4.8 -0.3,4.8 z m 0,13.1 c -3.8,0 -5.5,-2.8 -6.1,-4.4 -0.8,-2.1 -3.8,-2.1 -4.6,0 -2.2,5.9 -10,5.9 -12.2,0 -0.8,-2.1 -3.8,-2.1 -4.6,0 -2.2,5.9 -10,5.9 -12.2,0 -0.8,-2.1 -3.8,-2.1 -4.6,0 -2.2,5.9 -10,5.9 -12.2,0 -0.8,-2.1 -3.8,-2.1 -4.6,0 -0.5,1.4 -1.8,3.8 -4.9,4.3 -3.2,0.5 -2.3,5.4 0.8,4.8 2.5,-0.4 4.7,-1.7 6.3,-3.6 4.3,4.9 12.4,4.9 16.7,0 4.3,4.9 12.4,4.9 16.8,0 4.3,4.9 12.4,4.9 16.7,0 2.1,2.4 5,3.7 8.4,3.7 3.5,0.1 3.5,-4.8 0.3,-4.8 z m 0,18.1 c -3.8,0 -5.5,-2.8 -6.1,-4.4 -0.8,-2.1 -3.8,-2.1 -4.6,0 -2.2,5.9 -10,5.9 -12.2,0 -0.8,-2.1 -3.8,-2.1 -4.6,0 -2.2,5.9 -10,5.9 -12.2,0 -0.8,-2.1 -3.8,-2.1 -4.6,0 -2.2,5.9 -10,5.9 -12.2,0 -0.8,-2.1 -3.8,-2.1 -4.6,0 -0.5,1.4 -1.8,3.8 -4.9,4.3 -3.2,0.5 -2.3,5.4 0.8,4.8 2.5,-0.4 4.7,-1.7 6.3,-3.6 4.3,4.9 12.4,4.9 16.7,0 4.3,4.9 12.4,4.9 16.8,0 4.3,4.9 12.4,4.9 16.7,0 2.1,2.4 5,3.7 8.4,3.7 3.5,0.1 3.5,-4.8 0.3,-4.8 z"
     id="path5"
     inkscape:connector-curvature="0"
     style="clip-rule:evenodd;fill:#666666;fill-rule:evenodd" /></svg>
