<?xml version="1.0" encoding="UTF-8" standalone="no"?>
<!-- Generator: Adobe Illustrator 18.0.0, SVG Export Plug-In . SVG Version: 6.00 Build 0)  -->

<svg
   xmlns:dc="http://purl.org/dc/elements/1.1/"
   xmlns:cc="http://creativecommons.org/ns#"
   xmlns:rdf="http://www.w3.org/1999/02/22-rdf-syntax-ns#"
   xmlns:svg="http://www.w3.org/2000/svg"
   xmlns="http://www.w3.org/2000/svg"
   xmlns:sodipodi="http://sodipodi.sourceforge.net/DTD/sodipodi-0.dtd"
   xmlns:inkscape="http://www.inkscape.org/namespaces/inkscape"
   version="1.1"
   id="Laag_1"
   x="0px"
   y="0px"
   viewBox="0 0 100 100"
   enable-background="new 0 0 200 200"
   xml:space="preserve"
   inkscape:version="0.91 r13725"
   sodipodi:docname="Fun_facts_icons-04.svg"
   width="100"
   height="100"><metadata
     id="metadata11"><rdf:RDF><cc:Work
         rdf:about=""><dc:format>image/svg+xml</dc:format><dc:type
           rdf:resource="http://purl.org/dc/dcmitype/StillImage" /><dc:title></dc:title></cc:Work></rdf:RDF></metadata><defs
     id="defs9" /><sodipodi:namedview
     pagecolor="#ffffff"
     bordercolor="#666666"
     borderopacity="1"
     objecttolerance="10"
     gridtolerance="10"
     guidetolerance="10"
     inkscape:pageopacity="0"
     inkscape:pageshadow="2"
     inkscape:window-width="1383"
     inkscape:window-height="1028"
     id="namedview7"
     showgrid="false"
     fit-margin-top="0"
     fit-margin-left="0"
     fit-margin-right="0"
     fit-margin-bottom="0"
     inkscape:zoom="1"
     inkscape:cx="122.68201"
     inkscape:cy="-52.333725"
     inkscape:window-x="402"
     inkscape:window-y="27"
     inkscape:window-maximized="0"
     inkscape:current-layer="Laag_1" /><path
     d="m 69.701594,70.842201 -9.8,-9.7 -0.6,-1.5 c 0.3,0.1 0.5,0.1 0.8,0.1 0.1,0 0.1,0 0.2,0 0.1,0 0.1,0 0.2,0 0,0 0,0 0,0 3.6,0 6.6,-2.8 6.8,-6.4 l 0.8,-12 c 0.2,-3 -1.6,-5.8 -4.4,-6.8 l -9.7,-3.6 c 0.9,-1.5 1.4,-3.2 1.4,-4.9 0,-5.2 -4.2,-9.4 -9.4,-9.4 -5.2,0 -9.4,4.2 -9.4,9.4 0,3.6 2.1,6.9 5.3,8.4 -0.5,1.8 -0.1,3.8 0,5.6 -2.1,0.9 -4.5,1.8 -6.6,2.9 -1.6,0.8 -2.8,2.1 -3.5,3.7 -1.5,3.7 0.6,7.8 4.4,9 -1.1,1.1 -2.5,2.1 -3.3,3.5 -0.3,0.5 -0.6,1.1 -0.7,1.8 l -3.6,13.8 c -0.5,1.8 -0.2,3.7 0.7,5.2 2.1,3.6 6.8,4.5 10,2 1.1,-0.9 2,-2.1 2.4,-3.6 l 3.1,-11.9 2.1,-1.9 c 0.7,1.8 1.2,3.9 2.6,5.2 l 10.8,10.7 c 2.6,2.6 6.8,2.6 9.3,0 2.7,-2.8 2.7,-7 0.1,-9.6 z m -7.6,-31.8 c 0.8,0.3 1.4,1.1 1.3,2 l -0.8,12 c 0,0.5 -0.3,1 -0.6,1.4 -0.4,0.3 -0.9,0.5 -1.4,0.5 0,0 0,0 0,0 0,0 -0.1,0 -0.1,0 -0.6,0 -1.1,-0.3 -1.4,-0.7 -0.3,-0.4 -0.5,-0.9 -0.5,-1.5 l 0.6,-8.6 c 0.1,-1.1 -0.5,-2.2 -1.5,-2.5 0,0 -3.1,-1.2 -3.6,-1.3 l -0.3,-4.4 8.3,3.1 z m -20.6,-13 c 0,-2.6 2.1,-4.6 4.6,-4.6 2.6,0 4.6,2.1 4.6,4.6 0,2.6 -2.1,4.6 -4.6,4.6 -2.5,0.1 -4.6,-2 -4.6,-4.6 z m -5.1,22.4 c 0.2,-0.5 0.5,-0.9 1,-1.1 2.1,-0.9 4.3,-1.9 6.4,-2.8 l 0.3,4.4 -5.4,2.3 c -0.5,0.1 -1.1,0 -1.5,-0.3 -0.9,-0.6 -1.2,-1.6 -0.8,-2.5 z m 4.6,14.9 c -0.3,0.2 -0.4,0.5 -0.5,0.9 -1.2,4.1 -2.3,8.5 -3.4,12.7 -0.3,1.2 -1.4,1.7 -2.5,1.4 -1.1,-0.3 -1.6,-1.6 -1.4,-2.5 l 3.6,-13.8 c 0.1,-0.5 0.3,-0.7 0.7,-1 3.1,-2.9 6.3,-5.9 9.4,-8.8 0.4,-0.4 0.6,-0.9 0.5,-1.4 -0.3,-4.8 -0.6,-9.6 -0.9,-14.4 0,-1.4 0.7,-2.2 1.8,-2.3 1.1,-0.1 2.1,0.7 2.2,1.9 0.3,5.4 0.7,10.8 1,16.3 0,0.7 -0.1,1.3 -0.6,1.7 -0.8,0.8 -9.9,9.4 -9.9,9.3 z m 25.3,13.5 c -0.7,0.7 -1.9,0.7 -2.6,0 l -10.8,-10.7 c -0.2,-0.2 -0.3,-0.4 -0.4,-0.6 -0.8,-2.1 -1.6,-4.4 -2.4,-6.4 l 2.9,-2.7 2.6,6.8 c 0.1,0.4 0.3,0.7 0.6,1 l 10.1,10 c 0.7,0.7 0.8,1.9 0,2.6 z"
     id="path5"
     inkscape:connector-curvature="0"
     style="clip-rule:evenodd;fill:#666666;fill-rule:evenodd" /></svg>
