<?xml version="1.0" encoding="UTF-8" standalone="no"?>
<!-- Generator: Adobe Illustrator 18.0.0, SVG Export Plug-In . SVG Version: 6.00 Build 0)  -->

<svg
   xmlns:dc="http://purl.org/dc/elements/1.1/"
   xmlns:cc="http://creativecommons.org/ns#"
   xmlns:rdf="http://www.w3.org/1999/02/22-rdf-syntax-ns#"
   xmlns:svg="http://www.w3.org/2000/svg"
   xmlns="http://www.w3.org/2000/svg"
   xmlns:sodipodi="http://sodipodi.sourceforge.net/DTD/sodipodi-0.dtd"
   xmlns:inkscape="http://www.inkscape.org/namespaces/inkscape"
   version="1.1"
   id="Laag_1"
   x="0px"
   y="0px"
   viewBox="0 0 100 100"
   enable-background="new 0 0 200 200"
   xml:space="preserve"
   inkscape:version="0.91 r13725"
   sodipodi:docname="Fun_facts_icons-02.svg"
   width="100"
   height="100"><metadata
     id="metadata4204"><rdf:RDF><cc:Work
         rdf:about=""><dc:format>image/svg+xml</dc:format><dc:type
           rdf:resource="http://purl.org/dc/dcmitype/StillImage" /><dc:title></dc:title></cc:Work></rdf:RDF></metadata><defs
     id="defs4202" /><sodipodi:namedview
     pagecolor="#ffffff"
     bordercolor="#666666"
     borderopacity="1"
     objecttolerance="10"
     gridtolerance="10"
     guidetolerance="10"
     inkscape:pageopacity="0"
     inkscape:pageshadow="2"
     inkscape:window-width="1039"
     inkscape:window-height="1028"
     id="namedview4200"
     showgrid="false"
     fit-margin-top="0"
     fit-margin-left="0"
     fit-margin-right="0"
     fit-margin-bottom="0"
     inkscape:zoom="1.18"
     inkscape:cx="62.278774"
     inkscape:cy="5.9618635"
     inkscape:window-x="727"
     inkscape:window-y="27"
     inkscape:window-maximized="0"
     inkscape:current-layer="Laag_1" /><path
     d="m 83.736374,75.235913 -0.4,1.1 -30.2,-52.4 3.1,-5.5 c 1.7,-3.1 -3,-5.8 -4.8,-2.7 l -1.5,2.7 -1.5,-2.6 c -1.7,-3.1 -6.5,-0.4 -4.7,2.7 l 3.1,5.4 -30.1,52.1 -0.5,-1.8 c -1,-3.4 -6.2,-1.9 -5.2,1.5 l 1.9,6.6 c 0.6,1.9 2.3,3.3 4.4,3.3 l 65.7,0 c 2,0 3.8,-1.3 4.4,-3.3 l 1.5,-5.4 c 1.1,-3.4 -4,-5.1 -5.2,-1.7 z m -36.1,4.9 2.4,-17.5 2.3,17.5 -4.7,0 z m 8.4,0 -4.1,-31.5 c -0.3,-2.1 -3.3,-2.1 -3.6,-0.1 l -4.3,31.6 -23.4,0 29.4,-50.8 29.4,50.8 -23.4,0 z"
     id="path4198"
     inkscape:connector-curvature="0"
     style="clip-rule:evenodd;fill:#666666;fill-rule:evenodd" /></svg>
