<?xml version="1.0" encoding="UTF-8" standalone="no"?>
<!-- Generator: Adobe Illustrator 19.0.0, SVG Export Plug-In . SVG Version: 6.00 Build 0)  -->

<svg
   xmlns:dc="http://purl.org/dc/elements/1.1/"
   xmlns:cc="http://creativecommons.org/ns#"
   xmlns:rdf="http://www.w3.org/1999/02/22-rdf-syntax-ns#"
   xmlns:svg="http://www.w3.org/2000/svg"
   xmlns="http://www.w3.org/2000/svg"
   xmlns:sodipodi="http://sodipodi.sourceforge.net/DTD/sodipodi-0.dtd"
   xmlns:inkscape="http://www.inkscape.org/namespaces/inkscape"
   version="1.1"
   id="Capa_1"
   x="0px"
   y="0px"
   viewBox="0 0 100 100"
   xml:space="preserve"
   inkscape:version="0.91 r13725"
   sodipodi:docname="media-text.svg"
   width="100"
   height="100"><metadata
     id="metadata73"><rdf:RDF><cc:Work
         rdf:about=""><dc:format>image/svg+xml</dc:format><dc:type
           rdf:resource="http://purl.org/dc/dcmitype/StillImage" /><dc:title /></cc:Work></rdf:RDF></metadata><defs
     id="defs71" /><sodipodi:namedview
     pagecolor="#ffffff"
     bordercolor="#666666"
     borderopacity="1"
     objecttolerance="10"
     gridtolerance="10"
     guidetolerance="10"
     inkscape:pageopacity="0"
     inkscape:pageshadow="2"
     inkscape:window-width="1920"
     inkscape:window-height="1029"
     id="namedview69"
     showgrid="false"
     inkscape:zoom="8.6"
     inkscape:cx="32.325581"
     inkscape:cy="48.895349"
     inkscape:window-x="0"
     inkscape:window-y="27"
     inkscape:window-maximized="1"
     inkscape:current-layer="Capa_1"
     showguides="true"
     inkscape:guide-bbox="true" /><g
     id="g3"
     transform="matrix(1.3494724,0,0,1.3494724,9.5158275,9.5158285)"
     style="fill:#15959a;fill-opacity:1"><g
       id="g5"
       style="fill:#15959a;fill-opacity:1"><path
         d="m 76.46608,9.4707031 0,0.044922 -47.098229,0 c -2.393538,0 -5.008476,2.9271749 -5.008476,7.4042969 l 0,27.68164 -9.445313,0 0,5.398438 -2.772924,0 0,-9.42828 4.122534,0 c 0.744909,0 1.349609,-0.620384 1.349609,-1.366642 0,-0.746258 -0.6047,-1.349609 -1.349609,-1.349609 l -4.122534,0 c -1.926699,0 -2.625513,1.239581 -2.625513,2.716251 l 0,12.127499 5.398437,0 0,5.398437 4.048829,0 0,9.445313 c 0,4.071358 -0.813523,7.952187 -2.230469,10.796875 l -0.46875,0 0,0.998047 0,1.699218 0,5.398438 2.699219,0 0,4.048828 10.794921,0 0,-4.048828 40.484376,0 0,4.048828 10.794921,0 0,-4.048828 2.699219,0 0,-5.498047 0,-1.699219 0,-0.898437 -0.466797,0 C 81.851236,75.496505 81.037109,71.615676 81.037109,67.542969 l 0,-9.445313 6.314453,0 c 1.727325,0 3.132813,-1.407441 3.132813,-3.134765 l 0,-12.623047 c 0,-1.728674 -1.405488,-3.134766 -3.132813,-3.134766 l -5.876953,0 c -1.728674,0 -3.134765,1.405488 -3.134765,3.132813 l 0,2.263671 -4.048828,0 0,-21.355377 6.780869,0 c 0,-8.595731 -0.772449,-13.7754818 -4.605805,-13.7754819 z m -47.098229,2.7441409 44.5984,-0.05814 c -1.172196,-1.22093 -2.374454,1.564091 -2.374454,4.763218 l 0,27.68164 -44.533203,0 0,-27.68164 c 0,-1.400185 0.418157,-4.705078 2.309257,-4.705078 z m 47.143151,0.06055 c 2.320484,0.0239 1.926498,5.995257 1.926498,8.254856 0,0 -1.826,-0.0239 -4.146484,0 l 0,-3.610325 c 0,-2.854172 0.823426,-4.644531 2.219986,-4.644531 z m 4.961654,29.626953 5.876953,0 c 0.240206,0 0.435547,0.19669 0.435547,0.435547 l 0,2.263671 -6.748047,0 0,-2.263671 c 0,-0.238857 0.196691,-0.435547 0.435547,-0.435547 z m -63.859375,5.398437 6.746094,0 49.931641,0 4.048828,0 0,4.048828 -16.195313,0 0,-1.349609 c 0,-0.746258 -0.6047,-1.349609 -1.349609,-1.349609 -0.744909,0 -1.347656,0.603351 -1.347656,1.349609 l 0,1.349609 -2.699219,0 0,-1.349609 c 0,-0.746258 -0.604701,-1.349609 -1.349609,-1.349609 -0.744909,0 -1.34961,0.603351 -1.34961,1.349609 l 0,1.349609 -2.699219,0 0,-1.349609 c 0,-0.746258 -0.6047,-1.349609 -1.349609,-1.349609 -0.744909,0 -1.349609,0.603351 -1.349609,1.349609 l 0,1.349609 -2.699219,0 0,-1.349609 c 0,-0.746258 -0.604701,-1.349609 -1.34961,-1.349609 -0.744908,0 -1.349609,0.603351 -1.349609,1.349609 l 0,1.349609 -2.699219,0 0,-1.349609 c 0,-0.746258 -0.602747,-1.349609 -1.347656,-1.349609 -0.744909,0 -1.349609,0.603351 -1.349609,1.349609 l 0,1.349609 -18.892578,0 0,4.048829 -1.34961,0 z m 63.423828,0 6.748047,0 0,2.699219 -6.748047,0 z m 0,5.398438 6.748047,0 0,2.263672 c 0,0.238856 -0.194737,0.435546 -0.433594,0.435547 l -6.314453,0 z m -59.376953,1.349609 16.195313,0 0,1.34961 c 0,0.746258 0.6047,1.349609 1.349609,1.349609 0.744909,0 1.347656,-0.603351 1.347656,-1.349609 l 0,-1.34961 2.699219,0 0,1.34961 c 0,0.746258 0.604701,1.349609 1.349609,1.349609 0.744909,0 1.34961,-0.603351 1.34961,-1.349609 l 0,-1.34961 2.699219,0 0,1.34961 c 0,0.746258 0.6047,1.349609 1.349609,1.349609 0.744909,0 1.349609,-0.603351 1.349609,-1.349609 l 0,-1.34961 2.699219,0 0,1.34961 c 0,0.746258 0.604701,1.349609 1.34961,1.349609 0.744908,0 1.349609,-0.603351 1.349609,-1.349609 l 0,-1.34961 2.699219,0 0,1.34961 c 0,0.746258 0.602747,1.349609 1.347656,1.349609 0.744909,0 1.349609,-0.603351 1.349609,-1.349609 l 0,-1.34961 16.195313,0 0,2.699219 0,1.349609 0,9.445313 c 0,3.994438 0.684017,7.745718 1.951172,10.796875 l -60.582032,0 c 1.267155,-3.052507 1.951172,-6.803786 1.951172,-10.796875 l 0,-9.445313 z m -2.697265,26.988281 62.074218,0 0,2.699219 -10.794921,0 -40.484376,0 -10.794921,0 z m 2.697265,5.398438 5.398438,0 0,1.349609 -5.398438,0 z m 51.28125,0 5.398438,0 0,1.349609 -5.398438,0 z"
         transform="matrix(0.74103035,0,0,0.74103035,-7.0515169,-7.0515177)"
         id="path7"
         inkscape:connector-curvature="0"
         sodipodi:nodetypes="cccccccccsssccccccsccccccccccccccccccscsssssscccccccccccccscccsssccssccccccsssccsssccsssccsssccsssccccccccccccssccccsssccsssccsssccsssccsssccccsccsccccccccccccccccccc"
         style="fill:#15959a;fill-opacity:1" /><path
         d="m 16,44 -4,0 c -0.552,0 -1,0.447 -1,1 0,0.553 0.448,1 1,1 l 1,0 0,2 c 0,0.553 0.448,1 1,1 0.552,0 1,-0.447 1,-1 l 0,-2 1,0 c 0.552,0 1,-0.447 1,-1 0,-0.553 -0.448,-1 -1,-1 z"
         id="path9"
         inkscape:connector-curvature="0"
         style="fill:#15959a;fill-opacity:1" /><path
         d="m 24,44 -4,0 c -0.552,0 -1,0.447 -1,1 0,0.553 0.448,1 1,1 l 1,0 0,2 c 0,0.553 0.448,1 1,1 0.552,0 1,-0.447 1,-1 l 0,-2 1,0 c 0.552,0 1,-0.447 1,-1 0,-0.553 -0.448,-1 -1,-1 z"
         id="path11"
         inkscape:connector-curvature="0"
         style="fill:#15959a;fill-opacity:1" /><path
         d="m 32,44 -4,0 c -0.552,0 -1,0.447 -1,1 0,0.553 0.448,1 1,1 l 1,0 0,2 c 0,0.553 0.448,1 1,1 0.552,0 1,-0.447 1,-1 l 0,-2 1,0 c 0.552,0 1,-0.447 1,-1 0,-0.553 -0.448,-1 -1,-1 z"
         id="path13"
         inkscape:connector-curvature="0"
         style="fill:#15959a;fill-opacity:1" /><path
         d="m 40,44 -4,0 c -0.552,0 -1,0.447 -1,1 0,0.553 0.448,1 1,1 l 1,0 0,2 c 0,0.553 0.448,1 1,1 0.552,0 1,-0.447 1,-1 l 0,-2 1,0 c 0.552,0 1,-0.447 1,-1 0,-0.553 -0.448,-1 -1,-1 z"
         id="path15"
         inkscape:connector-curvature="0"
         style="fill:#15959a;fill-opacity:1" /><path
         d="m 48,44 -4,0 c -0.552,0 -1,0.447 -1,1 0,0.553 0.448,1 1,1 l 1,0 0,2 c 0,0.553 0.448,1 1,1 0.552,0 1,-0.447 1,-1 l 0,-2 1,0 c 0.552,0 1,-0.447 1,-1 0,-0.553 -0.448,-1 -1,-1 z"
         id="path17"
         inkscape:connector-curvature="0"
         style="fill:#15959a;fill-opacity:1" /><path
         d="m 19,39 1,0 c 0.552,0 1,-0.447 1,-1 0,-0.553 -0.448,-1 -1,-1 l -4,0 c -0.552,0 -1,0.447 -1,1 0,0.553 0.448,1 1,1 l 1,0 0,2 c 0,0.553 0.448,1 1,1 0.552,0 1,-0.447 1,-1 l 0,-2 z"
         id="path19"
         inkscape:connector-curvature="0"
         style="fill:#15959a;fill-opacity:1" /><path
         d="m 27,39 1,0 c 0.552,0 1,-0.447 1,-1 0,-0.553 -0.448,-1 -1,-1 l -4,0 c -0.552,0 -1,0.447 -1,1 0,0.553 0.448,1 1,1 l 1,0 0,2 c 0,0.553 0.448,1 1,1 0.552,0 1,-0.447 1,-1 l 0,-2 z"
         id="path21"
         inkscape:connector-curvature="0"
         style="fill:#15959a;fill-opacity:1" /><path
         d="m 35,39 1,0 c 0.552,0 1,-0.447 1,-1 0,-0.553 -0.448,-1 -1,-1 l -4,0 c -0.552,0 -1,0.447 -1,1 0,0.553 0.448,1 1,1 l 1,0 0,2 c 0,0.553 0.448,1 1,1 0.552,0 1,-0.447 1,-1 l 0,-2 z"
         id="path23"
         inkscape:connector-curvature="0"
         style="fill:#15959a;fill-opacity:1" /><path
         d="m 43,39 1,0 c 0.552,0 1,-0.447 1,-1 0,-0.553 -0.448,-1 -1,-1 l -4,0 c -0.552,0 -1,0.447 -1,1 0,0.553 0.448,1 1,1 l 1,0 0,2 c 0,0.553 0.448,1 1,1 0.552,0 1,-0.447 1,-1 l 0,-2 z"
         id="path25"
         inkscape:connector-curvature="0"
         style="fill:#15959a;fill-opacity:1" /><path
         d="m 17,16 18,0 c 0.552,0 1,-0.447 1,-1 0,-0.553 -0.448,-1 -1,-1 l -18,0 c -0.552,0 -1,0.447 -1,1 0,0.553 0.448,1 1,1 z"
         id="path27"
         inkscape:connector-curvature="0"
         style="fill:#15959a;fill-opacity:1" /><path
         d="m 17,20 6,0 c 0.552,0 1,-0.447 1,-1 0,-0.553 -0.448,-1 -1,-1 l -6,0 c -0.552,0 -1,0.447 -1,1 0,0.553 0.448,1 1,1 z"
         id="path29"
         inkscape:connector-curvature="0"
         style="fill:#15959a;fill-opacity:1" /><path
         d="m 39,18 -6,0 c -0.552,0 -1,0.447 -1,1 0,0.553 0.448,1 1,1 l 6,0 c 0.552,0 1,-0.447 1,-1 0,-0.553 -0.448,-1 -1,-1 z"
         id="path31"
         inkscape:connector-curvature="0"
         style="fill:#15959a;fill-opacity:1" /><path
         d="M 27.29,18.29 C 27.11,18.479 27,18.74 27,19 c 0,0.26 0.11,0.52 0.29,0.71 0.19,0.18 0.45,0.29 0.71,0.29 0.26,0 0.52,-0.11 0.71,-0.29 C 28.89,19.52 29,19.26 29,19 c 0,-0.26 -0.11,-0.521 -0.29,-0.71 -0.38,-0.37 -1.04,-0.37 -1.42,0 z"
         id="path33"
         inkscape:connector-curvature="0"
         style="fill:#15959a;fill-opacity:1" /><path
         d="m 33,22 -11,0 c -0.552,0 -1,0.447 -1,1 0,0.553 0.448,1 1,1 l 11,0 c 0.552,0 1,-0.447 1,-1 0,-0.553 -0.448,-1 -1,-1 z"
         id="path35"
         inkscape:connector-curvature="0"
         style="fill:#15959a;fill-opacity:1" /><path
         d="M 16.29,22.29 C 16.11,22.479 16,22.74 16,23 c 0,0.26 0.11,0.52 0.29,0.71 0.19,0.189 0.45,0.29 0.71,0.29 0.26,0 0.52,-0.11 0.71,-0.29 C 17.89,23.52 18,23.26 18,23 18,22.74 17.89,22.479 17.71,22.3 17.35,21.92 16.67,21.92 16.29,22.29 Z"
         id="path37"
         inkscape:connector-curvature="0"
         style="fill:#15959a;fill-opacity:1" /></g></g><g
     id="g39"
     transform="translate(0,40)" /><g
     id="g41"
     transform="translate(0,40)" /><g
     id="g43"
     transform="translate(0,40)" /><g
     id="g45"
     transform="translate(0,40)" /><g
     id="g47"
     transform="translate(0,40)" /><g
     id="g49"
     transform="translate(0,40)" /><g
     id="g51"
     transform="translate(0,40)" /><g
     id="g53"
     transform="translate(0,40)" /><g
     id="g55"
     transform="translate(0,40)" /><g
     id="g57"
     transform="translate(0,40)" /><g
     id="g59"
     transform="translate(0,40)" /><g
     id="g61"
     transform="translate(0,40)" /><g
     id="g63"
     transform="translate(0,40)" /><g
     id="g65"
     transform="translate(0,40)" /><g
     id="g67"
     transform="translate(0,40)" /></svg>
