<?xml version="1.0" encoding="UTF-8" standalone="no"?>
<!-- Generator: Adobe Illustrator 17.1.0, SVG Export Plug-In . SVG Version: 6.00 Build 0)  -->

<svg
   xmlns:dc="http://purl.org/dc/elements/1.1/"
   xmlns:cc="http://creativecommons.org/ns#"
   xmlns:rdf="http://www.w3.org/1999/02/22-rdf-syntax-ns#"
   xmlns:svg="http://www.w3.org/2000/svg"
   xmlns="http://www.w3.org/2000/svg"
   xmlns:sodipodi="http://sodipodi.sourceforge.net/DTD/sodipodi-0.dtd"
   xmlns:inkscape="http://www.inkscape.org/namespaces/inkscape"
   version="1.1"
   id="Capa_1"
   x="0px"
   y="0px"
   viewBox="0 0 100 100"
   xml:space="preserve"
   inkscape:version="0.91 r13725"
   sodipodi:docname="media-image.svg"
   width="100"
   height="100"><metadata
     id="metadata45"><rdf:RDF><cc:Work
         rdf:about=""><dc:format>image/svg+xml</dc:format><dc:type
           rdf:resource="http://purl.org/dc/dcmitype/StillImage" /><dc:title /></cc:Work></rdf:RDF></metadata><defs
     id="defs43" /><sodipodi:namedview
     pagecolor="#ffffff"
     bordercolor="#666666"
     borderopacity="1"
     objecttolerance="10"
     gridtolerance="10"
     guidetolerance="10"
     inkscape:pageopacity="0"
     inkscape:pageshadow="2"
     inkscape:window-width="1920"
     inkscape:window-height="1029"
     id="namedview41"
     showgrid="false"
     inkscape:zoom="6.7298104"
     inkscape:cx="-12.625617"
     inkscape:cy="33.442775"
     inkscape:window-x="0"
     inkscape:window-y="27"
     inkscape:window-maximized="1"
     inkscape:current-layer="Capa_1" /><g
     id="g11"
     transform="matrix(-1,0,0,1,455,-355)" /><g
     id="g13"
     transform="matrix(-1,0,0,1,455,-355)" /><g
     id="g15"
     transform="matrix(-1,0,0,1,455,-355)" /><g
     id="g17"
     transform="matrix(-1,0,0,1,455,-355)" /><g
     id="g19"
     transform="matrix(-1,0,0,1,455,-355)" /><g
     id="g21"
     transform="matrix(-1,0,0,1,455,-355)" /><g
     id="g23"
     transform="matrix(-1,0,0,1,455,-355)" /><g
     id="g25"
     transform="matrix(-1,0,0,1,455,-355)" /><g
     id="g27"
     transform="matrix(-1,0,0,1,455,-355)" /><g
     id="g29"
     transform="matrix(-1,0,0,1,455,-355)" /><g
     id="g31"
     transform="matrix(-1,0,0,1,455,-355)" /><g
     id="g33"
     transform="matrix(-1,0,0,1,455,-355)" /><g
     id="g35"
     transform="matrix(-1,0,0,1,455,-355)" /><g
     id="g37"
     transform="matrix(-1,0,0,1,455,-355)" /><g
     id="g39"
     transform="matrix(-1,0,0,1,455,-355)" /><g
     id="g3"
     transform="matrix(-0.17769449,0,0,0.17769449,90.425496,9.5745013)"
     style="fill:#3ba643;fill-opacity:1"><path
       d="M 397.5,0 C 365.794,0 340,25.794 340,57.5 l 0,25.94 -30,6.444 0,-0.718 c 0,-4.142 -3.357,-7.5 -7.5,-7.5 -4.143,0 -7.5,3.358 -7.5,7.5 l 0,3.94 -30,6.444 0,-0.718 c 0,-4.142 -3.357,-7.5 -7.5,-7.5 -4.143,0 -7.5,3.358 -7.5,7.5 l 0,3.94 -30,6.444 0,-0.716 c 0,-4.142 -3.358,-7.5 -7.5,-7.5 -4.142,0 -7.5,3.358 -7.5,7.5 l 0,3.94 -30,6.444 0,-0.718 c 0,-4.142 -3.358,-7.5 -7.5,-7.5 -4.142,0 -7.5,3.358 -7.5,7.5 l 0,3.94 -30,6.444 0,-0.718 c 0,-4.142 -3.358,-7.5 -7.5,-7.5 -4.142,0 -7.5,3.358 -7.5,7.5 l 0,3.94 -30,6.444 0,-18.946 19.208,-38.416 C 104.729,79.813 105,78.664 105,77.5 105,51.308 83.691,30 57.5,30 53.358,30 50,33.358 50,37.5 l 0,80 c 0,4.142 3.358,7.5 7.5,7.5 l 12.5,0 0,19 -22.5,0 c -4.142,0 -7.5,3.358 -7.5,7.5 L 40,174 7.5,174 C 3.358,174 0,177.358 0,181.5 l 0,70 c 0,4.142 3.358,7.5 7.5,7.5 l 32.5,0 0,22.5 c 0,4.142 3.358,7.5 7.5,7.5 l 22.5,0 0,71 -32.5,0 c -4.142,0 -7.5,3.358 -7.5,7.5 l 0,30 c 0,4.142 3.358,7.5 7.5,7.5 l 32.5,0 0,42.5 c 0,4.142 3.358,7.5 7.5,7.5 4.142,0 7.5,-3.358 7.5,-7.5 l 0,-42.5 255.505,0 c 3.688,28.172 27.832,50 56.995,50 31.706,0 57.5,-25.794 57.5,-57.5 l 0,-340 C 455,25.794 429.206,0 397.5,0 Z M 340,326.221 304.072,318.516 c -2.213,-0.474 -4.525,0.076 -6.287,1.5 -1.762,1.424 -2.785,3.568 -2.785,5.833 l 0,9.983 c 0,4.142 3.357,7.5 7.5,7.5 4.143,0 7.5,-3.358 7.5,-7.5 l 0,-0.705 30,6.433 0,18.44 -103.394,0 L 340,256.607 l 0,69.614 z m -135,-198.439 0,169.436 -30,-6.444 0,-156.547 30,-6.445 z m -45,9.667 0,150.102 -30,-6.444 0,-137.214 30,-6.444 z m -45,140.435 -30,-6.444 0,-117.88 30,-6.444 0,130.768 z M 65,85 67.5,85 C 71.642,85 75,81.642 75,77.5 75,73.358 71.642,70 67.5,70 L 65,70 65,45.873 c 13.791,3.27 24.209,15.349 24.957,29.942 L 72.865,110 65,110 65,85 Z m -50,159 0,-55 25,0 0,55 -25,0 z m 40,-85 15,0 0,115 -15,0 0,-115 z m 30,127.782 30,6.444 0,3.94 c 0,4.142 3.358,7.5 7.5,7.5 4.142,0 7.5,-3.358 7.5,-7.5 l 0,-0.718 30,6.444 0,3.94 c 0,4.142 3.358,7.5 7.5,7.5 4.142,0 7.5,-3.358 7.5,-7.5 l 0,-0.718 30,6.445 0,3.94 c 0,4.142 3.358,7.5 7.5,7.5 4.142,0 7.5,-3.358 7.5,-7.5 l 0,-0.718 11.153,2.396 c 0.531,0.114 1.061,0.169 1.583,0.169 3.459,0 6.569,-2.407 7.325,-5.926 0.87,-4.05 -1.708,-8.038 -5.758,-8.908 L 220,300.44 l 0,-175.88 30,-6.444 0,167.958 c 0,4.142 3.357,7.5 7.5,7.5 4.143,0 7.5,-3.358 7.5,-7.5 l 0,-171.18 30,-6.444 0,132.625 c 0,4.142 3.357,7.5 7.5,7.5 4.143,0 7.5,-3.358 7.5,-7.5 l 0,-135.848 30,-6.444 0,136.611 L 215.394,360 85,360 85,286.782 Z M 45,375 l 295,0 0,15 -295,0 0,-15 z m 395,22.5 C 440,420.935 420.935,440 397.5,440 374.065,440 355,420.935 355,397.5 l 0,-61.918 c 0,-0.016 0,-0.032 0,-0.048 l 0,-97.029 c 0,-0.003 0,-0.007 0,-0.01 l 0,-149.022 c 0,-0.021 0,-0.042 0,-0.063 L 355,57.5 C 355,34.065 374.065,15 397.5,15 420.935,15 440,34.065 440,57.5 l 0,340 z"
       id="path5"
       inkscape:connector-curvature="0"
       style="fill:#3ba643;fill-opacity:1" /><path
       d="m 397.5,370 c -15.163,0 -27.5,12.336 -27.5,27.5 0,15.164 12.337,27.5 27.5,27.5 15.163,0 27.5,-12.336 27.5,-27.5 0,-15.164 -12.337,-27.5 -27.5,-27.5 z m 0,40 c -6.893,0 -12.5,-5.607 -12.5,-12.5 0,-6.893 5.607,-12.5 12.5,-12.5 6.893,0 12.5,5.607 12.5,12.5 0,6.893 -5.607,12.5 -12.5,12.5 z"
       id="path7"
       inkscape:connector-curvature="0"
       style="fill:#3ba643;fill-opacity:1" /><path
       d="M 397.5,30 C 382.337,30 370,42.336 370,57.5 370,72.664 382.337,85 397.5,85 412.663,85 425,72.664 425,57.5 425,42.336 412.663,30 397.5,30 Z m 0,40 C 390.607,70 385,64.393 385,57.5 385,50.607 390.607,45 397.5,45 c 6.893,0 12.5,5.607 12.5,12.5 0,6.893 -5.607,12.5 -12.5,12.5 z"
       id="path9"
       inkscape:connector-curvature="0"
       style="fill:#3ba643;fill-opacity:1" /></g></svg>
