<?xml version="1.0" encoding="UTF-8" standalone="no"?>
<!-- Generator: Adobe Illustrator 17.1.0, SVG Export Plug-In . SVG Version: 6.00 Build 0)  -->

<svg
   xmlns:dc="http://purl.org/dc/elements/1.1/"
   xmlns:cc="http://creativecommons.org/ns#"
   xmlns:rdf="http://www.w3.org/1999/02/22-rdf-syntax-ns#"
   xmlns:svg="http://www.w3.org/2000/svg"
   xmlns="http://www.w3.org/2000/svg"
   xmlns:sodipodi="http://sodipodi.sourceforge.net/DTD/sodipodi-0.dtd"
   xmlns:inkscape="http://www.inkscape.org/namespaces/inkscape"
   version="1.1"
   id="Capa_1"
   x="0px"
   y="0px"
   viewBox="0 0 100 100"
   xml:space="preserve"
   inkscape:version="0.91 r13725"
   sodipodi:docname="media-video.svg"
   width="100"
   height="100"><metadata
     id="metadata53"><rdf:RDF><cc:Work
         rdf:about=""><dc:format>image/svg+xml</dc:format><dc:type
           rdf:resource="http://purl.org/dc/dcmitype/StillImage" /><dc:title /></cc:Work></rdf:RDF></metadata><defs
     id="defs51" /><sodipodi:namedview
     pagecolor="#ffffff"
     bordercolor="#666666"
     borderopacity="1"
     objecttolerance="10"
     gridtolerance="10"
     guidetolerance="10"
     inkscape:pageopacity="0"
     inkscape:pageshadow="2"
     inkscape:window-width="1920"
     inkscape:window-height="1029"
     id="namedview49"
     showgrid="false"
     inkscape:zoom="8.6"
     inkscape:cx="11.686046"
     inkscape:cy="47.55814"
     inkscape:window-x="0"
     inkscape:window-y="27"
     inkscape:window-maximized="1"
     inkscape:current-layer="Capa_1" /><g
     id="g3"
     transform="matrix(0.17749724,0,0,0.17749724,9.619379,3.6193766)"
     style="fill:#3ba643;fill-opacity:1"><path
       d="m 382.5,160 c -17.921,0 -32.5,14.58 -32.5,32.5 0,17.92 14.579,32.5 32.5,32.5 17.921,0 32.5,-14.58 32.5,-32.5 0,-17.92 -14.579,-32.5 -32.5,-32.5 z m 0,50 c -9.649,0 -17.5,-7.851 -17.5,-17.5 0,-9.649 7.851,-17.5 17.5,-17.5 9.649,0 17.5,7.851 17.5,17.5 0,9.649 -7.851,17.5 -17.5,17.5 z"
       id="path5"
       inkscape:connector-curvature="0"
       style="fill:#3ba643;fill-opacity:1" /><path
       d="m 382.5,240 c -17.921,0 -32.5,14.58 -32.5,32.5 0,17.92 14.579,32.5 32.5,32.5 17.921,0 32.5,-14.58 32.5,-32.5 0,-17.92 -14.579,-32.5 -32.5,-32.5 z m 0,50 c -9.649,0 -17.5,-7.851 -17.5,-17.5 0,-9.649 7.851,-17.5 17.5,-17.5 9.649,0 17.5,7.851 17.5,17.5 0,9.649 -7.851,17.5 -17.5,17.5 z"
       id="path7"
       inkscape:connector-curvature="0"
       style="fill:#3ba643;fill-opacity:1" /><path
       d="m 407.5,400 -50,0 c -4.143,0 -7.5,3.358 -7.5,7.5 0,4.142 3.357,7.5 7.5,7.5 l 50,0 c 4.143,0 7.5,-3.358 7.5,-7.5 0,-4.142 -3.357,-7.5 -7.5,-7.5 z"
       id="path9"
       inkscape:connector-curvature="0"
       style="fill:#3ba643;fill-opacity:1" /><path
       d="m 407.5,370 -50,0 c -4.143,0 -7.5,3.358 -7.5,7.5 0,4.142 3.357,7.5 7.5,7.5 l 50,0 c 4.143,0 7.5,-3.358 7.5,-7.5 0,-4.142 -3.357,-7.5 -7.5,-7.5 z"
       id="path11"
       inkscape:connector-curvature="0"
       style="fill:#3ba643;fill-opacity:1" /><path
       d="m 407.5,340 -50,0 c -4.143,0 -7.5,3.358 -7.5,7.5 0,4.142 3.357,7.5 7.5,7.5 l 50,0 c 4.143,0 7.5,-3.358 7.5,-7.5 0,-4.142 -3.357,-7.5 -7.5,-7.5 z"
       id="path13"
       inkscape:connector-curvature="0"
       style="fill:#3ba643;fill-opacity:1" /><path
       d="m 427.5,120 -218.341,0 51.71,-95.148 c 6.029,-0.887 10.676,-6.08 10.676,-12.352 0,-6.893 -5.607,-12.5 -12.5,-12.5 -6.893,0 -12.5,5.607 -12.5,12.5 0,1.853 0.416,3.607 1.143,5.19 L 192.086,120 161.007,120 105.402,17.69 c 0.727,-1.583 1.143,-3.337 1.143,-5.19 0,-6.893 -5.607,-12.5 -12.5,-12.5 -6.893,0 -12.5,5.607 -12.5,12.5 0,6.272 4.648,11.464 10.677,12.352 L 143.934,120 27.5,120 C 12.336,120 0,132.336 0,147.5 l 0,280 C 0,442.664 12.336,455 27.5,455 l 400,0 c 15.163,0 27.5,-12.336 27.5,-27.5 l 0,-280 C 455,132.336 442.663,120 427.5,120 Z M 440,427.5 c 0,6.893 -5.607,12.5 -12.5,12.5 l -400,0 C 20.607,440 15,434.393 15,427.5 l 0,-280 C 15,140.607 20.607,135 27.5,135 l 129.031,0 c 0.007,0 0.015,0.001 0.022,0.001 0.008,0 0.016,-0.001 0.024,-0.001 l 39.938,0 c 0.008,0 0.016,0.001 0.024,0.001 0.007,0 0.015,-0.001 0.022,-0.001 l 230.939,0 c 6.893,0 12.5,5.607 12.5,12.5 l 0,280 z"
       id="path15"
       inkscape:connector-curvature="0"
       style="fill:#3ba643;fill-opacity:1" /><path
       d="M 295.288,186.301 C 273.339,169.832 231.175,160 182.5,160 c -48.675,0 -90.839,9.832 -112.789,26.301 -16.584,12.442 -27.284,42.286 -29.358,81.878 -2.17,41.436 5.903,95.697 28.756,116.916 C 92.856,407.144 143.253,415 182.5,415 c 39.247,0 89.644,-7.856 113.39,-29.905 8.923,-8.284 16.072,-21.94 21.251,-40.588 1.108,-3.991 -1.229,-8.125 -5.22,-9.233 -3.997,-1.109 -8.125,1.229 -9.233,5.22 -4.362,15.71 -10.242,27.332 -17.004,33.609 C 268.741,389.834 228.239,400 182.5,400 136.761,400 96.259,389.834 79.315,374.103 63.283,359.217 52.973,314.018 55.333,268.964 57.146,234.34 65.887,207.923 78.713,198.299 97.868,183.928 137.637,175 182.5,175 c 44.863,0 84.632,8.928 103.786,23.299 18.288,13.721 27.929,63.492 21.949,113.307 -0.494,4.113 2.439,7.847 6.553,8.341 4.104,0.486 7.846,-2.44 8.34,-6.553 5.634,-46.925 -0.676,-106.713 -27.84,-127.093 z"
       id="path17"
       inkscape:connector-curvature="0"
       style="fill:#3ba643;fill-opacity:1" /></g><g
     id="g19"
     transform="translate(0,-355)" /><g
     id="g21"
     transform="translate(0,-355)" /><g
     id="g23"
     transform="translate(0,-355)" /><g
     id="g25"
     transform="translate(0,-355)" /><g
     id="g27"
     transform="translate(0,-355)" /><g
     id="g29"
     transform="translate(0,-355)" /><g
     id="g31"
     transform="translate(0,-355)" /><g
     id="g33"
     transform="translate(0,-355)" /><g
     id="g35"
     transform="translate(0,-355)" /><g
     id="g37"
     transform="translate(0,-355)" /><g
     id="g39"
     transform="translate(0,-355)" /><g
     id="g41"
     transform="translate(0,-355)" /><g
     id="g43"
     transform="translate(0,-355)" /><g
     id="g45"
     transform="translate(0,-355)" /><g
     id="g47"
     transform="translate(0,-355)" /></svg>
