<?xml version="1.0" encoding="UTF-8" standalone="no"?>
<!-- Generator: Adobe Illustrator 19.0.0, SVG Export Plug-In . SVG Version: 6.00 Build 0)  -->

<svg
   xmlns:dc="http://purl.org/dc/elements/1.1/"
   xmlns:cc="http://creativecommons.org/ns#"
   xmlns:rdf="http://www.w3.org/1999/02/22-rdf-syntax-ns#"
   xmlns:svg="http://www.w3.org/2000/svg"
   xmlns="http://www.w3.org/2000/svg"
   xmlns:sodipodi="http://sodipodi.sourceforge.net/DTD/sodipodi-0.dtd"
   xmlns:inkscape="http://www.inkscape.org/namespaces/inkscape"
   version="1.1"
   id="Layer_1"
   x="0px"
   y="0px"
   viewBox="0 0 100 100"
   xml:space="preserve"
   inkscape:version="0.91 r13725"
   sodipodi:docname="media-audio.svg"
   width="100"
   height="100"><metadata
     id="metadata53"><rdf:RDF><cc:Work
         rdf:about=""><dc:format>image/svg+xml</dc:format><dc:type
           rdf:resource="http://purl.org/dc/dcmitype/StillImage" /><dc:title /></cc:Work></rdf:RDF></metadata><defs
     id="defs51" /><sodipodi:namedview
     pagecolor="#000000"
     bordercolor="#666666"
     borderopacity="1"
     objecttolerance="10"
     gridtolerance="10"
     guidetolerance="10"
     inkscape:pageopacity="0"
     inkscape:pageshadow="2"
     inkscape:window-width="1920"
     inkscape:window-height="1029"
     id="namedview49"
     showgrid="false"
     inkscape:zoom="8.6139913"
     inkscape:cx="-18.086904"
     inkscape:cy="44.941314"
     inkscape:window-x="0"
     inkscape:window-y="27"
     inkscape:window-maximized="1"
     inkscape:current-layer="Layer_1" /><g
     id="g3"
     transform="matrix(-0.15798963,0,0,0.15798963,90.445265,9.5053797)"
     style="fill:#3ba643;fill-opacity:1"><g
       id="g5"
       style="fill:#3ba643;fill-opacity:1"><g
         id="g7"
         style="fill:#3ba643;fill-opacity:1"><path
           d="m 503.467,444.01 -8.533,0 0,-42.667 c 0,-4.719 -3.814,-8.533 -8.533,-8.533 l -25.6,0 0,-25.6 c 0,-13.534 6.426,-19.968 14.566,-28.1 2.441,-2.441 3.174,-6.11 1.852,-9.301 -1.323,-3.191 -4.437,-5.265 -7.885,-5.265 l -196.267,0 0,-17.067 162.133,0 c 4.719,0 8.533,-3.823 8.533,-8.533 0,-4.719 -3.814,-8.533 -8.533,-8.533 l -341.333,0 c -4.719,0 -8.533,3.814 -8.533,8.533 0,4.71 3.814,8.533 8.533,8.533 l 162.133,0 0,17.067 -196.267,0 c -3.447,0 -6.571,2.074 -7.885,5.265 -1.322,3.191 -0.588,6.861 1.852,9.301 8.141,8.132 14.566,14.566 14.566,28.1 l 0,85.333 c 0,13.534 -6.426,19.959 -14.566,28.1 -2.44,2.441 -3.174,6.101 -1.852,9.293 1.314,3.191 4.437,5.274 7.885,5.274 l 59.733,0 0,7.996 c 0,4.71 3.814,8.533 8.533,8.533 4.719,0 8.533,-3.823 8.533,-8.533 l 0,-16.529 c 0,-4.719 -3.814,-8.533 -8.533,-8.533 l -49.834,0 c 4.139,-6.562 7.168,-14.72 7.168,-25.6 l 0,-85.334 c 0,-10.88 -3.029,-19.038 -7.168,-25.6 l 372.736,0 c -4.147,6.562 -7.168,14.72 -7.168,25.6 l 0,85.333 c 0,10.88 3.021,19.038 7.168,25.6 l -49.835,0 c -4.719,0 -8.533,3.814 -8.533,8.533 l 0,16.529 c 0,4.71 3.814,8.533 8.533,8.533 4.719,0 8.533,-3.823 8.533,-8.533 l 0,-7.996 59.733,0 c 3.447,0 6.562,-2.082 7.885,-5.274 1.323,-3.191 0.589,-6.852 -1.852,-9.293 -8.141,-8.141 -14.566,-14.566 -14.566,-28.1 l 0,-42.667 17.067,0 0,42.667 c 0,4.71 3.814,8.533 8.533,8.533 l 17.067,0 c 4.719,0 8.533,-3.823 8.533,-8.533 10e-4,-4.717 -3.813,-8.532 -8.532,-8.532 z"
           id="path9"
           inkscape:connector-curvature="0"
           style="fill:#3ba643;fill-opacity:1" /><path
           d="m 366.933,478.144 -204.8,0 c -4.719,0 -8.533,3.814 -8.533,8.533 0,4.71 3.814,8.533 8.533,8.533 l 204.8,0 c 4.719,0 8.533,-3.823 8.533,-8.533 10e-4,-4.719 -3.814,-8.533 -8.533,-8.533 z"
           id="path11"
           inkscape:connector-curvature="0"
           style="fill:#3ba643;fill-opacity:1" /><path
           d="m 180.599,196.424 c 0.512,-0.085 51.959,-8.414 177.801,-8.414 9.404,0 17.067,7.654 17.067,17.067 0,9.412 -7.663,17.067 -17.067,17.067 l -8.533,0 c -23.125,0 -42.667,19.533 -42.667,42.667 0,4.71 3.814,8.533 8.533,8.533 4.719,0 8.533,-3.823 8.533,-8.533 0,-13.636 11.964,-25.6 25.6,-25.6 l 8.533,0 c 18.825,0 34.133,-15.317 34.133,-34.133 0,-18.825 -15.309,-34.133 -34.133,-34.133 -127.241,0 -178.483,8.294 -179.908,8.559 -90.82,7.569 -130.338,53.982 -161.425,104.977 l 0,-244.14 c 31.078,50.987 70.519,97.391 160.734,104.883 2.116,0.358 53.359,8.653 180.599,8.653 28.237,0 51.2,22.963 51.2,51.2 0,28.228 -22.963,51.2 -51.2,51.2 l -8.533,0 c -4.719,0 -8.533,3.814 -8.533,8.533 0,4.71 3.814,8.533 8.533,8.533 l 8.533,0 c 37.641,0 68.267,-30.626 68.267,-68.267 0,-37.641 -30.626,-68.267 -68.267,-68.267 -125.491,0 -177.289,-8.337 -178.492,-8.508 C 81.98,120.145 49.903,64.004 15.94,4.578 14.02,1.216 10.112,-0.465 6.34,0.559 2.603,1.557 0,4.936 0,8.81 l 0,307.2 c 0,3.866 2.603,7.253 6.34,8.243 0.734,0.196 1.468,0.29 2.193,0.29 3.004,0 5.862,-1.596 7.407,-4.301 33.963,-59.434 66.04,-115.575 164.659,-123.818 z"
           id="path13"
           inkscape:connector-curvature="0"
           style="fill:#3ba643;fill-opacity:1" /><path
           d="m 110.933,461.077 307.2,0 c 4.719,0 8.533,-3.823 8.533,-8.533 0,-4.719 -3.814,-8.533 -8.533,-8.533 l -307.2,0 c -4.719,0 -8.533,3.814 -8.533,8.533 0,4.71 3.814,8.533 8.533,8.533 z"
           id="path15"
           inkscape:connector-curvature="0"
           style="fill:#3ba643;fill-opacity:1" /><path
           d="m 110.933,375.744 307.2,0 c 4.719,0 8.533,-3.823 8.533,-8.533 0,-4.719 -3.814,-8.533 -8.533,-8.533 l -307.2,0 c -4.719,0 -8.533,3.814 -8.533,8.533 0,4.71 3.814,8.533 8.533,8.533 z"
           id="path17"
           inkscape:connector-curvature="0"
           style="fill:#3ba643;fill-opacity:1" /></g></g></g><g
     id="g19"
     transform="matrix(-1,0,0,1,511.999,-412)" /><g
     id="g21"
     transform="matrix(-1,0,0,1,511.999,-412)" /><g
     id="g23"
     transform="matrix(-1,0,0,1,511.999,-412)" /><g
     id="g25"
     transform="matrix(-1,0,0,1,511.999,-412)" /><g
     id="g27"
     transform="matrix(-1,0,0,1,511.999,-412)" /><g
     id="g29"
     transform="matrix(-1,0,0,1,511.999,-412)" /><g
     id="g31"
     transform="matrix(-1,0,0,1,511.999,-412)" /><g
     id="g33"
     transform="matrix(-1,0,0,1,511.999,-412)" /><g
     id="g35"
     transform="matrix(-1,0,0,1,511.999,-412)" /><g
     id="g37"
     transform="matrix(-1,0,0,1,511.999,-412)" /><g
     id="g39"
     transform="matrix(-1,0,0,1,511.999,-412)" /><g
     id="g41"
     transform="matrix(-1,0,0,1,511.999,-412)" /><g
     id="g43"
     transform="matrix(-1,0,0,1,511.999,-412)" /><g
     id="g45"
     transform="matrix(-1,0,0,1,511.999,-412)" /><g
     id="g47"
     transform="matrix(-1,0,0,1,511.999,-412)" /></svg>
