<?xml version="1.0" encoding="UTF-8" standalone="no"?>
<!-- Generator: Adobe Illustrator 19.0.0, SVG Export Plug-In . SVG Version: 6.00 Build 0)  -->

<svg
   xmlns:dc="http://purl.org/dc/elements/1.1/"
   xmlns:cc="http://creativecommons.org/ns#"
   xmlns:rdf="http://www.w3.org/1999/02/22-rdf-syntax-ns#"
   xmlns:svg="http://www.w3.org/2000/svg"
   xmlns="http://www.w3.org/2000/svg"
   xmlns:sodipodi="http://sodipodi.sourceforge.net/DTD/sodipodi-0.dtd"
   xmlns:inkscape="http://www.inkscape.org/namespaces/inkscape"
   version="1.1"
   id="Capa_1"
   x="0px"
   y="0px"
   viewBox="0 0 100 100"
   xml:space="preserve"
   inkscape:version="0.91 r13725"
   sodipodi:docname="media-app.svg"
   width="100"
   height="100"><metadata
     id="metadata39"><rdf:RDF><cc:Work
         rdf:about=""><dc:format>image/svg+xml</dc:format><dc:type
           rdf:resource="http://purl.org/dc/dcmitype/StillImage" /><dc:title></dc:title></cc:Work></rdf:RDF></metadata><defs
     id="defs37" /><sodipodi:namedview
     pagecolor="#000000"
     bordercolor="#666666"
     borderopacity="1"
     objecttolerance="10"
     gridtolerance="10"
     guidetolerance="10"
     inkscape:pageopacity="0"
     inkscape:pageshadow="2"
     inkscape:window-width="1372"
     inkscape:window-height="964"
     id="namedview35"
     showgrid="false"
     inkscape:zoom="7.31"
     inkscape:cx="50"
     inkscape:cy="50"
     inkscape:window-x="0"
     inkscape:window-y="27"
     inkscape:window-maximized="0"
     inkscape:current-layer="Capa_1" /><path
     d="m 90.046041,64.02378 -27.983538,0 c -2.529585,0 -4.673717,-1.892817 -4.987642,-4.402815 L 55.363754,45.932277 c -0.05369,-0.429175 0.0745,-0.844011 0.360619,-1.168079 0.286292,-0.324243 0.682066,-0.502805 1.114564,-0.502805 l 15.018714,0 c 4.677039,0 8.482086,3.805047 8.482086,8.482087 0,0.724387 0.587274,1.311662 1.311663,1.311662 l 1.48655,0 0,7.08298 c 0,0.724387 0.587276,1.311663 1.311663,1.311663 0.724388,0 1.311663,-0.587276 1.311663,-1.311663 l 0,-7.08298 1.486551,0 c 0.724388,0 1.311663,-0.587275 1.311663,-1.311662 l 0,-26.583032 c 0,-0.724388 -0.587275,-1.311662 -1.311663,-1.311662 l -5.596427,0 c -0.724389,0 -1.311663,0.587274 -1.311663,1.311662 0,2.362567 -1.922199,4.284765 -4.284765,4.284765 l -29.468691,0 0,-1.573995 2.885658,0 c 0.724388,0 1.311663,-0.587276 1.311663,-1.311663 0,-0.724387 -0.587275,-1.311663 -1.311663,-1.311663 l -0.08744,0 0,-5.771316 0.08744,0 c 0.724388,0 1.311663,-0.587275 1.311663,-1.311662 0,-0.724388 -0.587275,-1.311664 -1.311663,-1.311664 l -8.394642,0 c -0.724387,0 -1.311662,0.587276 -1.311662,1.311664 0,0.724387 0.587275,1.311662 1.311662,1.311662 l 0.08744,0 0,5.771316 -0.08744,0 c -0.724387,0 -1.311662,0.587276 -1.311662,1.311663 0,0.724387 0.587275,1.311663 1.311662,1.311663 l 2.885659,0 0,1.573995 -2.885659,0 c -2.052664,0 -3.84527,1.129254 -4.79299,2.798214 l -3.689095,0 0,-4.284765 c 0,-2.266204 -1.843674,-4.109876 -4.109877,-4.109876 -2.266204,0 -4.109876,1.843672 -4.109876,4.109876 l 0,7.082979 -1.573996,0 0,-1.486552 c 0,-0.724387 -0.587275,-1.311662 -1.311663,-1.311662 -0.724388,0 -1.311662,0.587275 -1.311662,1.311662 l 0,6.279368 c -0.858702,-1.060173 -1.573996,-2.122446 -1.573996,-3.481153 l 0,-2.798215 c 0,-0.724387 -0.587275,-1.311662 -1.311663,-1.311662 l -8.3946406,0 c -2.2662035,0 -4.1098767,1.843673 -4.1098767,4.109877 0,2.266203 1.8436732,4.109876 4.1098767,4.109876 l 8.3946406,0 c 0.02605,0 0.05141,-0.0024 0.07695,-0.0039 0.407141,0.595671 0.852756,1.132053 1.264093,1.625063 0.828797,0.993191 1.544615,1.851018 1.544615,2.66355 l 0,4.197321 c 0,0.724387 0.587274,1.311663 1.311662,1.311663 0.724388,0 1.311663,-0.587276 1.311663,-1.311663 l 0,-11.2803 1.573996,0 0,7.082979 c 0,2.266203 1.843672,4.109876 4.109876,4.109876 2.266203,0 4.109877,-1.843673 4.109877,-4.109876 l 0,-4.284765 2.973102,0 0,19.674941 c 0,1.591134 -1.294524,2.885659 -2.885658,2.885659 l -8.394642,0 c -2.266204,0 -4.109876,1.843672 -4.109876,4.109876 l 0,13.99107 c 0,0.724398 0.587274,1.311673 1.311662,1.311673 l 71.354455,0 c 0.724387,0 1.311663,-0.587275 1.311663,-1.311663 l 0,-13.99107 c 0,-2.266203 -1.843674,-4.109876 -4.109877,-4.109876 z m -46.257973,-43.547204 2.973102,0 0,5.771316 -2.973102,0 0,-5.771316 z m -27.807251,18.363279 -7.0829786,0 c -0.8197018,0 -1.4865512,-0.66685 -1.4865512,-1.486551 0,-0.819702 0.6668494,-1.486552 1.4865512,-1.486552 l 7.0829786,0 0,2.973103 z m 13.99107,6.90809 c 0,0.819701 -0.66685,1.486551 -1.486552,1.486551 -0.819701,0 -1.486551,-0.66685 -1.486551,-1.486551 l 0,-16.789283 c 0,-0.819702 0.66685,-1.486551 1.486551,-1.486551 0.819702,0 1.486552,0.666849 1.486552,1.486551 l 0,16.789283 z m 2.623325,-6.90809 0,-2.973103 2.975376,0 c -5.25e-4,0.02921 -0.0023,0.05807 -0.0023,0.08744 l 0,2.885658 -2.973102,0 z m 5.596428,22.298267 0,-25.183925 c 0,-1.591135 1.294523,-2.885658 2.885657,-2.885658 l 34.977675,0 c 3.360654,0 6.168487,-2.412411 6.78322,-5.596428 l 3.097973,0 0,23.959706 -3.050054,0 C 82.235177,45.924057 77.5375,41.638069 71.857651,41.638069 l -15.018539,0 c -1.178223,0 -2.301356,0.506651 -3.081183,1.390012 -0.779827,0.883361 -1.143246,2.060535 -0.997039,3.229664 l 1.711108,13.688688 c 0.195,1.560003 0.854855,2.962958 1.829157,4.077522 l -18.928168,0 c 0.518544,-0.839989 0.818653,-1.828458 0.818653,-2.885833 z m -15.390177,19.674942 0,-8.569531 58.849937,0 c 0.724387,0 1.311662,-0.587275 1.311662,-1.311662 0,-0.724388 -0.587275,-1.311663 -1.311662,-1.311663 l -58.849937,0 0,-1.486552 c 0,-0.819701 0.66685,-1.48655 1.486551,-1.48655 l 37.774489,0 0.0014,0 27.982139,0 c 0.819702,0 1.486552,0.666849 1.486552,1.48655 l 0,1.486552 -4.284765,0 c -0.724389,0 -1.311663,0.587275 -1.311663,1.311663 0,0.724387 0.587274,1.311662 1.311663,1.311662 l 4.284765,0 0,8.569531 -68.73113,0 z"
     id="path3"
     inkscape:connector-curvature="0"
     style="fill:#3ba643;fill-opacity:1" /><g
     id="g5"
     transform="translate(0,-411)" /><g
     id="g7"
     transform="translate(0,-411)" /><g
     id="g9"
     transform="translate(0,-411)" /><g
     id="g11"
     transform="translate(0,-411)" /><g
     id="g13"
     transform="translate(0,-411)" /><g
     id="g15"
     transform="translate(0,-411)" /><g
     id="g17"
     transform="translate(0,-411)" /><g
     id="g19"
     transform="translate(0,-411)" /><g
     id="g21"
     transform="translate(0,-411)" /><g
     id="g23"
     transform="translate(0,-411)" /><g
     id="g25"
     transform="translate(0,-411)" /><g
     id="g27"
     transform="translate(0,-411)" /><g
     id="g29"
     transform="translate(0,-411)" /><g
     id="g31"
     transform="translate(0,-411)" /><g
     id="g33"
     transform="translate(0,-411)" /></svg>