<?xml version="1.0" standalone="no"?>
<!DOCTYPE svg PUBLIC "-//W3C//DTD SVG 20010904//EN"
 "http://www.w3.org/TR/2001/REC-SVG-20010904/DTD/svg10.dtd">
<svg version="1.0" xmlns="http://www.w3.org/2000/svg"
 width="700.000000pt" height="700.000000pt" viewBox="0 0 700.000000 700.000000"
 preserveAspectRatio="xMidYMid meet">
<metadata>
Created by potrace 1.11, written by Peter Selinger 2001-2013
</metadata>
<g transform="translate(0.000000,700.000000) scale(0.100000,-0.100000)"
fill="#000000" stroke="none">
<path d="M3499 6916 c-2 -3 -30 -6 -62 -7 -172 -8 -317 -66 -629 -254 -282
-169 -587 -387 -838 -600 -52 -44 -97 -82 -100 -85 -3 -3 -43 -39 -90 -80
-244 -215 -587 -583 -808 -865 -276 -351 -604 -854 -663 -1015 -28 -77 -29
-226 -4 -355 2 -11 7 -42 10 -70 3 -27 8 -63 10 -80 12 -82 46 -355 60 -470 8
-71 17 -139 19 -150 2 -11 7 -49 11 -85 3 -36 8 -77 11 -91 2 -15 6 -47 9 -70
3 -24 8 -55 10 -69 2 -14 7 -54 11 -90 4 -36 8 -74 9 -85 2 -11 6 -45 9 -75 4
-30 9 -66 11 -80 2 -14 7 -47 10 -75 3 -27 7 -66 10 -85 3 -19 16 -123 30
-230 13 -107 27 -213 30 -235 3 -22 12 -96 20 -165 46 -372 48 -389 69 -446
32 -92 112 -183 203 -232 32 -17 112 -44 178 -62 66 -17 170 -44 230 -60 61
-16 182 -47 270 -70 187 -48 339 -88 520 -135 72 -19 252 -66 400 -105 464
-121 495 -129 710 -186 233 -62 352 -76 446 -54 30 7 174 43 321 81 146 39
275 72 285 74 10 2 54 14 98 26 44 11 87 22 95 24 8 2 76 19 150 39 201 53
501 131 905 236 601 156 616 160 675 191 136 72 217 200 235 369 4 36 8 67 10
70 1 3 6 36 10 73 3 37 8 76 10 85 1 9 6 44 9 77 4 33 9 71 11 85 10 67 20
150 30 240 4 36 9 72 10 81 2 9 6 40 9 70 4 30 11 86 16 124 5 39 12 95 15
125 3 30 8 66 10 80 6 33 13 93 20 155 3 28 8 61 10 75 3 14 7 48 10 75 2 28
7 67 10 88 7 53 12 91 24 182 5 44 13 103 16 130 11 87 14 109 20 160 4 28 8
61 10 75 2 14 9 66 15 115 15 125 20 166 25 195 2 14 7 57 11 95 3 39 8 72 9
75 7 12 19 160 18 217 -1 81 -41 199 -80 241 -7 7 -13 17 -13 21 0 8 -44 81
-160 268 -73 118 -231 347 -241 351 -5 2 -9 10 -9 17 0 7 -3 15 -8 17 -4 2
-32 37 -62 78 -63 86 -208 270 -224 285 -6 6 -33 37 -61 70 -111 134 -227 259
-394 425 -200 199 -237 233 -376 350 -55 47 -102 87 -105 90 -11 12 -238 188
-299 232 -288 205 -525 352 -786 487 -89 46 -233 86 -324 90 -30 1 -58 4 -61
6 -4 3 -9 3 -11 1z"/>
</g>
</svg>
