<?xml version="1.0" encoding="UTF-8" standalone="no"?>
<!-- Generator: Adobe Illustrator 21.0.2, SVG Export Plug-In . SVG Version: 6.00 Build 0)  -->

<svg
   xmlns:dc="http://purl.org/dc/elements/1.1/"
   xmlns:cc="http://creativecommons.org/ns#"
   xmlns:rdf="http://www.w3.org/1999/02/22-rdf-syntax-ns#"
   xmlns:svg="http://www.w3.org/2000/svg"
   xmlns="http://www.w3.org/2000/svg"
   xmlns:sodipodi="http://sodipodi.sourceforge.net/DTD/sodipodi-0.dtd"
   xmlns:inkscape="http://www.inkscape.org/namespaces/inkscape"
   version="1.1"
   x="0px"
   y="0px"
   viewBox="0 0 40.3 27.2"
   style="enable-background:new 0 0 40.3 27.2;"
   xml:space="preserve"
   id="svg2"
   inkscape:version="0.91 r13725"
   sodipodi:docname="3d-canvas.svg"><metadata
     id="metadata60"><rdf:RDF><cc:Work
         rdf:about=""><dc:format>image/svg+xml</dc:format><dc:type
           rdf:resource="http://purl.org/dc/dcmitype/StillImage" /></cc:Work></rdf:RDF></metadata><defs
     id="defs58" /><sodipodi:namedview
     pagecolor="#ffffff"
     bordercolor="#666666"
     borderopacity="1"
     objecttolerance="10"
     gridtolerance="10"
     guidetolerance="10"
     inkscape:pageopacity="0"
     inkscape:pageshadow="2"
     inkscape:window-width="1314"
     inkscape:window-height="812"
     id="namedview56"
     showgrid="false"
     inkscape:zoom="7.8411912"
     inkscape:cx="20.405063"
     inkscape:cy="12.38845"
     inkscape:window-x="0"
     inkscape:window-y="27"
     inkscape:window-maximized="0"
     inkscape:current-layer="svg2" /><style
     type="text/css"
     id="style4">
	.st0{display:none;}
	.st1{display:inline;fill:#C6DE9B;}
	.st2{display:inline;}
	.st3{fill:#91C042;}
	.st4{fill:none;}
	.st5{fill:#C4CC6E;}
	.st6{fill:#D6D4D2;}
	.st7{fill:none;stroke:#D6D4D2;stroke-width:0;stroke-linecap:round;stroke-linejoin:round;}
	.st8{fill:#9FC261;}
	.st9{enable-background:new    ;}
	.st10{clip-path:url(#SVGID_2_);}
	.st11{fill:#93C142;}
	.st12{fill:#7AAE2E;}
	.st13{fill:#47840C;}
	.st14{display:inline;fill:#93C142;}
	.st15{display:inline;opacity:0.4;}
	.st16{fill-rule:evenodd;clip-rule:evenodd;fill:#EDE2D2;}
	.st17{fill-rule:evenodd;clip-rule:evenodd;fill:#A58F69;}
	.st18{fill-rule:evenodd;clip-rule:evenodd;fill:#EC7F2C;}
	.st19{fill-rule:evenodd;clip-rule:evenodd;fill:#BC3E26;}
	.st20{fill-rule:evenodd;clip-rule:evenodd;fill:#F37937;}
	.st21{fill:#EC7F2C;}
	.st22{fill-rule:evenodd;clip-rule:evenodd;fill:#F58536;}
	.st23{fill:#EDE2D2;}
	.st24{fill:#A58F69;}
	.st25{clip-path:url(#SVGID_4_);}
	.st26{fill:#18969A;}
	.st27{fill:#D54728;}
	.st28{fill:#45B549;}
	.st29{fill:#EB7F2C;}
	.st30{fill:#FCCF22;}
	.st31{fill:#91C741;}
	.st32{fill:#ECE1D1;}
	.st33{fill:#BC3E26;}
	.st34{fill:#FFFFFF;}
	.st35{fill:#FDD023;}
	.st36{fill:url(#SVGID_5_);}
	.st37{fill:url(#SVGID_6_);}
	.st38{fill:url(#SVGID_7_);}
	.st39{fill:url(#SVGID_8_);}
	.st40{fill:url(#SVGID_9_);}
	.st41{fill:url(#SVGID_10_);}
	.st42{fill:url(#SVGID_11_);}
	.st43{fill:url(#SVGID_12_);}
	.st44{fill:url(#SVGID_13_);}
	.st45{fill:url(#SVGID_14_);}
	.st46{clip-path:url(#SVGID_16_);}
	.st47{clip-path:url(#SVGID_16_);fill:#EDE2D2;stroke:#18969A;stroke-width:1.508;stroke-miterlimit:10;}
	.st48{clip-path:url(#SVGID_16_);fill:#EDE2D2;stroke:#18969A;stroke-width:0.8003;stroke-miterlimit:10;}
	.st49{clip-path:url(#SVGID_16_);fill:#EDE2D2;stroke:#18969A;stroke-miterlimit:10;}
	.st50{clip-path:url(#SVGID_18_);}
	.st51{fill:#484C45;}
	.st52{fill:#C8BFB2;}
	.st53{fill:#898279;}
	.st54{fill:#C8BFB1;}
	.st55{fill:#B7AFA2;}
	.st56{fill:#5B9541;}
	.st57{fill:none;stroke:#5B9541;stroke-width:0.1062;stroke-linecap:round;stroke-linejoin:round;}
	.st58{fill:#29551E;}
	.st59{fill:#B5221C;}
	.st60{fill:#DD2B26;}
	.st61{fill:#4C0000;}
	.st62{fill:#B3AD7C;}
	.st63{fill:#2A0F0F;}
	.st64{fill-rule:evenodd;clip-rule:evenodd;fill:#820F06;}
	.st65{fill:#434244;}
	.st66{fill:#141415;}
	.st67{fill:#8C8B8B;}
	.st68{fill:#AEAEAF;}
	.st69{fill:#00406D;}
	.st70{fill:#0075A7;}
	.st71{fill:none;stroke:#00406D;stroke-width:1.1131;stroke-linecap:round;stroke-linejoin:round;}
	.st72{opacity:0.5;}
	.st73{clip-path:url(#SVGID_22_);fill:#00628A;}
	.st74{fill:#F8C611;}
	.st75{fill:#00628D;}
	.st76{fill:none;stroke:#7D000B;stroke-width:0.2051;}
	.st77{fill:none;stroke:#E4E416;stroke-width:0.2051;}
	.st78{fill:#582906;}
	.st79{fill-rule:evenodd;clip-rule:evenodd;fill:#81431F;}
	.st80{fill:#81431F;}
	.st81{fill-rule:evenodd;clip-rule:evenodd;fill:#FFFFFF;}
	.st82{fill-rule:evenodd;clip-rule:evenodd;fill:#5B9541;}
	.st83{fill:none;stroke:#5B9541;stroke-width:8.209600e-02;stroke-linecap:round;stroke-linejoin:round;}
	.st84{fill:#573A3B;}
	.st85{fill:#E6BD11;}
	.st86{fill:#FACC10;}
	.st87{opacity:0.7;}
	.st88{clip-path:url(#SVGID_32_);fill:#878F89;}
	.st89{fill:#A45C2C;}
	.st90{fill:#42292A;}
	.st91{fill:#7ACDD5;}
	.st92{opacity:0.9;}
	.st93{clip-path:url(#SVGID_34_);fill:#FFFDF6;}
	.st94{clip-path:url(#SVGID_36_);fill:#A7A78A;}
	.st95{fill:#A2A29A;}
	.st96{fill:#BBBAB2;}
	.st97{fill:#A9A89C;}
	.st98{fill:#6B6362;}
	.st99{fill:#E74025;}
	.st100{fill:#BE341C;}
	.st101{fill:#410A00;}
	.st102{fill:#6DBD45;}
	.st103{fill:#423D30;}
	.st104{fill:#5E5747;}
	.st105{fill:#A9231E;}
	.st106{fill:#5D2C0A;}
	.st107{fill:#861710;}
	.st108{fill:#9C4B71;}
	.st109{fill:#DC5B80;}
	.st110{fill:#CAC5A3;}
	.st111{fill:#6B4315;}
	.st112{fill:#8A5824;}
	.st113{fill:#08B3D5;}
	.st114{fill:#C5C7CE;}
	.st115{fill:#AAADB3;}
	.st116{fill:#CACECC;}
	.st117{fill-rule:evenodd;clip-rule:evenodd;fill:#E74025;}
	.st118{fill:#E5E6E5;}
	.st119{fill:#DFF0F1;stroke:#18969A;stroke-miterlimit:10;}
	.st120{fill:#EBEDCA;}
	.st121{fill:#90160E;}
</style><g
     id="Layer_9"><g
       id="g33"><g
         id="g35"><path
           class="st23"
           d="M35.3,13.5c-2.2-2.3-6.1-4.1-10.7-4.8l7.9,9.8c0,0-2.4-0.2-3.3,0.1c-6.7,1.9-6.8,4.1-6.8,4.1     s-0.5-0.9-0.7-1.1c-4-4-16.2-7.1-16.2-7.1v-0.7l17-5.3c-0.9-0.1-1.8-0.1-2.8-0.1c-9.6,0-17.4,4.2-17.4,9.4     c0,5.2,7.8,9.4,17.4,9.4c8,0,14.8-3,16.8-7c0.2-0.5,0.4-0.9,0.5-1.4c0.1-0.3,0.1-0.7,0.1-1C37.2,16.2,36.5,14.8,35.3,13.5z"
           id="path37" /><path
           class="st24"
           d="M24.6,8.7L24,8l-1.4,0.4c0.2,0,0.4,0,0.5,0C23.7,8.6,24.1,8.6,24.6,8.7z"
           id="path39" /><path
           class="st24"
           d="M5.6,14.5c0,0,12.2,3.1,16.2,7.1c0.2,0.2,0.7,1.1,0.7,1.1s0-2.2,6.8-4.1c0.9-0.2,3.3-0.1,3.3-0.1l-7.9-9.8     c-0.5-0.1-0.9-0.1-1.4-0.2c-0.2,0-0.4,0-0.5,0l-17,5.3V14.5z"
           id="path41" /></g><path
         class="st118"
         d="M0,3.4c0,0,13.4-3.1,19.4-3.2c0,0,8.2-0.9,20.4,1.5c0,0-15.1,10-17.3,21.1C22.5,22.7,17.4,7.8,0,3.4z"
         id="path43" /><line
         class="st119"
         x1="39.8"
         y1="1.7"
         x2="31.9"
         y2="18.7"
         id="line45" /><line
         class="st119"
         x1="1"
         y1="3.2"
         x2="6.2"
         y2="14.4"
         id="line47" /></g></g></svg>