<?xml version="1.0" encoding="UTF-8" standalone="no"?>
<!-- Generator: Adobe Illustrator 21.0.2, SVG Export Plug-In . SVG Version: 6.00 Build 0)  -->

<svg
   xmlns:dc="http://purl.org/dc/elements/1.1/"
   xmlns:cc="http://creativecommons.org/ns#"
   xmlns:rdf="http://www.w3.org/1999/02/22-rdf-syntax-ns#"
   xmlns:svg="http://www.w3.org/2000/svg"
   xmlns="http://www.w3.org/2000/svg"
   xmlns:xlink="http://www.w3.org/1999/xlink"
   xmlns:sodipodi="http://sodipodi.sourceforge.net/DTD/sodipodi-0.dtd"
   xmlns:inkscape="http://www.inkscape.org/namespaces/inkscape"
   version="1.1"
   x="0px"
   y="0px"
   viewBox="0 0 36.2 32.2"
   style="enable-background:new 0 0 36.2 32.2;"
   xml:space="preserve"
   id="svg2"
   inkscape:version="0.91 r13725"
   sodipodi:docname="3d-caravan.svg"><metadata
     id="metadata132"><rdf:RDF><cc:Work
         rdf:about=""><dc:format>image/svg+xml</dc:format><dc:type
           rdf:resource="http://purl.org/dc/dcmitype/StillImage" /></cc:Work></rdf:RDF></metadata><defs
     id="defs130" /><sodipodi:namedview
     pagecolor="#ffffff"
     bordercolor="#666666"
     borderopacity="1"
     objecttolerance="10"
     gridtolerance="10"
     guidetolerance="10"
     inkscape:pageopacity="0"
     inkscape:pageshadow="2"
     inkscape:window-width="1458"
     inkscape:window-height="796"
     id="namedview128"
     showgrid="false"
     inkscape:zoom="7.3291924"
     inkscape:cx="18.1"
     inkscape:cy="14.803814"
     inkscape:window-x="0"
     inkscape:window-y="27"
     inkscape:window-maximized="0"
     inkscape:current-layer="svg2" /><style
     type="text/css"
     id="style4">
	.st0{display:none;}
	.st1{display:inline;fill:#C6DE9B;}
	.st2{display:inline;}
	.st3{fill:#91C042;}
	.st4{fill:none;}
	.st5{fill:#C4CC6E;}
	.st6{fill:#D6D4D2;}
	.st7{fill:none;stroke:#D6D4D2;stroke-width:0;stroke-linecap:round;stroke-linejoin:round;}
	.st8{fill:#9FC261;}
	.st9{enable-background:new    ;}
	.st10{clip-path:url(#SVGID_2_);}
	.st11{fill:#93C142;}
	.st12{fill:#7AAE2E;}
	.st13{fill:#47840C;}
	.st14{display:inline;fill:#93C142;}
	.st15{display:inline;opacity:0.4;}
	.st16{fill-rule:evenodd;clip-rule:evenodd;fill:#EDE2D2;}
	.st17{fill-rule:evenodd;clip-rule:evenodd;fill:#A58F69;}
	.st18{fill-rule:evenodd;clip-rule:evenodd;fill:#EC7F2C;}
	.st19{fill-rule:evenodd;clip-rule:evenodd;fill:#BC3E26;}
	.st20{fill-rule:evenodd;clip-rule:evenodd;fill:#F37937;}
	.st21{fill:#EC7F2C;}
	.st22{fill-rule:evenodd;clip-rule:evenodd;fill:#F58536;}
	.st23{fill:#EDE2D2;}
	.st24{fill:#A58F69;}
	.st25{clip-path:url(#SVGID_4_);}
	.st26{fill:#18969A;}
	.st27{fill:#D54728;}
	.st28{fill:#45B549;}
	.st29{fill:#EB7F2C;}
	.st30{fill:#FCCF22;}
	.st31{fill:#91C741;}
	.st32{fill:#ECE1D1;}
	.st33{fill:#BC3E26;}
	.st34{fill:#FFFFFF;}
	.st35{fill:#FDD023;}
	.st36{fill:url(#SVGID_5_);}
	.st37{fill:url(#SVGID_6_);}
	.st38{fill:url(#SVGID_7_);}
	.st39{fill:url(#SVGID_8_);}
	.st40{fill:url(#SVGID_9_);}
	.st41{fill:url(#SVGID_10_);}
	.st42{fill:url(#SVGID_11_);}
	.st43{fill:url(#SVGID_12_);}
	.st44{fill:url(#SVGID_13_);}
	.st45{fill:url(#SVGID_14_);}
	.st46{clip-path:url(#SVGID_16_);}
	.st47{clip-path:url(#SVGID_16_);fill:#EDE2D2;stroke:#18969A;stroke-width:1.508;stroke-miterlimit:10;}
	.st48{clip-path:url(#SVGID_16_);fill:#EDE2D2;stroke:#18969A;stroke-width:0.8003;stroke-miterlimit:10;}
	.st49{clip-path:url(#SVGID_16_);fill:#EDE2D2;stroke:#18969A;stroke-miterlimit:10;}
	.st50{clip-path:url(#SVGID_18_);}
	.st51{fill:#484C45;}
	.st52{fill:#C8BFB2;}
	.st53{fill:#898279;}
	.st54{fill:#C8BFB1;}
	.st55{fill:#B7AFA2;}
	.st56{fill:#5B9541;}
	.st57{fill:none;stroke:#5B9541;stroke-width:0.1062;stroke-linecap:round;stroke-linejoin:round;}
	.st58{fill:#29551E;}
	.st59{fill:#B5221C;}
	.st60{fill:#DD2B26;}
	.st61{fill:#4C0000;}
	.st62{fill:#B3AD7C;}
	.st63{fill:#2A0F0F;}
	.st64{fill-rule:evenodd;clip-rule:evenodd;fill:#820F06;}
	.st65{fill:#434244;}
	.st66{fill:#141415;}
	.st67{fill:#8C8B8B;}
	.st68{fill:#AEAEAF;}
	.st69{fill:#00406D;}
	.st70{fill:#0075A7;}
	.st71{fill:none;stroke:#00406D;stroke-width:1.1131;stroke-linecap:round;stroke-linejoin:round;}
	.st72{opacity:0.5;}
	.st73{clip-path:url(#SVGID_22_);fill:#00628A;}
	.st74{fill:#F8C611;}
	.st75{fill:#00628D;}
	.st76{fill:none;stroke:#7D000B;stroke-width:0.2051;}
	.st77{fill:none;stroke:#E4E416;stroke-width:0.2051;}
	.st78{fill:#582906;}
	.st79{fill-rule:evenodd;clip-rule:evenodd;fill:#81431F;}
	.st80{fill:#81431F;}
	.st81{fill-rule:evenodd;clip-rule:evenodd;fill:#FFFFFF;}
	.st82{fill-rule:evenodd;clip-rule:evenodd;fill:#5B9541;}
	.st83{fill:none;stroke:#5B9541;stroke-width:8.209600e-02;stroke-linecap:round;stroke-linejoin:round;}
	.st84{fill:#573A3B;}
	.st85{fill:#E6BD11;}
	.st86{fill:#FACC10;}
	.st87{opacity:0.7;}
	.st88{clip-path:url(#SVGID_32_);fill:#878F89;}
	.st89{fill:#A45C2C;}
	.st90{fill:#42292A;}
	.st91{fill:#7ACDD5;}
	.st92{opacity:0.9;}
	.st93{clip-path:url(#SVGID_34_);fill:#FFFDF6;}
	.st94{clip-path:url(#SVGID_36_);fill:#A7A78A;}
	.st95{fill:#A2A29A;}
	.st96{fill:#BBBAB2;}
	.st97{fill:#A9A89C;}
	.st98{fill:#6B6362;}
	.st99{fill:#E74025;}
	.st100{fill:#BE341C;}
	.st101{fill:#410A00;}
	.st102{fill:#6DBD45;}
	.st103{fill:#423D30;}
	.st104{fill:#5E5747;}
	.st105{fill:#A9231E;}
	.st106{fill:#5D2C0A;}
	.st107{fill:#861710;}
	.st108{fill:#9C4B71;}
	.st109{fill:#DC5B80;}
	.st110{fill:#CAC5A3;}
	.st111{fill:#6B4315;}
	.st112{fill:#8A5824;}
	.st113{fill:#08B3D5;}
	.st114{fill:#C5C7CE;}
	.st115{fill:#AAADB3;}
	.st116{fill:#CACECC;}
	.st117{fill-rule:evenodd;clip-rule:evenodd;fill:#E74025;}
	.st118{fill:#E5E6E5;}
	.st119{fill:#DFF0F1;stroke:#18969A;stroke-miterlimit:10;}
	.st120{fill:#EBEDCA;}
	.st121{fill:#90160E;}
</style><g
     id="Layer_11"><g
       id="g27"><g
         id="g29"><g
           id="g31"><path
             class="st23"
             d="M36.1,23.8c0.1-0.3,0.1-0.7,0.1-1c0-1.5-0.7-3-1.9-4.3l-2.3,3.3L36.1,23.8z"
             id="path33" /><path
             class="st23"
             d="M22.3,27.9l-3.5-1l-3.7-2.6h-3.8l-1-3.8H3.2l18.9-7c-1.1-0.1-2.2-0.2-3.3-0.2c-9.6,0-17.4,4.2-17.4,9.4      c0,5.2,7.8,9.4,17.4,9.4c8,0,14.8-3,16.8-7l-5.4-2.1L22.3,27.9z"
             id="path35" /><path
             class="st24"
             d="M31.9,21.8l2.3-3.3c-2.4-2.6-6.8-4.4-12.2-5l-18.9,7h7.2l1,3.8h3.8l3.7,2.6l3.5,1l7.8-4.8l5.4,2.1      c0.2-0.5,0.4-0.9,0.5-1.4L31.9,21.8z"
             id="path37" /></g><g
           id="g39"><g
             id="g41"><g
               id="g43"><g
                 class="st9"
                 id="g45"><defs
                   id="defs47"><polygon
                     id="SVGID_3_"
                     class="st9"
                     points="20.3,23 20.3,18.5 29.8,24.1 29.8,28.5         " /></defs><clipPath
                   id="SVGID_2_"><use
                     xlink:href="#SVGID_3_"
                     style="overflow:visible;"
                     id="use51" /></clipPath><g
                   class="st10"
                   id="g53"
                   clip-path="url(#SVGID_2_)"><g
                     id="g55"><g
                       id="g57"><g
                         id="g59"><path
                           class="st26"
                           d="M28,23l-0.2,0l-0.3,0.1l-0.1,0.1c0,0.1,0.1,0.2,0.1,0.2c0,0,0,0,0,0l0.2,0.1l0.2,0.2l0.7,1.4l0,0.1             l0,0.1l-0.5,0.2c-0.1,0-0.1,0.1-0.1,0.2c0,0,0,0,0,0l0.6,0.3v0l0,0l0.4-0.2c0.1-0.1,0.2-0.2,0.2-0.4             c0-0.2-0.1-0.3-0.1-0.5l-0.9-1.8C28.1,23.1,28,23,28,23"
                           id="path61" /><polyline
                           class="st26"
                           points="23.9,23.4 20.7,21.7 20.3,23 23.9,24.9 23.9,24.5 23.9,24.5 23.9,24.5 23.9,24.4              23.8,23.5 23.9,23.5 23.9,23.5 23.9,23.4            "
                           id="polyline63" /><path
                           class="st26"
                           d="M24.7,24.9L24.7,24.9L24.7,24.9L24.7,24.9L24.7,24.9 M25.1,25.1L25.1,25.1L25.1,25.1L25.1,25.1              M25.5,25.3L25.5,25.3L25.5,25.3L25.5,25.3L25.5,25.3 M23.9,23.5L23.9,23.5l0,0.9l0.1,0l0-0.1l0-0.6L23.9,23.5L23.9,23.5              M24.3,23.7L24.3,23.7L24.3,23.7L24.3,23.7 M24.7,24L24.7,24L24.7,24L24.7,24 M25.5,24.4L25.5,24.4L25.5,24.4L25.5,24.4              M29.2,26.4L29.2,26.4L29,26.3l-0.4-0.2l-0.1,0l0,0v0L28,25.7l-0.1-0.1l-2-1.1l0,0l0,0.1l0,0.6l0,0.1h0l0,0v0.1l2.9,1.6             l0,0l0.5,0.3v0l0.4,0.2l0.1,0l-0.1-0.1l0,0l0-0.3c0-0.1,0-0.2-0.1-0.3l0,0l-0.1-0.1l0,0l-0.1-0.2l0,0L29.2,26.4"
                           id="path65" /><polyline
                           class="st26"
                           points="29.4,27.4 28.8,27.2 28.8,27.2 28.9,27.3 28.8,27.2 28.7,27.3 28.7,27.3 28.9,27.6              29,27.7 29.2,27.7 29.3,27.8 29.5,27.7 29.5,27.7 29.5,27.6 29.4,27.6 29.4,27.5 29.4,27.4            "
                           id="polyline67" /><polyline
                           class="st26"
                           points="25.7,24.2 25.7,24.2 25.5,24.4 25.5,24.4 25.5,24.4 25.5,24.4 25.5,24.4 25.3,24 25.3,24              25.3,24 25.1,24.2 25.1,24.2 25.1,24.2 25.1,24.2 24.9,23.8 24.9,23.7 24.9,23.7 24.7,24 24.7,24 24.7,24 24.7,24              24.7,23.9 24.5,23.6 24.5,23.5 24.5,23.5 24.3,23.7 24.3,23.7 24.3,23.7 24.3,23.7 24.3,23.7 24.1,23.3 24.1,23.3              24.1,23.3 24.1,23.3 23.9,23.5 23.9,23.5 23.9,23.5 23.9,23.5 23.9,23.7 23.9,24.3 23.9,24.5 23.9,24.5 23.9,24.5              23.9,24.5 24.1,24.9 24.1,24.9 24.2,24.9 24.3,24.7 24.3,24.7 24.3,24.7 24.5,25.1 24.5,25.1 24.5,25.1 24.7,24.9              24.7,24.9 24.7,24.9 24.7,24.9 24.7,24.9 24.7,24.9 24.9,25.3 24.9,25.3 24.9,25.3 25.1,25.1 25.1,25.1 25.1,25.1              25.1,25.1 25.1,25.1 25.3,25.5 25.3,25.6 25.3,25.6 25.5,25.3 25.5,25.3 25.5,25.3 25.5,25.3 25.5,25.3 25.5,25.3              25.7,25.7 25.7,25.8 25.7,25.8 25.7,25.8 25.9,25.6 25.9,25.5 25.9,25.5 25.9,25.4 25.9,24.8 25.9,24.6 25.9,24.6              25.9,24.6 25.7,24.2 25.7,24.2            "
                           id="polyline69" /></g></g></g></g></g></g></g><g
             id="g71"><path
               class="st4"
               d="M11.3,24.3c0,0,0.1-0.1,0.1-0.1C11.4,24.2,11.4,24.3,11.3,24.3z"
               id="path73" /><path
               class="st4"
               d="M11.5,24c0,0,0-0.1,0.1-0.2C11.5,23.9,11.5,24,11.5,24z"
               id="path75" /><path
               class="st4"
               d="M1.8,9.4C1.8,9.4,1.8,9.4,1.8,9.4C1.8,9.4,1.8,9.4,1.8,9.4L1.8,9.4C1.8,9.4,1.8,9.4,1.8,9.4z"
               id="path77" /><path
               class="st4"
               d="M2.1,5.9L2.1,5.9c0,0,0,0,0.1-0.1C2.1,5.9,2.1,5.9,2.1,5.9z"
               id="path79" /><path
               class="st4"
               d="M11.6,23.3c0,0.1,0,0.3,0,0.4C11.6,23.6,11.6,23.5,11.6,23.3z"
               id="path81" /><path
               class="st26"
               d="M19.3,24.9c0,0.1,0,0.2,0,0.2c-0.2,1-0.5,2-0.8,2.7l9.9-5.8c0.3-0.7,0.6-1.6,0.7-2.5l-9.5,5.5L19.3,24.9z       "
               id="path83" /><polygon
               class="st27"
               points="4.1,19.8 4.1,19.8 4.1,19.8 3.2,20.5 3.4,20.6 4.4,20      "
               id="polygon85" /><path
               class="st28"
               d="M8.1,21.1c0,0-0.1,0-0.1,0.1L7.5,22l0.6-0.4c0-0.1,0-0.3,0-0.4C8.1,21.2,8.1,21.2,8.1,21.1z"
               id="path87" /><path
               class="st29"
               d="M11.6,23.2c0-0.1-0.1-0.1-0.2-0.2l-0.8-0.5c0,0.1,0,0.1,0,0.2c0,0.5-0.4,0.7-0.8,0.5       C9.4,23,9,22.3,9,21.8c0-0.1,0-0.1,0-0.2l-0.8-0.5c-0.1,0-0.1,0-0.2,0c0,0,0,0.1,0,0.1c0,0.1,0,0.3,0,0.4       c0.1,1,0.9,2.2,1.7,2.7c0.6,0.3,1.1,0.3,1.4,0c0,0-0.1,0.1-0.1,0.1l0.8-0.5l-0.2-0.6C11.7,23.3,11.7,23.3,11.6,23.2z        M11.5,23.9c0,0.1,0,0.1-0.1,0.2C11.5,24,11.5,23.9,11.5,23.9z M11.3,24.3c0,0,0.1-0.1,0.1-0.1C11.4,24.2,11.4,24.3,11.3,24.3z        M11.6,23.7c0-0.1,0-0.3,0-0.4C11.6,23.5,11.6,23.6,11.6,23.7z"
               id="path89" /><path
               class="st29"
               d="M29.6,18.7l0-0.1l-0.4-0.2l-9.9,5.8l-19-10.9c0-0.1,0-0.3,0-0.4L0,13l0,0.1c0,0.1,0,0.2,0,0.3       c0,0.1,0,0.3,0,0.4L0.4,14l18.9,10.9l0.4,0.2l9.5-5.5l0.4-0.3l0-0.1c0-0.1,0-0.2,0-0.3C29.6,18.9,29.6,18.8,29.6,18.7z"
               id="path91" /><path
               class="st28"
               d="M2,9.3L2,9.3C1.9,9.3,1.9,9.3,2,9.3C1.9,9.3,1.9,9.3,2,9.3C1.9,9.3,1.9,9.3,2,9.3z"
               id="path93" /><path
               class="st28"
               d="M1.8,9.4c0,0,0,0.1,0,0.2C1.7,9.5,1.7,9.4,1.8,9.4L1.8,9.4z"
               id="path95" /><path
               class="st28"
               d="M1.8,9.3L1.8,9.3C1.8,9.3,1.8,9.3,1.8,9.3C1.8,9.4,1.8,9.4,1.8,9.3C1.8,9.3,1.8,9.3,1.8,9.3z"
               id="path97" /><path
               class="st27"
               d="M9.8,23.2c0.5,0.3,0.8,0.1,0.8-0.5c0-0.1,0-0.1,0-0.2L9,21.6c0,0.1,0,0.1,0,0.2C9,22.3,9.4,23,9.8,23.2z"
               id="path99" /><path
               class="st27"
               d="M2.1,9.9l0,3c0,0.2,0.2,0.5,0.3,0.6l5.4,3.1c0.2,0.1,0.3,0,0.3-0.2l0-3L2.1,9.9z"
               id="path101" /><path
               class="st21"
               d="M2.3,9.7l0,3c0,0.2,0.2,0.5,0.3,0.6L8,16.4c0.2,0.1,0.3,0,0.3-0.2l0-3L2.3,9.7z"
               id="path103" /><path
               class="st28"
               d="M19.3,24.2c-0.1-2.2-0.4-4.5-0.8-6.6c0-0.1,0-0.1,0-0.2L1.3,7.4c0,0.1,0,0.1,0,0.2       c-0.4,1.5-0.7,3.3-0.8,5.2c0,0.1,0,0.3,0,0.4L19.3,24.2z M1.7,9.6c0-0.1,0-0.1,0-0.2c0,0,0,0,0,0c0,0,0,0,0.1-0.1       c0,0,0,0,0.1,0c0,0,0,0,0,0c0,0,0.1,0,0.1,0.1l6,3.5c0,0,0.1,0.1,0.1,0.1c0,0,0,0,0,0c0,0,0.1,0.1,0.1,0.1c0,0,0,0,0,0       c0,0.1,0.1,0.1,0.1,0.2l0,0c0,0.1,0,0.1,0,0.2l0,0.2l-0.3-0.2l0,3c0,0.2-0.2,0.3-0.3,0.2l-5.4-3.1c-0.2-0.1-0.3-0.4-0.3-0.6       l0-3L1.7,9.7L1.7,9.6z"
               id="path105" /><path
               class="st30"
               d="M8.1,13.4l0.3,0.2l0-0.2c0-0.1,0-0.1,0-0.2l0,0c0-0.1,0-0.1-0.1-0.2c0,0,0,0,0,0c0,0-0.1-0.1-0.1-0.1       c0,0,0,0,0,0c0,0-0.1-0.1-0.1-0.1l-6-3.5C2.1,9.3,2,9.3,2,9.3l0,0c0,0,0,0-0.1,0c0,0,0,0,0,0c0,0-0.1,0-0.1,0l0,0       c0,0,0,0-0.1,0.1c0,0,0,0,0,0c0,0,0,0.1,0,0.2l0,0.2l0.3,0.2L8.1,13.4z"
               id="path107" /><path
               class="st28"
               d="M19.3,24.9L0.4,14c0,0.1,0,0.2,0,0.3c0.2,1.2,0.5,2.5,0.8,3.6l2.9,1.9l0,0L4.4,20l3,2L8,21.2       c0,0,0.1-0.1,0.1-0.1c0,0,0.1,0,0.2,0L9,21.6l1.6,0.9l0.8,0.5c0.1,0,0.1,0.1,0.2,0.2c0,0.1,0.1,0.1,0.1,0.2l0.2,0.6l0.3,0.8       l6.3,3.1c0.3-0.8,0.6-1.8,0.8-2.7C19.3,25.1,19.3,25,19.3,24.9z M11.1,22l-2.6-1.5c-1-0.6-2.7-1.8-2.8-1.8v-0.1l1,0.5l6.3,3.7       l1,0.5v0.1C13.9,23.4,12.1,22.5,11.1,22z"
               id="path109" /><path
               class="st31"
               d="M13,22.8l-6.3-3.7l-1-0.5v0.1c0.1,0.1,1.8,1.2,2.8,1.8l2.6,1.5c1,0.6,2.7,1.4,2.8,1.5v-0.1L13,22.8z"
               id="path111" /><path
               class="st26"
               d="M18.5,17.3c0,0.1,0,0.1,0,0.2c0.4,2.1,0.7,4.4,0.8,6.6l9.9-5.8c-0.1-2.2-0.4-4.5-0.8-6.6       c0-0.1,0-0.1,0-0.2L28,11.3l-9.5,5.5L1.7,7.2L1.3,7.4L18.5,17.3z"
               id="path113" /><path
               class="st32"
               d="M18.5,16.9l9.5-5.5l0.4-0.2c0-0.1-0.1-0.3-0.1-0.4c0-0.1-0.1-0.3-0.1-0.4l0-0.1C28.1,10.1,28,10,28,9.8       l0-0.1c-0.1-0.1-0.1-0.2-0.2-0.4l0-0.1c-0.1-0.1-0.1-0.2-0.2-0.3l0-0.1c-0.1-0.1-0.1-0.2-0.2-0.3l0-0.1       c-0.1-0.1-0.2-0.2-0.3-0.4c-0.1-0.1-0.2-0.2-0.3-0.3c-1.7-1.7-4.2-3.6-6.8-5.1C17.2,1.3,14.7,0.3,13,0c-0.1,0-0.2,0-0.3,0       c-0.1,0-0.2,0-0.3,0l0,0c-0.1,0-0.2,0-0.2,0.1l0,0c0,0-0.1,0-0.1,0.1L2,6c0,0,0,0,0,0L1.9,6c-0.1,0-0.1,0.1-0.2,0.1l0,0       C1.7,6.2,1.6,6.3,1.6,6.4l0,0c0,0.1-0.1,0.1-0.2,0.3c0,0.1-0.1,0.2-0.1,0.3l0.4,0.2L18.5,16.9z M2.1,5.9c0,0,0.1,0,0.1-0.1       C2.1,5.9,2,6,2.1,5.9L2.1,5.9z"
               id="path115" /></g></g></g><path
         class="st26"
         d="M25.4,25.9l0-1.1l-0.4,0l0,1.1l0,0l0,0.1l0,0c0,0,0,0,0,0l-0.2,0c-0.1-0.3-0.3-0.5-0.6-0.5    c-0.4,0-0.6,0.3-0.6,0.6c0,0.4,0.3,0.6,0.6,0.6c0.3,0,0.6-0.2,0.6-0.5l0.2,0c0,0,0,0,0,0v0l0.3,0L25.4,25.9L25.4,25.9z"
         id="path117" /></g></g></svg>