<?xml version="1.0" encoding="UTF-8" standalone="no"?>
<!-- Generator: Adobe Illustrator 21.0.2, SVG Export Plug-In . SVG Version: 6.00 Build 0)  -->

<svg
   xmlns:dc="http://purl.org/dc/elements/1.1/"
   xmlns:cc="http://creativecommons.org/ns#"
   xmlns:rdf="http://www.w3.org/1999/02/22-rdf-syntax-ns#"
   xmlns:svg="http://www.w3.org/2000/svg"
   xmlns="http://www.w3.org/2000/svg"
   xmlns:sodipodi="http://sodipodi.sourceforge.net/DTD/sodipodi-0.dtd"
   xmlns:inkscape="http://www.inkscape.org/namespaces/inkscape"
   version="1.1"
   x="0px"
   y="0px"
   viewBox="0 0 38.1 35.8"
   style="enable-background:new 0 0 38.1 35.8;"
   xml:space="preserve"
   id="svg2"
   inkscape:version="0.91 r13725"
   sodipodi:docname="3d-campingcar.svg"><metadata
     id="metadata350"><rdf:RDF><cc:Work
         rdf:about=""><dc:format>image/svg+xml</dc:format><dc:type
           rdf:resource="http://purl.org/dc/dcmitype/StillImage" /></cc:Work></rdf:RDF></metadata><defs
     id="defs348" /><sodipodi:namedview
     pagecolor="#ffffff"
     bordercolor="#666666"
     borderopacity="1"
     objecttolerance="10"
     gridtolerance="10"
     guidetolerance="10"
     inkscape:pageopacity="0"
     inkscape:pageshadow="2"
     inkscape:window-width="1276"
     inkscape:window-height="784"
     id="namedview346"
     showgrid="false"
     inkscape:zoom="6.5921789"
     inkscape:cx="19.049999"
     inkscape:cy="16.458898"
     inkscape:window-x="0"
     inkscape:window-y="27"
     inkscape:window-maximized="0"
     inkscape:current-layer="svg2" /><style
     type="text/css"
     id="style4">
	.st0{display:none;}
	.st1{display:inline;fill:#C6DE9B;}
	.st2{display:inline;}
	.st3{fill:#91C042;}
	.st4{fill:none;}
	.st5{fill:#C4CC6E;}
	.st6{fill:#D6D4D2;}
	.st7{fill:none;stroke:#D6D4D2;stroke-width:0;stroke-linecap:round;stroke-linejoin:round;}
	.st8{fill:#9FC261;}
	.st9{enable-background:new    ;}
	.st10{clip-path:url(#SVGID_2_);}
	.st11{fill:#93C142;}
	.st12{fill:#7AAE2E;}
	.st13{fill:#47840C;}
	.st14{display:inline;fill:#93C142;}
	.st15{display:inline;opacity:0.4;}
	.st16{fill-rule:evenodd;clip-rule:evenodd;fill:#EDE2D2;}
	.st17{fill-rule:evenodd;clip-rule:evenodd;fill:#A58F69;}
	.st18{fill-rule:evenodd;clip-rule:evenodd;fill:#EC7F2C;}
	.st19{fill-rule:evenodd;clip-rule:evenodd;fill:#BC3E26;}
	.st20{fill-rule:evenodd;clip-rule:evenodd;fill:#F37937;}
	.st21{fill:#EC7F2C;}
	.st22{fill-rule:evenodd;clip-rule:evenodd;fill:#F58536;}
	.st23{fill:#EDE2D2;}
	.st24{fill:#A58F69;}
	.st25{clip-path:url(#SVGID_4_);}
	.st26{fill:#18969A;}
	.st27{fill:#D54728;}
	.st28{fill:#45B549;}
	.st29{fill:#EB7F2C;}
	.st30{fill:#FCCF22;}
	.st31{fill:#91C741;}
	.st32{fill:#ECE1D1;}
	.st33{fill:#BC3E26;}
	.st34{fill:#FFFFFF;}
	.st35{fill:#FDD023;}
	.st36{fill:url(#SVGID_5_);}
	.st37{fill:url(#SVGID_6_);}
	.st38{fill:url(#SVGID_7_);}
	.st39{fill:url(#SVGID_8_);}
	.st40{fill:url(#SVGID_9_);}
	.st41{fill:url(#SVGID_10_);}
	.st42{fill:url(#SVGID_11_);}
	.st43{fill:url(#SVGID_12_);}
	.st44{fill:url(#SVGID_13_);}
	.st45{fill:url(#SVGID_14_);}
	.st46{clip-path:url(#SVGID_16_);}
	.st47{clip-path:url(#SVGID_16_);fill:#EDE2D2;stroke:#18969A;stroke-width:1.508;stroke-miterlimit:10;}
	.st48{clip-path:url(#SVGID_16_);fill:#EDE2D2;stroke:#18969A;stroke-width:0.8003;stroke-miterlimit:10;}
	.st49{clip-path:url(#SVGID_16_);fill:#EDE2D2;stroke:#18969A;stroke-miterlimit:10;}
	.st50{clip-path:url(#SVGID_18_);}
	.st51{fill:#484C45;}
	.st52{fill:#C8BFB2;}
	.st53{fill:#898279;}
	.st54{fill:#C8BFB1;}
	.st55{fill:#B7AFA2;}
	.st56{fill:#5B9541;}
	.st57{fill:none;stroke:#5B9541;stroke-width:0.1062;stroke-linecap:round;stroke-linejoin:round;}
	.st58{fill:#29551E;}
	.st59{fill:#B5221C;}
	.st60{fill:#DD2B26;}
	.st61{fill:#4C0000;}
	.st62{fill:#B3AD7C;}
	.st63{fill:#2A0F0F;}
	.st64{fill-rule:evenodd;clip-rule:evenodd;fill:#820F06;}
	.st65{fill:#434244;}
	.st66{fill:#141415;}
	.st67{fill:#8C8B8B;}
	.st68{fill:#AEAEAF;}
	.st69{fill:#00406D;}
	.st70{fill:#0075A7;}
	.st71{fill:none;stroke:#00406D;stroke-width:1.1131;stroke-linecap:round;stroke-linejoin:round;}
	.st72{opacity:0.5;}
	.st73{clip-path:url(#SVGID_22_);fill:#00628A;}
	.st74{fill:#F8C611;}
	.st75{fill:#00628D;}
	.st76{fill:none;stroke:#7D000B;stroke-width:0.2051;}
	.st77{fill:none;stroke:#E4E416;stroke-width:0.2051;}
	.st78{fill:#582906;}
	.st79{fill-rule:evenodd;clip-rule:evenodd;fill:#81431F;}
	.st80{fill:#81431F;}
	.st81{fill-rule:evenodd;clip-rule:evenodd;fill:#FFFFFF;}
	.st82{fill-rule:evenodd;clip-rule:evenodd;fill:#5B9541;}
	.st83{fill:none;stroke:#5B9541;stroke-width:8.209600e-02;stroke-linecap:round;stroke-linejoin:round;}
	.st84{fill:#573A3B;}
	.st85{fill:#E6BD11;}
	.st86{fill:#FACC10;}
	.st87{opacity:0.7;}
	.st88{clip-path:url(#SVGID_32_);fill:#878F89;}
	.st89{fill:#A45C2C;}
	.st90{fill:#42292A;}
	.st91{fill:#7ACDD5;}
	.st92{opacity:0.9;}
	.st93{clip-path:url(#SVGID_34_);fill:#FFFDF6;}
	.st94{clip-path:url(#SVGID_36_);fill:#A7A78A;}
	.st95{fill:#A2A29A;}
	.st96{fill:#BBBAB2;}
	.st97{fill:#A9A89C;}
	.st98{fill:#6B6362;}
	.st99{fill:#E74025;}
	.st100{fill:#BE341C;}
	.st101{fill:#410A00;}
	.st102{fill:#6DBD45;}
	.st103{fill:#423D30;}
	.st104{fill:#5E5747;}
	.st105{fill:#A9231E;}
	.st106{fill:#5D2C0A;}
	.st107{fill:#861710;}
	.st108{fill:#9C4B71;}
	.st109{fill:#DC5B80;}
	.st110{fill:#CAC5A3;}
	.st111{fill:#6B4315;}
	.st112{fill:#8A5824;}
	.st113{fill:#08B3D5;}
	.st114{fill:#C5C7CE;}
	.st115{fill:#AAADB3;}
	.st116{fill:#CACECC;}
	.st117{fill-rule:evenodd;clip-rule:evenodd;fill:#E74025;}
	.st118{fill:#E5E6E5;}
	.st119{fill:#DFF0F1;stroke:#18969A;stroke-miterlimit:10;}
	.st120{fill:#EBEDCA;}
	.st121{fill:#90160E;}
</style><g
     id="Layer_11"><g
       id="g31"><g
         id="g33"><path
           class="st23"
           d="M29.2,33.1c-0.7,0-1.5,0-2.2,0c-0.4-0.2-0.7-0.4-1.1-0.6l0.2-0.1h0c-0.4,0-0.9-0.1-1.4-0.2     c-0.5-0.1-1-0.3-1.3-0.5c-0.3-0.2-0.5-0.4-0.5-0.5c0-0.1,0.2-0.2,0.6-0.2h0h0H24c-0.2,0-0.4,0-0.5,0c-0.1,0-0.2,0-0.4,0     c-1.9-1.1-3.8-2.2-5.7-3.3c-1.9-1.1-3.8-2.2-5.7-3.3l0.2-0.1c-0.4,0-0.9-0.1-1.4-0.2c-0.5-0.1-1-0.3-1.3-0.5     c-0.3-0.2-0.5-0.4-0.5-0.5c0-0.1,0.2-0.2,0.6-0.2h0h0h0.4c-0.2,0-0.3,0-0.5,0c-0.1,0-0.2,0-0.4,0c-0.8-0.5-1.6-1.1-2.4-1.6     c-2,1.5-3.1,3.4-3.1,5.4c0,5.2,7.8,9.4,17.4,9.4c7.3,0,13.6-2.5,16.1-6l-5.5,3.2C30.7,33.1,29.9,33.1,29.2,33.1z"
           id="path35" /><path
           class="st24"
           d="M20.7,17c-5.9,0-11.1,1.6-14.2,4c0.8,0.5,1.6,1.1,2.4,1.6c0.1,0,0.2,0,0.4,0c0.2,0,0.3,0,0.5,0H9.4h0h0     c-0.4,0-0.6,0.1-0.6,0.2c0,0.1,0.1,0.3,0.5,0.5c0.4,0.2,0.8,0.4,1.3,0.5c0.5,0.1,1,0.2,1.4,0.2l-0.2,0.1c1.9,1.1,3.8,2.2,5.7,3.3     c1.9,1.1,3.8,2.2,5.7,3.3c0.1,0,0.2,0,0.4,0c0.2,0,0.3,0,0.5,0h-0.4h0h0c-0.4,0-0.6,0.1-0.6,0.2c0,0.1,0.1,0.3,0.5,0.5     c0.4,0.2,0.8,0.4,1.3,0.5c0.5,0.1,1,0.2,1.4,0.2h0l-0.2,0.1c0.4,0.2,0.7,0.4,1.1,0.6c0.7,0,1.5,0,2.2,0c0.7,0,1.5,0,2.2,0     l5.5-3.2c0.8-1.1,1.2-2.3,1.2-3.5C38.1,21.2,30.3,17,20.7,17z"
           id="path37" /></g><g
         id="g39"><g
           id="g41"><path
             class="st18"
             d="M23.4,28.7c-0.7-0.4-1.3-0.1-1.3,0.7c0,0.8,0.6,1.8,1.3,2.2c0.7,0.4,1.3,0.1,1.3-0.7      C24.7,30.1,24.1,29.1,23.4,28.7z"
             id="path43" /><path
             class="st18"
             d="M23.4,28.7c-0.7-0.4-1.2-0.1-1.2,0.7c0,0.8,0.6,1.8,1.2,2.1c0.7,0.4,1.2,0.1,1.2-0.7      C24.7,30.1,24.1,29.1,23.4,28.7z"
             id="path45" /><path
             class="st18"
             d="M23.4,28.7c-0.7-0.4-1.2-0.1-1.2,0.7c0,0.8,0.5,1.7,1.2,2.1c0.7,0.4,1.2,0.1,1.2-0.7      C24.7,30.1,24.1,29.1,23.4,28.7z"
             id="path47" /><path
             class="st18"
             d="M23.4,28.8c-0.7-0.4-1.2-0.1-1.2,0.7c0,0.8,0.5,1.7,1.2,2.1c0.7,0.4,1.2,0.1,1.2-0.7      C24.7,30.1,24.1,29.2,23.4,28.8z"
             id="path49" /><path
             class="st18"
             d="M23.4,28.8c-0.7-0.4-1.2-0.1-1.2,0.7c0,0.8,0.5,1.7,1.2,2.1c0.7,0.4,1.2,0.1,1.2-0.7      C24.6,30.1,24.1,29.2,23.4,28.8z"
             id="path51" /><path
             class="st18"
             d="M23.4,28.8c-0.7-0.4-1.2-0.1-1.2,0.7c0,0.8,0.5,1.7,1.2,2.1c0.7,0.4,1.2,0.1,1.2-0.7      C24.6,30.1,24.1,29.2,23.4,28.8z"
             id="path53" /><path
             class="st18"
             d="M23.5,28.8c-0.7-0.4-1.2-0.1-1.2,0.7c0,0.7,0.5,1.7,1.2,2c0.6,0.4,1.2,0.1,1.2-0.7      C24.6,30.1,24.1,29.2,23.5,28.8z"
             id="path55" /><path
             class="st18"
             d="M23.5,28.8c-0.6-0.4-1.2-0.1-1.2,0.7c0,0.7,0.5,1.6,1.2,2c0.6,0.4,1.2,0.1,1.2-0.7      C24.6,30.1,24.1,29.2,23.5,28.8z"
             id="path57" /><path
             class="st18"
             d="M23.5,28.9c-0.6-0.4-1.1-0.1-1.1,0.7c0,0.7,0.5,1.6,1.1,2c0.6,0.4,1.1,0.1,1.1-0.7      C24.6,30.1,24.1,29.2,23.5,28.9z"
             id="path59" /><path
             class="st18"
             d="M23.5,28.9c-0.6-0.4-1.1-0.1-1.1,0.7c0,0.7,0.5,1.6,1.1,2c0.6,0.4,1.1,0.1,1.1-0.7      C24.6,30.1,24.1,29.2,23.5,28.9z"
             id="path61" /><path
             class="st18"
             d="M23.5,28.9c-0.6-0.4-1.1-0.1-1.1,0.6c0,0.7,0.5,1.6,1.1,1.9c0.6,0.4,1.1,0.1,1.1-0.6      C24.6,30.1,24.1,29.3,23.5,28.9z"
             id="path63" /><path
             class="st18"
             d="M23.5,28.9c-0.6-0.4-1.1-0.1-1.1,0.6c0,0.7,0.5,1.6,1.1,1.9c0.6,0.4,1.1,0.1,1.1-0.6      C24.6,30.1,24.1,29.3,23.5,28.9z"
             id="path65" /><path
             class="st18"
             d="M23.5,28.9c-0.6-0.3-1.1-0.1-1.1,0.6c0,0.7,0.5,1.5,1.1,1.9c0.6,0.3,1.1,0.1,1.1-0.6      C24.6,30.1,24.1,29.3,23.5,28.9z"
             id="path67" /><path
             class="st18"
             d="M23.5,29c-0.6-0.3-1.1-0.1-1.1,0.6c0,0.7,0.5,1.5,1.1,1.9c0.6,0.3,1.1,0.1,1.1-0.6      C24.6,30.1,24.1,29.3,23.5,29z"
             id="path69" /><path
             class="st18"
             d="M23.5,29c-0.6-0.3-1.1-0.1-1.1,0.6c0,0.7,0.5,1.5,1.1,1.9c0.6,0.3,1.1,0.1,1.1-0.6      C24.5,30.2,24.1,29.3,23.5,29z"
             id="path71" /><path
             class="st18"
             d="M23.5,29c-0.6-0.3-1.1-0.1-1.1,0.6c0,0.7,0.5,1.5,1.1,1.8c0.6,0.3,1.1,0.1,1.1-0.6      C24.5,30.2,24.1,29.3,23.5,29z"
             id="path73" /><path
             class="st18"
             d="M23.5,29c-0.6-0.3-1-0.1-1,0.6c0,0.7,0.5,1.5,1,1.8c0.6,0.3,1,0.1,1-0.6C24.5,30.2,24.1,29.4,23.5,29z"
             id="path75" /><path
             class="st18"
             d="M23.5,29c-0.6-0.3-1-0.1-1,0.6s0.5,1.5,1,1.8c0.6,0.3,1,0.1,1-0.6C24.5,30.2,24.1,29.4,23.5,29z"
             id="path77" /><path
             class="st18"
             d="M23.5,29.1c-0.6-0.3-1-0.1-1,0.6c0,0.6,0.5,1.4,1,1.8c0.6,0.3,1,0.1,1-0.6C24.5,30.2,24.1,29.4,23.5,29.1z      "
             id="path79" /><path
             class="st18"
             d="M23.5,29.1c-0.6-0.3-1-0.1-1,0.6c0,0.6,0.4,1.4,1,1.7c0.6,0.3,1,0.1,1-0.6C24.5,30.2,24.1,29.4,23.5,29.1z      "
             id="path81" /><path
             class="st18"
             d="M23.5,29.1c-0.5-0.3-1-0.1-1,0.6s0.4,1.4,1,1.7c0.5,0.3,1,0.1,1-0.6C24.5,30.2,24,29.4,23.5,29.1z"
             id="path83" /><path
             class="st18"
             d="M23.5,29.1c-0.5-0.3-1-0.1-1,0.6c0,0.6,0.4,1.4,1,1.7c0.5,0.3,1,0.1,1-0.6C24.5,30.2,24,29.4,23.5,29.1z"
             id="path85" /></g><g
           id="g87"><path
             class="st18"
             d="M9.2,20.5c-0.7-0.4-1.3-0.1-1.3,0.7c0,0.8,0.6,1.8,1.3,2.2c0.7,0.4,1.3,0.1,1.3-0.7      C10.5,21.9,9.9,20.9,9.2,20.5z"
             id="path89" /></g><g
           id="g91"><polygon
             class="st4"
             points="1.1,5.2 0.2,5.7 0.2,6.9 0.4,6.8 0.4,5.8 1.1,5.4     "
             id="polygon93" /><polygon
             class="st4"
             points="0.2,8.3 0.4,8.2 0.4,7 0.2,7.1     "
             id="polygon95" /><polygon
             class="st4"
             points="14.7,2.2 14.7,2.5 15.7,3.1 17.4,4 17.4,3.8     "
             id="polygon97" /><polygon
             class="st4"
             points="0.2,9.6 0.4,9.5 0.4,8.4 0.2,8.5     "
             id="polygon99" /><polygon
             class="st4"
             points="2.9,4.1 2,3.6 2,4.9 2.9,4.3     "
             id="polygon101" /><polygon
             class="st4"
             points="1.8,4.9 1.4,5.1 1.4,5.2 1.8,5     "
             id="polygon103" /><polygon
             class="st4"
             points="11.8,0.5 11.8,0.8 14.4,2.3 14.4,2.1     "
             id="polygon105" /><polygon
             class="st4"
             points="1,5 0.2,4.6 0.2,5.5     "
             id="polygon107" /><polygon
             class="st4"
             points="17.6,3.9 17.6,4.1 20.3,5.7 20.3,5.4     "
             id="polygon109" /><polygon
             class="st4"
             points="22.2,18.3 24.5,24.1 25.9,27.6 24.1,23     "
             id="polygon111" /><polygon
             class="st4"
             points="34.1,16.3 34.1,16.1 33.7,16.3 33.8,16.5 33.8,16.5     "
             id="polygon113" /><polygon
             class="st4"
             points="11.4,0.6 11.5,0.7 11.5,0.5     "
             id="polygon115" /><polygon
             class="st4"
             points="0.2,13.8 0.7,13.6 0.4,12.6 0.2,12.7     "
             id="polygon117" /><polygon
             class="st4"
             points="0.2,11 0.4,10.9 0.4,9.8 0.2,9.9     "
             id="polygon119" /><polygon
             class="st4"
             points="0.2,12.4 0.4,12.3 0.4,11.2 0.2,11.3     "
             id="polygon121" /><path
             class="st33"
             d="M34.1,16.1v0.2l-0.4,0.2v0l0.3,0.7l0.3,0.8l0.2-0.1v-1.7l-0.1-0.1l-0.2,0.1v-0.2c0,0,0-0.1,0-0.1      c0,0-0.1,0-0.1,0l-0.5,0.3l0.1,0.2L34.1,16.1z"
             id="path123" /><path
             class="st26"
             d="M0.2,13.8v-1.1l0.2-0.1l0-0.2v0l-0.2,0.1v-1.1l0.2-0.1v-0.3L0.2,11V9.9l0.2-0.1V9.5L0.2,9.6V8.5l0.2-0.1      V8.2L0.2,8.3V7.1L0.4,7V6.8L0.2,6.9V5.7l0.9-0.5v0.1v0.5C1.1,5.9,1.2,6,1.2,6c0.1,0,0.1-0.1,0.1-0.1V5.2V5.1l0.4-0.2V5L2,4.9      V3.6l0.9,0.5v0.2v0.5c0,0.1,0.1,0.1,0.1,0.1c0.1,0,0.1-0.1,0.1-0.1V4.2V4c0,0,0,0,0,0c0,0,0,0,0,0c0,0,0,0,0,0c0,0,0,0,0,0      L1.9,3.3c0,0-0.1,0-0.1,0c0,0-0.1,0.1-0.1,0.1v1.2L1.2,4.9l-1-0.6c0,0-0.1,0-0.1,0C0,4.3,0,4.4,0,4.4v10.2      c0,0.1,0.1,0.1,0.1,0.1c0.1,0,0.1-0.1,0.1-0.1v-0.6l0.5-0.3l-0.1-0.2L0.2,13.8z M1,5L0.2,5.5V4.6L1,5z"
             id="path125" /><path
             class="st33"
             d="M24.8,31c0-0.9-0.6-2-1.4-2.4c-0.2-0.1-0.3-0.1-0.5-0.2l-0.4,0.2l0.3,0.6c-0.1,0.1-0.2,0.3-0.2,0.5      c0,0,0,0,0,0c0,0.5,0.4,1.1,0.8,1.4c0.2,0.1,0.4,0.1,0.6,0.1l0.3,0.6l0.6-0.3l-0.1,0V31z M24.2,30.6      C24.2,30.6,24.2,30.6,24.2,30.6C24.2,30.6,24.2,30.6,24.2,30.6L24.2,30.6z"
             id="path127" /><polygon
             class="st34"
             points="22.6,29.7 22.6,29.7 22.6,29.7     "
             id="polygon129" /><polygon
             class="st34"
             points="24.2,30.6 24.2,30.6 24.2,30.6     "
             id="polygon131" /><path
             class="st33"
             d="M10.6,23.1v-0.4c0-0.9-0.6-2-1.4-2.4c-0.2-0.1-0.3-0.1-0.5-0.2l-0.4,0.2L8.6,21c-0.1,0.1-0.2,0.3-0.2,0.5      c0,0,0,0,0,0c0,0.5,0.4,1.1,0.8,1.4C9.4,23,9.6,23,9.8,22.9l0.3,0.6L10.6,23.1L10.6,23.1z M10,22.4L10,22.4      C10,22.4,10,22.4,10,22.4C10,22.4,10,22.4,10,22.4z"
             id="path133" /><polygon
             class="st34"
             points="8.4,21.5 8.4,21.5 8.4,21.5     "
             id="polygon135" /><polygon
             class="st34"
             points="10,22.4 10,22.4 10,22.4     "
             id="polygon137" /><path
             class="st35"
             d="M13.9,22.5c0,0,0.1-0.1,0.1-0.1C13.9,22.5,13.9,22.5,13.9,22.5z"
             id="path139" /><path
             class="st35"
             d="M13.8,22.8c0,0,0-0.1,0-0.1C13.8,22.7,13.8,22.7,13.8,22.8z"
             id="path141" /><polygon
             class="st35"
             points="7.6,19.3 6.4,18.6 7.4,19.4     "
             id="polygon143" /><path
             class="st35"
             d="M14.1,22.4L14.1,22.4C14,22.4,14,22.4,14.1,22.4C14,22.4,14,22.4,14.1,22.4z"
             id="path145" /><path
             class="st35"
             d="M14.2,22.6l0.2,0.1v-0.2l-0.2-0.1C14.2,22.5,14.2,22.5,14.2,22.6C14.2,22.6,14.2,22.6,14.2,22.6z"
             id="path147" /><path
             class="st35"
             d="M25.3,30.9l0.2-0.1l0.4,0.3v-1.8L16.8,24v0.5l3.5,2.5l0.1-0.1c0.1,0,0.1,0,0.2,0c0,0.1,0,0.1,0,0.2      l-0.2,0.1c0,0,0,0-0.1,0c0,0,0,0-0.1,0l-3.4-2.4v0.8l-0.2,0.1v-1l-2.4-1.7L14,22.8c0,0,0,0.1-0.1,0.1c-0.1,0.1-0.2,0-0.2-0.1      c0,0.1,0,0.1,0.1,0.1l-6.1-3.5c0,0,0,0.1,0,0.1l-0.2,0.1c0,0,0,0-0.1,0c0,0,0,0-0.1,0l-3.1-2.2l-2.8-1.6l0,0      c0,0-0.1-0.1-0.1-0.1c0-0.1,0-0.2,0.1-0.2l-0.1-0.1c-0.1,0-0.1-0.1,0-0.2c0,0,0.1-0.1,0.1,0l-0.1-0.1l-0.1-0.5v0l-0.1-0.5      l1.3,0.7l1.9-1.5l-2.6-1.5V8.9l4.7,2.7v0.1L7.2,11L0.7,7.3V6.8V6.4l7.1,4.1v0.1L8.6,11l-6,4.7l-0.8-0.4l12.3,7.1L13.4,22l6-4.7      l0.8,0.4v-0.1l1.8,1l0.2,0.6l0.2,0.6l-2.8-1.6l-0.8,0.6l1.4,0.8v3.3V23v0.2l-2.8-1.6v-1.7l-0.6,0.4v2.8l5,2.9l3.2,1.9l0,0      l0.9,0.5v-0.8l-1.4-3.5l-2.3-5.8L0.4,5.8v1V7v1.1v0.3v1.1v0.3v1.1v0.3v1.1v0l0,0.2l0.2,1l0.1,0.2L1.4,17l6.4,4.5v-0.4      c0-0.7,0.4-1.1,0.9-1c0.1,0,0.3,0.1,0.5,0.2c0.8,0.4,1.4,1.5,1.4,2.4v0.4l0.1,0L22,29.7v-0.4c0-0.7,0.4-1.1,0.9-1      c0.1,0,0.3,0.1,0.5,0.2c0.8,0.4,1.4,1.5,1.4,2.4v0.4l0.1,0l1,0.6v-0.7L25.3,30.9z M23.3,21.9c0-0.1,0.1-0.1,0.1-0.1      c0.1,0,0.1,0.1,0.1,0.2c0,0.1-0.1,0.1-0.1,0.1c0,0,0,0,0,0l-0.1,0.1l0.7,1.7l0.6,1.6l0,0l0.1,0.2v0v0l0,0l0.1,0.2l-2.1-1.2      l-0.2,0.1l-0.1-0.1v-0.2l-1.3-0.7V20l0.2,0.1v0l0.2,0.1v0l1.5,0.8L23.3,21.9L23.3,21.9C23.3,21.9,23.3,21.9,23.3,21.9z       M10.5,20.3c2-1.6,4-3.1,6-4.7c0.3,0.1,0.5,0.3,0.8,0.4c-2,1.6-4,3.1-6,4.7C11,20.6,10.7,20.4,10.5,20.3z M12.7,21.6      c-0.3-0.1-0.5-0.3-0.8-0.4c2-1.6,4-3.1,6-4.7c0.3,0.1,0.5,0.3,0.8,0.4C16.7,18.4,14.7,20,12.7,21.6z M15.8,15.2      c-2,1.6-4,3.1-6,4.7c-0.3-0.1-0.5-0.3-0.8-0.4c2-1.6,4-3.1,6-4.7C15.3,14.9,15.6,15,15.8,15.2z M8.3,19.1      c-0.3-0.1-0.5-0.3-0.8-0.4c2-1.6,4-3.1,6-4.7c0.3,0.1,0.5,0.3,0.8,0.4C12.4,15.9,10.4,17.5,8.3,19.1z M12.9,13.5      c-2,1.6-4,3.1-6,4.7c-0.3-0.2-0.5-0.3-0.8-0.4c2-1.6,4-3.1,6-4.7C12.4,13.2,12.7,13.4,12.9,13.5z M11.5,12.7c-2,1.6-4,3.1-6,4.7      c-0.3-0.1-0.5-0.3-0.8-0.4c2-1.6,4-3.1,6-4.7C11,12.4,11.2,12.5,11.5,12.7z M10,11.8c-2,1.6-4,3.1-6,4.7      c-0.3-0.1-0.5-0.3-0.8-0.4c2-1.6,4-3.1,6-4.7C9.5,11.5,9.8,11.7,10,11.8z"
             id="path149" /><polygon
             class="st21"
             points="0.7,6.8 0.7,7.3 7.2,11 7.6,10.8     "
             id="polygon151" /><polygon
             class="st21"
             points="19.6,18.1 22.4,19.7 22.1,19.2 19.9,17.9     "
             id="polygon153" /><polygon
             class="st23"
             points="7.6,10.8 7.8,10.6 7.8,10.5 0.7,6.4 0.7,6.8     "
             id="polygon155" /><polygon
             class="st23"
             points="19.9,17.9 22.1,19.2 21.9,18.6 20.2,17.6 20.2,17.7     "
             id="polygon157" /><polygon
             class="st21"
             points="22.8,24.5 24,25.2 24,25.2 24.6,25.5 24.6,25.5 22.8,24.5     "
             id="polygon159" /><polygon
             class="st21"
             points="22.9,22.5 23,22.5 23.1,22.5 23.1,24.2 22.9,24.4 24.6,25.3 23.9,23.8 23.3,22.1 22.9,22.3           "
             id="polygon161" /><polygon
             class="st21"
             points="22.3,24.2 22.3,24.2 21.4,23.6 21.4,23.6     "
             id="polygon163" /><path
             class="st21"
             d="M22.3,24.1v-1.2l0.4-0.2v-0.3c0,0,0-0.1,0-0.1l0.4-0.3l-0.4-0.9l-1.5-0.8v3.3L22.3,24.1z"
             id="path165" /><polygon
             class="st21"
             points="17.7,21.4 20.2,22.8 20.2,19.5 18.8,18.7 17.7,19.6     "
             id="polygon167" /><polygon
             class="st21"
             points="1.9,9 2,9 2,9 2.1,9.1 2.1,11.7 4.6,13.1 6.4,11.7 6.4,11.6 1.8,8.9     "
             id="polygon169" /><path
             class="st23"
             d="M3.1,4.8c0,0.1-0.1,0.1-0.1,0.1c-0.1,0-0.1-0.1-0.1-0.1V4.3L2,4.9L1.8,5L1.4,5.2v0.6C1.4,5.9,1.3,6,1.2,6      C1.2,6,1.1,5.9,1.1,5.9V5.4L0.4,5.8l21.8,12.6l5-2.9l5-2.9L21.2,6.3l0,0l-0.7-0.4v0.3c0,0.1-0.1,0.1-0.1,0.1      c-0.1,0-0.1-0.1-0.1-0.1V5.7l-2.7-1.5v0.3c0,0.1-0.1,0.1-0.1,0.1c-0.1,0-0.1-0.1-0.1-0.1V4l-1.6-1l-1-0.6v0.3      c0,0.1-0.1,0.1-0.1,0.1c-0.1,0-0.1-0.1-0.1-0.1V2.3l-2.7-1.5v0.3c0,0.1-0.1,0.1-0.1,0.1c-0.1,0-0.1-0.1-0.1-0.1V0.7l-0.1-0.1      L8.7,2.2v0.7C8.7,3,8.6,3,8.5,3C8.5,3,8.4,3,8.4,2.9V2.3L5.6,4v0.7c0,0.1-0.1,0.1-0.1,0.1c-0.1,0-0.1-0.1-0.1-0.1V4.1L2.6,5.7      l8.6,4.9c0,0,0,0,0,0c0,0,0,0,0,0c0,0,0,0,0,0c0,0,0,0,0,0v0.8c0,0.1-0.1,0.1-0.1,0.1c-0.1,0-0.1-0.1-0.1-0.1v-0.7L8.3,9.3v0.6      c0,0.1-0.1,0.1-0.1,0.1c-0.1,0-0.1-0.1-0.1-0.1V9.1L5.4,7.6v0.6c0,0.1-0.1,0.1-0.1,0.1c-0.1,0-0.1-0.1-0.1-0.1V7.5L2.5,5.9v0.6      c0,0.1-0.1,0.1-0.1,0.1c-0.1,0-0.1-0.1-0.1-0.1V5.7c0,0,0-0.1,0.1-0.1c0,0,0,0,0,0l8.9-5.1L10.4,0L3.1,4.2V4.8z"
             id="path171" /><polygon
             class="st33"
             points="25.9,27.6 25.9,28.4 35.9,22.6 35.9,21.8 30.9,24.7     "
             id="polygon173" /><polygon
             class="st33"
             points="25.9,31 35.9,25.2 35.9,25 35.9,23.5 25.9,29.3     "
             id="polygon175" /><path
             class="st21"
             d="M22.2,18.3l1.9,4.6l1.9,4.6l5-2.9l5-2.9L34.4,18l-0.3-0.8l-0.3-0.7l-0.1-0.2l-0.1-0.2l-1.5-3.6l-5,2.9      L22.2,18.3z M33.2,15.6l2,4.9l-9.6,5.5l-2-4.9L33.2,15.6z"
             id="path177" /><polygon
             class="st33"
             points="25.6,26.1 35.2,20.5 33.2,15.6 23.6,21.2     "
             id="polygon179" /><polygon
             class="st33"
             points="26.2,31.4 25.9,31.3 25.9,31.9 26.2,31.8 26.2,32.4 36.6,26.3 36.6,25.4     "
             id="polygon181" /><polygon
             class="st23"
             points="25.9,31 25.5,30.8 25.3,30.9 25.9,31.3 26.2,31.4 36.6,25.4 35.9,25 35.9,25.2     "
             id="polygon183" /><path
             class="st21"
             d="M24.2,27.8L24.2,27.8l-0.5-0.3l0,0l-6.8-3.9l0,0l-0.1,0l0,0l0,0v0v-0.4v0l0,0v-2.8l-0.2,0.1v2.7v0.1v0.4      l-2.3-1.3v-0.1l-0.2,0.2c0,0-0.1,0-0.1,0l0,0c0,0,0.1,0,0.1,0.1l0.2,0.1v0.2l0,0l0.1,0.1l2.2,1.3v0.3l0.2,0.1V24l9.1,5.3v-0.4      L24.2,27.8z"
             id="path185" /><path
             class="st21"
             d="M1.7,15.3C1.7,15.3,1.8,15.3,1.7,15.3L1.7,15.3l0.3-0.2l-0.8-0.5l0.1,0.5l0.1,0.1c0,0,0,0,0,0L1.7,15.3z"
             id="path187" /><polygon
             class="st23"
             points="2.4,14.8 1.1,14.1 1.2,14.6 1.2,14.6 2.1,15.1     "
             id="polygon189" /><polygon
             class="st23"
             points="16.8,23.1 17,23.2 17,23.7 16.9,23.6 16.9,23.6 23.7,27.6 23.7,27.6 24.2,27.8 24.2,27.8       25.9,28.8 25.9,28.4 25,27.9 25,27.9 21.8,26 16.8,23.1     "
             id="polygon191" /><polygon
             class="st21"
             points="16.9,23.6 16.9,23.6 16.9,23.6 16.9,23.6     "
             id="polygon193" /><linearGradient
             id="SVGID_2_"
             gradientUnits="userSpaceOnUse"
             x1="16.949"
             y1="23.6059"
             x2="16.5833"
             y2="23.6059"><stop
               offset="0"
               style="stop-color:#EDE2D2"
               id="stop196" /><stop
               offset="1"
               style="stop-color:#EDE2D2"
               id="stop198" /></linearGradient><polygon
             style="fill:url(#SVGID_2_);"
             points="16.9,23.6 16.9,23.6 16.9,23.6 16.9,23.6     "
             id="polygon200" /><polygon
             class="st23"
             points="16.9,23.6 16.9,23.6 16.9,23.6     "
             id="polygon202" /><linearGradient
             id="SVGID_4_"
             gradientUnits="userSpaceOnUse"
             x1="16.9487"
             y1="23.6098"
             x2="16.5883"
             y2="23.6098"><stop
               offset="0"
               style="stop-color:#EDE2D2"
               id="stop205" /><stop
               offset="1"
               style="stop-color:#EDE2D2"
               id="stop207" /></linearGradient><polygon
             style="fill:url(#SVGID_4_);"
             points="16.9,23.6 16.9,23.6 16.9,23.6     "
             id="polygon209" /><polygon
             class="st35"
             points="25.9,28.8 35.9,23 35.9,22.6 25.9,28.4     "
             id="polygon211" /><polygon
             class="st26"
             points="25.9,29.3 35.9,23.5 35.9,23 25.9,28.8     "
             id="polygon213" /><polygon
             class="st35"
             points="16.7,24.1 14.5,22.8 16.7,24.4     "
             id="polygon215" /><path
             class="st35"
             d="M14.6,22l2.1,1.2v-0.1v-2.7L14.6,22z M16.2,21.8l0.2,0.1v0.6l-0.2-0.1V21.8z"
             id="path217" /><polygon
             class="st21"
             points="16.7,25.7 16.8,25.6 16.8,24.8 16.7,24.7     "
             id="polygon219" /><polygon
             class="st21"
             points="16.8,23.6 16.9,23.6 16.8,23.6     "
             id="polygon221" /><linearGradient
             id="SVGID_5_"
             gradientUnits="userSpaceOnUse"
             x1="16.9752"
             y1="23.5742"
             x2="16.6763"
             y2="23.5742"><stop
               offset="0"
               style="stop-color:#EDE2D2"
               id="stop224" /><stop
               offset="1"
               style="stop-color:#EDE2D2"
               id="stop226" /></linearGradient><polygon
             class="st36"
             points="16.8,23.6 16.9,23.6 16.8,23.6     "
             id="polygon228" /><polygon
             class="st23"
             points="16.9,23.6 17,23.7 17,23.2 16.8,23.1 16.8,23.1 16.9,23.2     "
             id="polygon230" /><linearGradient
             id="SVGID_6_"
             gradientUnits="userSpaceOnUse"
             x1="16.9751"
             y1="23.3871"
             x2="16.6764"
             y2="23.3871"><stop
               offset="0"
               style="stop-color:#EDE2D2"
               id="stop233" /><stop
               offset="1"
               style="stop-color:#EDE2D2"
               id="stop235" /></linearGradient><polygon
             class="st37"
             points="16.9,23.6 17,23.7 17,23.2 16.8,23.1 16.8,23.1 16.9,23.2     "
             id="polygon237" /><polygon
             class="st21"
             points="16.8,23.6 16.8,23.6 16.9,23.6 16.9,23.6     "
             id="polygon239" /><linearGradient
             id="SVGID_7_"
             gradientUnits="userSpaceOnUse"
             x1="16.9505"
             y1="23.5776"
             x2="16.5815"
             y2="23.5776"><stop
               offset="0"
               style="stop-color:#EDE2D2"
               id="stop242" /><stop
               offset="1"
               style="stop-color:#EDE2D2"
               id="stop244" /></linearGradient><polygon
             class="st38"
             points="16.8,23.6 16.8,23.6 16.9,23.6 16.9,23.6     "
             id="polygon246" /><linearGradient
             id="SVGID_8_"
             gradientUnits="userSpaceOnUse"
             x1="16.9781"
             y1="23.5776"
             x2="16.6736"
             y2="23.5776"><stop
               offset="0"
               style="stop-color:#EDE2D2"
               id="stop249" /><stop
               offset="1"
               style="stop-color:#EDE2D2"
               id="stop251" /></linearGradient><polygon
             class="st39"
             points="16.8,23.6 16.8,23.6 16.9,23.6 16.9,23.6     "
             id="polygon253" /><polygon
             class="st23"
             points="16.9,23.6 16.9,23.2 16.8,23.1 16.8,23.6 16.9,23.6     "
             id="polygon255" /><linearGradient
             id="SVGID_9_"
             gradientUnits="userSpaceOnUse"
             x1="16.9489"
             y1="23.375"
             x2="16.5845"
             y2="23.375"><stop
               offset="0"
               style="stop-color:#EDE2D2"
               id="stop258" /><stop
               offset="1"
               style="stop-color:#EDE2D2"
               id="stop260" /></linearGradient><polygon
             class="st40"
             points="16.9,23.6 16.9,23.2 16.8,23.1 16.8,23.6 16.9,23.6     "
             id="polygon262" /><linearGradient
             id="SVGID_10_"
             gradientUnits="userSpaceOnUse"
             x1="16.9761"
             y1="23.375"
             x2="16.6754"
             y2="23.375"><stop
               offset="0"
               style="stop-color:#EDE2D2"
               id="stop265" /><stop
               offset="1"
               style="stop-color:#EDE2D2"
               id="stop267" /></linearGradient><polygon
             class="st41"
             points="16.9,23.6 16.9,23.2 16.8,23.1 16.8,23.6 16.9,23.6     "
             id="polygon269" /><polygon
             class="st23"
             points="14.3,22.2 14.3,22.3 16.7,23.7 16.7,23.2 14.6,22     "
             id="polygon271" /><path
             class="st26"
             d="M2.3,5.6C2.3,5.6,2.3,5.6,2.3,5.6C2.2,5.6,2.2,5.7,2.3,5.6L2.2,6.5c0,0.1,0.1,0.1,0.1,0.1      c0.1,0,0.1-0.1,0.1-0.1V5.9l2.7,1.5v0.7c0,0.1,0.1,0.1,0.1,0.1c0.1,0,0.1-0.1,0.1-0.1V7.6l2.7,1.5v0.7c0,0.1,0.1,0.1,0.1,0.1      c0.1,0,0.1-0.1,0.1-0.1V9.3l2.7,1.5v0.7c0,0.1,0.1,0.1,0.1,0.1c0.1,0,0.1-0.1,0.1-0.1v-0.8c0,0,0,0,0,0c0,0,0,0,0,0c0,0,0,0,0,0      c0,0,0,0,0,0L2.6,5.7l2.8-1.6v0.6c0,0.1,0.1,0.1,0.1,0.1c0.1,0,0.1-0.1,0.1-0.1V4l2.9-1.7v0.6C8.4,3,8.5,3,8.5,3      C8.6,3,8.7,3,8.7,2.9V2.2l2.8-1.6l0.1-0.1v0.1v0.5c0,0.1,0.1,0.1,0.1,0.1c0.1,0,0.1-0.1,0.1-0.1V0.8V0.5l2.7,1.5v0.3v0.5      c0,0.1,0.1,0.1,0.1,0.1c0.1,0,0.1-0.1,0.1-0.1V2.5V2.2l2.7,1.5V4v0.5c0,0.1,0.1,0.1,0.1,0.1c0.1,0,0.1-0.1,0.1-0.1V4.1V3.9      l2.7,1.5v0.3v0.5c0,0.1,0.1,0.1,0.1,0.1c0.1,0,0.1-0.1,0.1-0.1V5.8V5.4c0,0,0,0,0,0c0,0,0,0,0,0c0,0,0,0,0,0c0,0,0,0,0,0l-8.7-5      c0,0,0,0,0,0c0,0,0,0,0,0c0,0,0,0,0,0c0,0,0,0,0,0l-0.4,0.2L2.3,5.6z"
             id="path273" /><path
             class="st26"
             d="M7.4,19.4l-1.1-0.8l-2.1-1.2l3.1,2.2c0,0,0,0,0.1,0c0,0,0,0,0.1,0l0.2-0.1c0,0,0-0.1,0-0.1l-0.2-0.1      L7.4,19.4z"
             id="path275" /><path
             class="st26"
             d="M1.7,15.3l-0.2-0.1c0,0,0,0,0,0c0,0-0.1,0-0.1,0c0,0.1,0,0.1,0,0.2l0.1,0.1C1.5,15.4,1.6,15.3,1.7,15.3      C1.7,15.3,1.7,15.3,1.7,15.3z"
             id="path277" /><polygon
             class="st33"
             points="16.4,21.9 16.2,21.8 16.2,22.4 16.4,22.5     "
             id="polygon279" /><path
             class="st33"
             d="M22.7,22.2C22.7,22.2,22.7,22.3,22.7,22.2l0,0.4l-0.4,0.2v1.2l-1-0.6v-3.3v0l-0.2-0.1v0L21.1,20v3.6      l1.3,0.7v0.2l0.1,0.1l0.2-0.1l2.1,1.2l-0.1-0.2l0,0L24,25.2l0,0l-1.2-0.7l0,0l1.8,1.1v0l-0.1-0.2l0,0l-1.7-1l0.2-0.1v-1.7      L23,22.5l-0.2,0.1v-0.2l0.4-0.2l0.1-0.1c0,0-0.1-0.1-0.1-0.1l-0.1,0L22.7,22.2z M22.3,24.2L22.3,24.2l-1-0.6l0,0L22.3,24.2z"
             id="path281" /><path
             class="st35"
             d="M23.4,21.9c0,0,0,0.1,0,0.1l-0.1,0c0,0,0,0,0,0c0.1,0,0.1,0,0.1-0.1C23.5,21.9,23.4,21.9,23.4,21.9      c-0.1-0.1-0.2-0.1-0.2,0c0,0,0,0,0,0l0.1,0C23.4,21.9,23.4,21.9,23.4,21.9z"
             id="path283" /><linearGradient
             id="SVGID_11_"
             gradientUnits="userSpaceOnUse"
             x1="23.3794"
             y1="22.1074"
             x2="23.3794"
             y2="21.8166"><stop
               offset="0"
               style="stop-color:#BC3E26"
               id="stop286" /><stop
               offset="1"
               style="stop-color:#BC3E26"
               id="stop288" /></linearGradient><path
             class="st42"
             d="M23.4,21.9c0,0,0,0.1,0,0.1l-0.1,0c0,0,0,0,0,0c0.1,0,0.1,0,0.1-0.1C23.5,21.9,23.4,21.9,23.4,21.9      c-0.1-0.1-0.2-0.1-0.2,0c0,0,0,0,0,0l0.1,0C23.4,21.9,23.4,21.9,23.4,21.9z"
             id="path290" /><path
             class="st33"
             d="M23.4,22c0,0,0.1-0.1,0-0.1c0,0-0.1-0.1-0.1,0l-0.1,0C23.3,22,23.3,22,23.4,22L23.4,22z"
             id="path292" /><linearGradient
             id="SVGID_12_"
             gradientUnits="userSpaceOnUse"
             x1="23.365"
             y1="22.1079"
             x2="23.365"
             y2="21.8164"><stop
               offset="0"
               style="stop-color:#BC3E26"
               id="stop295" /><stop
               offset="1"
               style="stop-color:#BC3E26"
               id="stop297" /></linearGradient><path
             class="st43"
             d="M23.4,22c0,0,0.1-0.1,0-0.1c0,0-0.1-0.1-0.1,0l-0.1,0C23.3,22,23.3,22,23.4,22L23.4,22z"
             id="path299" /><path
             class="st33"
             d="M13.9,22.6c0-0.1,0.1-0.1,0.2,0l0.1,0.1c0,0,0-0.1,0-0.1c0,0,0-0.1,0-0.1c0,0,0-0.1-0.1-0.1c0,0,0,0-0.1,0      c0,0,0,0,0.1,0c0,0,0.1,0,0.1,0L1.8,15.3l0,0c0,0,0,0-0.1,0c0,0-0.1,0-0.1,0c-0.1,0-0.1,0.1-0.1,0.1c0,0.1-0.1,0.1-0.1,0.2      c0,0.1,0,0.1,0.1,0.1l0,0l2.8,1.6l2.1,1.2l1.2,0.7l0.2,0.1l6.1,3.5c0,0-0.1-0.1-0.1-0.1c0,0.1,0.1,0.2,0.2,0.1c0,0,0,0,0.1-0.1      l-0.1-0.1C13.9,22.7,13.8,22.7,13.9,22.6z M13.9,22.5c0,0,0.1-0.1,0.1-0.1C13.9,22.4,13.9,22.5,13.9,22.5z M13.8,22.6      c0,0,0,0.1,0,0.1C13.8,22.7,13.8,22.7,13.8,22.6z"
             id="path301" /><path
             class="st26"
             d="M14.5,22.8L14.5,22.8l-0.1-0.1l-0.2-0.1L14,22.6c-0.1,0-0.1,0-0.2,0c0,0.1,0,0.1,0,0.2l0.1,0.1l0.2,0.1      l2.4,1.7l0.2,0.1l3.4,2.4c0,0,0,0,0.1,0c0,0,0,0,0.1,0l0.2-0.1c0.1,0,0.1-0.1,0-0.2c0-0.1-0.1-0.1-0.2,0L20.3,27l-3.5-2.5      l-0.2-0.1L14.5,22.8z"
             id="path303" /><polygon
             class="st33"
             points="1.8,15.3 2.6,15.7 8.6,11 7.8,10.6 7.6,10.8 7.2,11 6.4,11.7 4.6,13.1 2.1,11.7 2.1,9.1 2,9 2,9       1.9,9 1.8,8.9 1.8,11.8 4.3,13.3 2.4,14.8 2.1,15.1     "
             id="polygon305" /><path
             class="st33"
             d="M3.2,16.1c0.3,0.1,0.5,0.3,0.8,0.4c2-1.6,4-3.1,6-4.7c-0.3-0.1-0.5-0.3-0.8-0.4C7.3,13,5.2,14.5,3.2,16.1z      "
             id="path307" /><path
             class="st33"
             d="M4.7,16.9c0.3,0.1,0.5,0.3,0.8,0.4c2-1.6,4-3.1,6-4.7c-0.3-0.1-0.5-0.3-0.8-0.4      C8.7,13.8,6.7,15.4,4.7,16.9z"
             id="path309" /><path
             class="st33"
             d="M6.1,17.8c0.3,0.1,0.5,0.3,0.8,0.4c2-1.6,4-3.1,6-4.7c-0.3-0.1-0.5-0.3-0.8-0.4      C10.1,14.6,8.1,16.2,6.1,17.8z"
             id="path311" /><path
             class="st33"
             d="M13.6,13.9c-2,1.6-4,3.1-6,4.7c0.3,0.1,0.5,0.3,0.8,0.4c2-1.6,4-3.1,6-4.7C14.1,14.2,13.9,14,13.6,13.9z"
             id="path313" /><path
             class="st33"
             d="M9,19.5c0.3,0.1,0.5,0.3,0.8,0.4c2-1.6,4-3.1,6-4.7c-0.3-0.1-0.5-0.3-0.8-0.4C13,16.3,11,17.9,9,19.5z"
             id="path315" /><path
             class="st33"
             d="M17.3,16c-0.3-0.1-0.5-0.3-0.8-0.4c-2,1.6-4,3.1-6,4.7c0.3,0.1,0.5,0.3,0.8,0.4      C13.2,19.2,15.3,17.6,17.3,16z"
             id="path317" /><path
             class="st33"
             d="M17.9,16.4c-2,1.6-4,3.1-6,4.7c0.3,0.1,0.5,0.3,0.8,0.4c2-1.6,4-3.1,6-4.7C18.4,16.7,18.2,16.6,17.9,16.4z      "
             id="path319" /><polygon
             class="st33"
             points="14.6,22 16.7,20.4 16.8,20.3 17.4,19.8 17.4,21.5 20.2,23.1 20.2,23 20.2,22.8 17.7,21.4       17.7,19.6 18.8,18.7 19.6,18.1 19.9,17.9 20.2,17.7 19.4,17.2 13.4,22 14.1,22.4 14.3,22.2     "
             id="polygon321" /></g><g
           id="g323"><path
             class="st18"
             d="M23.4,28.7c0.7,0.4,1.3,1.4,1.3,2.2c0,0.8-0.6,1.1-1.3,0.7c-0.7-0.4-1.3-1.4-1.3-2.2      C22.2,28.7,22.7,28.3,23.4,28.7z"
             id="path325" /><g
             id="g327"><path
               class="st18"
               d="M9.2,20.5c0.7,0.4,1.2,1.4,1.2,2.2c0,0.8-0.6,1.1-1.2,0.7C8.5,23,7.9,22,7.9,21.2       C7.9,20.5,8.5,20.1,9.2,20.5z"
               id="path329" /></g><path
             class="st19"
             d="M9.2,21c0.4,0.3,0.8,0.9,0.8,1.4c0,0.5-0.4,0.7-0.8,0.5c-0.4-0.3-0.8-0.9-0.8-1.4C8.4,21,8.8,20.8,9.2,21z      "
             id="path331" /><path
             class="st19"
             d="M23.4,29.3c0.4,0.3,0.8,0.9,0.8,1.4c0,0.5-0.4,0.7-0.8,0.5c-0.4-0.3-0.8-0.9-0.8-1.4      C22.6,29.2,23,29,23.4,29.3z"
             id="path333" /></g><polygon
           class="st18"
           points="26.2,32.4 25.2,31.9 25.3,30.9 26.2,31.4    "
           id="polygon335" /></g></g></g></svg>