<?xml version="1.0" encoding="UTF-8" standalone="no"?>
<!-- Generator: Adobe Illustrator 21.0.2, SVG Export Plug-In . SVG Version: 6.00 Build 0)  -->

<svg
   xmlns:dc="http://purl.org/dc/elements/1.1/"
   xmlns:cc="http://creativecommons.org/ns#"
   xmlns:rdf="http://www.w3.org/1999/02/22-rdf-syntax-ns#"
   xmlns:svg="http://www.w3.org/2000/svg"
   xmlns="http://www.w3.org/2000/svg"
   xmlns:sodipodi="http://sodipodi.sourceforge.net/DTD/sodipodi-0.dtd"
   xmlns:inkscape="http://www.inkscape.org/namespaces/inkscape"
   version="1.1"
   x="0px"
   y="0px"
   viewBox="0 0 35.4 30.9"
   style="enable-background:new 0 0 35.4 30.9;"
   xml:space="preserve"
   id="svg2"
   inkscape:version="0.91 r13725"
   sodipodi:docname="3d-huisje.svg"><metadata
     id="metadata100"><rdf:RDF><cc:Work
         rdf:about=""><dc:format>image/svg+xml</dc:format><dc:type
           rdf:resource="http://purl.org/dc/dcmitype/StillImage" /></cc:Work></rdf:RDF></metadata><defs
     id="defs98" /><sodipodi:namedview
     pagecolor="#ffffff"
     bordercolor="#666666"
     borderopacity="1"
     objecttolerance="10"
     gridtolerance="10"
     guidetolerance="10"
     inkscape:pageopacity="0"
     inkscape:pageshadow="2"
     inkscape:window-width="1366"
     inkscape:window-height="812"
     id="namedview96"
     showgrid="false"
     inkscape:zoom="7.6375405"
     inkscape:cx="17.961865"
     inkscape:cy="14.206144"
     inkscape:window-x="0"
     inkscape:window-y="27"
     inkscape:window-maximized="0"
     inkscape:current-layer="svg2" /><style
     type="text/css"
     id="style4">
	.st0{display:none;}
	.st1{display:inline;fill:#C6DE9B;}
	.st2{display:inline;}
	.st3{fill:#91C042;}
	.st4{fill:none;}
	.st5{fill:#C4CC6E;}
	.st6{fill:#D6D4D2;}
	.st7{fill:none;stroke:#D6D4D2;stroke-width:0;stroke-linecap:round;stroke-linejoin:round;}
	.st8{fill:#9FC261;}
	.st9{enable-background:new    ;}
	.st10{clip-path:url(#SVGID_2_);}
	.st11{fill:#93C142;}
	.st12{fill:#7AAE2E;}
	.st13{fill:#47840C;}
	.st14{display:inline;fill:#93C142;}
	.st15{display:inline;opacity:0.4;}
	.st16{fill-rule:evenodd;clip-rule:evenodd;fill:#EDE2D2;}
	.st17{fill-rule:evenodd;clip-rule:evenodd;fill:#A58F69;}
	.st18{fill-rule:evenodd;clip-rule:evenodd;fill:#EC7F2C;}
	.st19{fill-rule:evenodd;clip-rule:evenodd;fill:#BC3E26;}
	.st20{fill-rule:evenodd;clip-rule:evenodd;fill:#F37937;}
	.st21{fill:#EC7F2C;}
	.st22{fill-rule:evenodd;clip-rule:evenodd;fill:#F58536;}
	.st23{fill:#EDE2D2;}
	.st24{fill:#A58F69;}
	.st25{clip-path:url(#SVGID_4_);}
	.st26{fill:#18969A;}
	.st27{fill:#D54728;}
	.st28{fill:#45B549;}
	.st29{fill:#EB7F2C;}
	.st30{fill:#FCCF22;}
	.st31{fill:#91C741;}
	.st32{fill:#ECE1D1;}
	.st33{fill:#BC3E26;}
	.st34{fill:#FFFFFF;}
	.st35{fill:#FDD023;}
	.st36{fill:url(#SVGID_5_);}
	.st37{fill:url(#SVGID_6_);}
	.st38{fill:url(#SVGID_7_);}
	.st39{fill:url(#SVGID_8_);}
	.st40{fill:url(#SVGID_9_);}
	.st41{fill:url(#SVGID_10_);}
	.st42{fill:url(#SVGID_11_);}
	.st43{fill:url(#SVGID_12_);}
	.st44{fill:url(#SVGID_13_);}
	.st45{fill:url(#SVGID_14_);}
	.st46{clip-path:url(#SVGID_16_);}
	.st47{clip-path:url(#SVGID_16_);fill:#EDE2D2;stroke:#18969A;stroke-width:1.508;stroke-miterlimit:10;}
	.st48{clip-path:url(#SVGID_16_);fill:#EDE2D2;stroke:#18969A;stroke-width:0.8003;stroke-miterlimit:10;}
	.st49{clip-path:url(#SVGID_16_);fill:#EDE2D2;stroke:#18969A;stroke-miterlimit:10;}
	.st50{clip-path:url(#SVGID_18_);}
	.st51{fill:#484C45;}
	.st52{fill:#C8BFB2;}
	.st53{fill:#898279;}
	.st54{fill:#C8BFB1;}
	.st55{fill:#B7AFA2;}
	.st56{fill:#5B9541;}
	.st57{fill:none;stroke:#5B9541;stroke-width:0.1062;stroke-linecap:round;stroke-linejoin:round;}
	.st58{fill:#29551E;}
	.st59{fill:#B5221C;}
	.st60{fill:#DD2B26;}
	.st61{fill:#4C0000;}
	.st62{fill:#B3AD7C;}
	.st63{fill:#2A0F0F;}
	.st64{fill-rule:evenodd;clip-rule:evenodd;fill:#820F06;}
	.st65{fill:#434244;}
	.st66{fill:#141415;}
	.st67{fill:#8C8B8B;}
	.st68{fill:#AEAEAF;}
	.st69{fill:#00406D;}
	.st70{fill:#0075A7;}
	.st71{fill:none;stroke:#00406D;stroke-width:1.1131;stroke-linecap:round;stroke-linejoin:round;}
	.st72{opacity:0.5;}
	.st73{clip-path:url(#SVGID_22_);fill:#00628A;}
	.st74{fill:#F8C611;}
	.st75{fill:#00628D;}
	.st76{fill:none;stroke:#7D000B;stroke-width:0.2051;}
	.st77{fill:none;stroke:#E4E416;stroke-width:0.2051;}
	.st78{fill:#582906;}
	.st79{fill-rule:evenodd;clip-rule:evenodd;fill:#81431F;}
	.st80{fill:#81431F;}
	.st81{fill-rule:evenodd;clip-rule:evenodd;fill:#FFFFFF;}
	.st82{fill-rule:evenodd;clip-rule:evenodd;fill:#5B9541;}
	.st83{fill:none;stroke:#5B9541;stroke-width:8.209600e-02;stroke-linecap:round;stroke-linejoin:round;}
	.st84{fill:#573A3B;}
	.st85{fill:#E6BD11;}
	.st86{fill:#FACC10;}
	.st87{opacity:0.7;}
	.st88{clip-path:url(#SVGID_32_);fill:#878F89;}
	.st89{fill:#A45C2C;}
	.st90{fill:#42292A;}
	.st91{fill:#7ACDD5;}
	.st92{opacity:0.9;}
	.st93{clip-path:url(#SVGID_34_);fill:#FFFDF6;}
	.st94{clip-path:url(#SVGID_36_);fill:#A7A78A;}
	.st95{fill:#A2A29A;}
	.st96{fill:#BBBAB2;}
	.st97{fill:#A9A89C;}
	.st98{fill:#6B6362;}
	.st99{fill:#E74025;}
	.st100{fill:#BE341C;}
	.st101{fill:#410A00;}
	.st102{fill:#6DBD45;}
	.st103{fill:#423D30;}
	.st104{fill:#5E5747;}
	.st105{fill:#A9231E;}
	.st106{fill:#5D2C0A;}
	.st107{fill:#861710;}
	.st108{fill:#9C4B71;}
	.st109{fill:#DC5B80;}
	.st110{fill:#CAC5A3;}
	.st111{fill:#6B4315;}
	.st112{fill:#8A5824;}
	.st113{fill:#08B3D5;}
	.st114{fill:#C5C7CE;}
	.st115{fill:#AAADB3;}
	.st116{fill:#CACECC;}
	.st117{fill-rule:evenodd;clip-rule:evenodd;fill:#E74025;}
	.st118{fill:#E5E6E5;}
	.st119{fill:#DFF0F1;stroke:#18969A;stroke-miterlimit:10;}
	.st120{fill:#EBEDCA;}
	.st121{fill:#90160E;}
</style><g
     id="Layer_11"><g
       id="g35"><g
         id="g37"><path
           class="st23"
           d="M17.3,12C7.8,12,0,16.3,0,21.4c0,5.2,7.8,9.4,17.4,9.4c5.1,0,9.7-1.2,12.9-3.2l-11.8,0.9     C18.5,28.7,17.9,20.2,17.3,12z"
           id="path39" /><path
           class="st24"
           d="M34.7,21.4c0-5.2-7.8-9.4-17.4-9.4c0,0-0.1,0-0.1,0c0.6,8.2,1.3,16.7,1.3,16.7l11.8-0.9     C33.1,26.1,34.7,23.9,34.7,21.4z"
           id="path41" /></g><g
         id="g43"><polygon
           class="st23"
           points="24.9,0.2 27,0 10.1,9.7 1.7,10.7 15.5,2.7 15.5,2.7 15.7,2.5 16,2.4 16.1,2.4 16.6,2.1 17.1,1.8      17.5,1.6 17.7,1.4 18.3,1.1 18.5,0.9 18.8,0.9 19.3,0.9 19.7,0.8 19.8,0.8 19.9,0.8 20,0.8 21.3,0.6    "
           id="polygon45" /><polygon
           class="st21"
           points="27,0 31.8,6.1 34.7,9.8 35.4,10.7 18.5,20.4 10.1,9.7    "
           id="polygon47" /><polygon
           class="st21"
           points="10.1,9.7 18.5,20.4 18.5,21.4 10.1,10.8 3.5,11.5 1.7,11.7 1.7,10.7    "
           id="polygon49" /><polygon
           class="st33"
           points="35.4,11.7 33.6,12.7 28.6,15.6 24.2,18.2 24,18.3 18.5,21.4 18.5,20.4 35.4,10.7    "
           id="polygon51" /><polygon
           class="st21"
           points="33.6,20 18.5,28.7 18.5,21.4 24,18.3 24,23.5 24.3,23.6 28.7,21.1 28.7,15.7 28.6,15.6 33.6,12.7         "
           id="polygon53" /><polygon
           class="st35"
           points="10.1,10.8 18.5,21.4 18.5,28.7 14,26.1 13.1,25.5 13.1,17.9 8.9,15.5 8.7,15.6 8.7,23 8,22.6      3.5,20 3.5,11.5    "
           id="polygon55" /><polygon
           class="st33"
           points="24.2,18.2 28.6,15.6 28.7,15.7 24.3,18.2    "
           id="polygon57" /><polygon
           class="st21"
           points="8.7,23.2 8.7,23 8.7,15.6 12.9,18 12.9,25.7 12.3,25.3 12.3,25.1 12.3,18.4 9.5,16.7 9.3,16.6      9.3,23.6    "
           id="polygon59" /><polygon
           class="st33"
           points="8.9,15.5 13.1,17.9 12.9,18 8.7,15.6    "
           id="polygon61" /><polygon
           class="st33"
           points="13.1,17.9 13.1,25.5 12.9,25.7 12.9,18    "
           id="polygon63" /><polygon
           class="st35"
           points="24,23.5 24,18.3 24.2,18.2 24.3,18.2 24.3,23.6    "
           id="polygon65" /><polygon
           class="st33"
           points="9.3,16.6 9.5,16.7 9.5,23.5 9.3,23.6    "
           id="polygon67" /><polygon
           class="st21"
           points="9.5,23.5 9.5,16.7 12.3,18.4 12.3,25.1    "
           id="polygon69" /><path
           class="st21"
           d="M28.7,21.1l-4.4,2.5v-5.4l4.4-2.5V21.1z M24.9,20.1v0.3v1.7v0.2v0.3l3.2-1.8v-4l-0.3,0.2L27.7,17l-1.3,0.8     l-0.3,0.2l-1.1,0.7V20.1z"
           id="path71" /><path
           class="st33"
           d="M27.8,16.9v3.7l-2.9,1.6v-0.2l1.1-0.7v-1.7l-1.1,0.7v-0.3l1.1-0.7v-1.5l0.3-0.2v1.5l1.3-0.7V17L27.8,16.9z      M27.7,20.5v-1.7l-1.3,0.8v1.7L27.7,20.5z"
           id="path73" /><polygon
           class="st35"
           points="27.8,20.6 27.8,16.9 28.1,16.7 28.1,20.8    "
           id="polygon75" /><polygon
           class="st35"
           points="24.9,22.3 27.8,20.6 28.1,20.8 24.9,22.6    "
           id="polygon77" /><polygon
           class="st35"
           points="26.1,19.4 24.9,20.1 24.9,18.6 26.1,17.9    "
           id="polygon79" /><polygon
           class="st35"
           points="26.4,19.3 26.4,17.8 27.7,17 27.7,18.5    "
           id="polygon81" /><polygon
           class="st35"
           points="26.1,19.7 26.1,21.4 24.9,22.1 24.9,20.4    "
           id="polygon83" /><polygon
           class="st35"
           points="27.7,18.8 27.7,20.5 26.4,21.3 26.4,19.6    "
           id="polygon85" /></g></g></g></svg>