<?xml version="1.0" encoding="UTF-8" standalone="no"?>
<!-- Generator: Adobe Illustrator 21.0.2, SVG Export Plug-In . SVG Version: 6.00 Build 0)  -->

<svg
   xmlns:dc="http://purl.org/dc/elements/1.1/"
   xmlns:cc="http://creativecommons.org/ns#"
   xmlns:rdf="http://www.w3.org/1999/02/22-rdf-syntax-ns#"
   xmlns:svg="http://www.w3.org/2000/svg"
   xmlns="http://www.w3.org/2000/svg"
   xmlns:sodipodi="http://sodipodi.sourceforge.net/DTD/sodipodi-0.dtd"
   xmlns:inkscape="http://www.inkscape.org/namespaces/inkscape"
   version="1.1"
   x="0px"
   y="0px"
   viewBox="0 0 25.7 23.9"
   style="enable-background:new 0 0 25.7 23.9;"
   xml:space="preserve"
   id="svg2"
   inkscape:version="0.91 r13725"
   sodipodi:docname="3d-kabine.svg"><metadata
     id="metadata152"><rdf:RDF><cc:Work
         rdf:about=""><dc:format>image/svg+xml</dc:format><dc:type
           rdf:resource="http://purl.org/dc/dcmitype/StillImage" /></cc:Work></rdf:RDF></metadata><defs
     id="defs150" /><sodipodi:namedview
     pagecolor="#ffffff"
     bordercolor="#666666"
     borderopacity="1"
     objecttolerance="10"
     gridtolerance="10"
     guidetolerance="10"
     inkscape:pageopacity="0"
     inkscape:pageshadow="2"
     inkscape:window-width="1395"
     inkscape:window-height="860"
     id="namedview148"
     showgrid="false"
     inkscape:zoom="9.8744771"
     inkscape:cx="13.052543"
     inkscape:cy="10.785381"
     inkscape:window-x="0"
     inkscape:window-y="27"
     inkscape:window-maximized="0"
     inkscape:current-layer="svg2" /><style
     type="text/css"
     id="style4">
	.st0{display:none;}
	.st1{display:inline;fill:#C6DE9B;}
	.st2{display:inline;}
	.st3{fill:#91C042;}
	.st4{fill:none;}
	.st5{fill:#C4CC6E;}
	.st6{fill:#D6D4D2;}
	.st7{fill:none;stroke:#D6D4D2;stroke-width:0;stroke-linecap:round;stroke-linejoin:round;}
	.st8{fill:#9FC261;}
	.st9{enable-background:new    ;}
	.st10{clip-path:url(#SVGID_2_);}
	.st11{fill:#93C142;}
	.st12{fill:#7AAE2E;}
	.st13{fill:#47840C;}
	.st14{display:inline;fill:#93C142;}
	.st15{display:inline;opacity:0.4;}
	.st16{fill-rule:evenodd;clip-rule:evenodd;fill:#EDE2D2;}
	.st17{fill-rule:evenodd;clip-rule:evenodd;fill:#A58F69;}
	.st18{fill-rule:evenodd;clip-rule:evenodd;fill:#EC7F2C;}
	.st19{fill-rule:evenodd;clip-rule:evenodd;fill:#BC3E26;}
	.st20{fill-rule:evenodd;clip-rule:evenodd;fill:#F37937;}
	.st21{fill:#EC7F2C;}
	.st22{fill-rule:evenodd;clip-rule:evenodd;fill:#F58536;}
	.st23{fill:#EDE2D2;}
	.st24{fill:#A58F69;}
	.st25{clip-path:url(#SVGID_4_);}
	.st26{fill:#18969A;}
	.st27{fill:#D54728;}
	.st28{fill:#45B549;}
	.st29{fill:#EB7F2C;}
	.st30{fill:#FCCF22;}
	.st31{fill:#91C741;}
	.st32{fill:#ECE1D1;}
	.st33{fill:#BC3E26;}
	.st34{fill:#FFFFFF;}
	.st35{fill:#FDD023;}
	.st36{fill:url(#SVGID_5_);}
	.st37{fill:url(#SVGID_6_);}
	.st38{fill:url(#SVGID_7_);}
	.st39{fill:url(#SVGID_8_);}
	.st40{fill:url(#SVGID_9_);}
	.st41{fill:url(#SVGID_10_);}
	.st42{fill:url(#SVGID_11_);}
	.st43{fill:url(#SVGID_12_);}
	.st44{fill:url(#SVGID_13_);}
	.st45{fill:url(#SVGID_14_);}
	.st46{clip-path:url(#SVGID_16_);}
	.st47{clip-path:url(#SVGID_16_);fill:#EDE2D2;stroke:#18969A;stroke-width:1.508;stroke-miterlimit:10;}
	.st48{clip-path:url(#SVGID_16_);fill:#EDE2D2;stroke:#18969A;stroke-width:0.8003;stroke-miterlimit:10;}
	.st49{clip-path:url(#SVGID_16_);fill:#EDE2D2;stroke:#18969A;stroke-miterlimit:10;}
	.st50{clip-path:url(#SVGID_18_);}
	.st51{fill:#484C45;}
	.st52{fill:#C8BFB2;}
	.st53{fill:#898279;}
	.st54{fill:#C8BFB1;}
	.st55{fill:#B7AFA2;}
	.st56{fill:#5B9541;}
	.st57{fill:none;stroke:#5B9541;stroke-width:0.1062;stroke-linecap:round;stroke-linejoin:round;}
	.st58{fill:#29551E;}
	.st59{fill:#B5221C;}
	.st60{fill:#DD2B26;}
	.st61{fill:#4C0000;}
	.st62{fill:#B3AD7C;}
	.st63{fill:#2A0F0F;}
	.st64{fill-rule:evenodd;clip-rule:evenodd;fill:#820F06;}
	.st65{fill:#434244;}
	.st66{fill:#141415;}
	.st67{fill:#8C8B8B;}
	.st68{fill:#AEAEAF;}
	.st69{fill:#00406D;}
	.st70{fill:#0075A7;}
	.st71{fill:none;stroke:#00406D;stroke-width:1.1131;stroke-linecap:round;stroke-linejoin:round;}
	.st72{opacity:0.5;}
	.st73{clip-path:url(#SVGID_22_);fill:#00628A;}
	.st74{fill:#F8C611;}
	.st75{fill:#00628D;}
	.st76{fill:none;stroke:#7D000B;stroke-width:0.2051;}
	.st77{fill:none;stroke:#E4E416;stroke-width:0.2051;}
	.st78{fill:#582906;}
	.st79{fill-rule:evenodd;clip-rule:evenodd;fill:#81431F;}
	.st80{fill:#81431F;}
	.st81{fill-rule:evenodd;clip-rule:evenodd;fill:#FFFFFF;}
	.st82{fill-rule:evenodd;clip-rule:evenodd;fill:#5B9541;}
	.st83{fill:none;stroke:#5B9541;stroke-width:8.209600e-02;stroke-linecap:round;stroke-linejoin:round;}
	.st84{fill:#573A3B;}
	.st85{fill:#E6BD11;}
	.st86{fill:#FACC10;}
	.st87{opacity:0.7;}
	.st88{clip-path:url(#SVGID_32_);fill:#878F89;}
	.st89{fill:#A45C2C;}
	.st90{fill:#42292A;}
	.st91{fill:#7ACDD5;}
	.st92{opacity:0.9;}
	.st93{clip-path:url(#SVGID_34_);fill:#FFFDF6;}
	.st94{clip-path:url(#SVGID_36_);fill:#A7A78A;}
	.st95{fill:#A2A29A;}
	.st96{fill:#BBBAB2;}
	.st97{fill:#A9A89C;}
	.st98{fill:#6B6362;}
	.st99{fill:#E74025;}
	.st100{fill:#BE341C;}
	.st101{fill:#410A00;}
	.st102{fill:#6DBD45;}
	.st103{fill:#423D30;}
	.st104{fill:#5E5747;}
	.st105{fill:#A9231E;}
	.st106{fill:#5D2C0A;}
	.st107{fill:#861710;}
	.st108{fill:#9C4B71;}
	.st109{fill:#DC5B80;}
	.st110{fill:#CAC5A3;}
	.st111{fill:#6B4315;}
	.st112{fill:#8A5824;}
	.st113{fill:#08B3D5;}
	.st114{fill:#C5C7CE;}
	.st115{fill:#AAADB3;}
	.st116{fill:#CACECC;}
	.st117{fill-rule:evenodd;clip-rule:evenodd;fill:#E74025;}
	.st118{fill:#E5E6E5;}
	.st119{fill:#DFF0F1;stroke:#18969A;stroke-miterlimit:10;}
	.st120{fill:#EBEDCA;}
	.st121{fill:#90160E;}
</style><g
     id="Layer_11"><g
       id="g31"><g
         id="g33"><path
           class="st24"
           d="M17.5,10.4c-2,1.2-3.4,2-3.5,2.1c-0.3,0.2-3.1,6.7-3.1,6.7l14.7-1c0.1-0.4,0.2-0.8,0.2-1.2     C25.7,13.9,22.3,11.4,17.5,10.4z"
           id="path35" /><g
           id="g37"><path
             class="st23"
             d="M12.6,21.9l-1.4-6.1l1.4-0.4c0.7-1.5,1.4-2.9,1.5-3c0.1-0.1,1.5-0.9,3.5-2.1c-1.4-0.3-3-0.5-4.6-0.5      c0,0,0,0-0.1,0C5.7,9.9,0,13.1,0,16.9c0,3.9,5.8,7,12.9,7c3.8,0,7.2-0.9,9.6-2.3c1.3-0.8,2.3-1.7,2.8-2.8L12.6,21.9z"
             id="path39" /><path
             class="st24"
             d="M12.6,21.9l12.7-3.2c0.1-0.2,0.2-0.4,0.3-0.6l-14.7,1c0,0,0.9-1.9,1.7-3.7l-1.4,0.4L12.6,21.9z"
             id="path41" /></g></g><g
         id="g43"><g
           class="st9"
           id="g45"><g
             id="g47"><polygon
               class="st51"
               points="12.7,21.4 21.6,16.2 21.6,16.8 12.7,22      "
               id="polygon49" /></g><g
             id="g51"><polygon
               class="st26"
               points="2,15.2 10.9,10.1 21.6,16.2 12.7,21.4      "
               id="polygon53" /></g><g
             id="g55"><polygon
               class="st51"
               points="12.7,21.4 12.7,22 2,15.8 2,15.2      "
               id="polygon57" /></g></g></g><g
         id="g59"><g
           id="g61"><g
             id="g63"><g
               class="st9"
               id="g65"><g
                 id="g67"><polygon
                   class="st52"
                   points="19.5,3.9 20.1,3.5 11,0.2 10.4,0.5        "
                   id="polygon69" /></g><g
                 id="g71"><polygon
                   class="st23"
                   points="18.3,15 18.9,14.7 20.1,3.5 19.5,3.9        "
                   id="polygon73" /></g><g
                 id="g75"><polygon
                   class="st24"
                   points="19.5,3.9 10.4,0.5 10.4,10.4 18.3,15        "
                   id="polygon77" /></g></g></g><g
             id="g79"><g
               class="st9"
               id="g81"><g
                 id="g83"><polygon
                   class="st53"
                   points="2.3,5.7 10.7,0.7 10.7,0.4 2.2,5.3        "
                   id="polygon85" /></g><g
                 id="g87"><polygon
                   class="st54"
                   points="10,8.5 18.4,3.6 10.7,0.7 2.3,5.7        "
                   id="polygon89" /></g><g
                 id="g91"><polygon
                   class="st23"
                   points="9.9,19.6 18.3,14.7 18.4,3.6 10,8.5        "
                   id="polygon93" /></g><g
                 id="g95"><polygon
                   class="st55"
                   points="10,8.5 2.3,5.7 2.2,5.3 2.2,15.2 9.9,19.6        "
                   id="polygon97" /></g><g
                 id="g99"><polygon
                   class="st54"
                   points="12.5,8.7 20.9,3.8 10.6,0 2.2,4.9        "
                   id="polygon101" /></g><g
                 id="g103"><polygon
                   class="st53"
                   points="12.6,9.5 21,4.6 20.9,3.8 12.5,8.7        "
                   id="polygon105" /></g><g
                 id="g107"><polygon
                   class="st55"
                   points="12.5,8.7 2.2,4.9 2.2,5.3 2.3,5.7 10,8.5 12.6,9.5        "
                   id="polygon109" /></g></g></g><g
             id="g111"><g
               class="st9"
               id="g113"><g
                 id="g115"><polygon
                   class="st52"
                   points="11.1,8.7 11.8,8.3 2.6,4.9 2,5.3        "
                   id="polygon117" /></g><g
                 id="g119"><polygon
                   class="st23"
                   points="10,19.8 10.6,19.4 11.8,8.3 11.1,8.7        "
                   id="polygon121" /></g><g
                 id="g123"><polygon
                   class="st24"
                   points="11.1,8.7 2,5.3 2,15.2 10,19.8        "
                   id="polygon125" /></g></g></g></g><g
           id="g127"><polygon
             class="st23"
             points="12.5,8.7 20.9,3.8 10.6,0 2.2,4.9     "
             id="polygon129" /></g><g
           id="g131"><polygon
             class="st23"
             points="12.6,9.5 21,4.6 20.9,3.8 12.5,8.7     "
             id="polygon133" /></g><g
           id="g135"><polygon
             class="st24"
             points="12.5,8.7 2.2,4.9 2.2,5.3 2.3,5.7 10,8.5 12.6,9.5     "
             id="polygon137" /></g></g></g></g></svg>