<?xml version="1.0" encoding="UTF-8" standalone="no"?>
<!-- Generator: Adobe Illustrator 21.0.2, SVG Export Plug-In . SVG Version: 6.00 Build 0)  -->

<svg
   xmlns:dc="http://purl.org/dc/elements/1.1/"
   xmlns:cc="http://creativecommons.org/ns#"
   xmlns:rdf="http://www.w3.org/1999/02/22-rdf-syntax-ns#"
   xmlns:svg="http://www.w3.org/2000/svg"
   xmlns="http://www.w3.org/2000/svg"
   xmlns:sodipodi="http://sodipodi.sourceforge.net/DTD/sodipodi-0.dtd"
   xmlns:inkscape="http://www.inkscape.org/namespaces/inkscape"
   version="1.1"
   x="0px"
   y="0px"
   viewBox="0 0 34.7 24.8"
   style="enable-background:new 0 0 34.7 24.8;"
   xml:space="preserve"
   id="svg2"
   inkscape:version="0.91 r13725"
   sodipodi:docname="3d-tent.svg"><metadata
     id="metadata134"><rdf:RDF><cc:Work
         rdf:about=""><dc:format>image/svg+xml</dc:format><dc:type
           rdf:resource="http://purl.org/dc/dcmitype/StillImage" /></cc:Work></rdf:RDF></metadata><defs
     id="defs132" /><sodipodi:namedview
     pagecolor="#ffffff"
     bordercolor="#666666"
     borderopacity="1"
     objecttolerance="10"
     gridtolerance="10"
     guidetolerance="10"
     inkscape:pageopacity="0"
     inkscape:pageshadow="2"
     inkscape:window-width="1448"
     inkscape:window-height="776"
     id="namedview130"
     showgrid="false"
     inkscape:zoom="9.106628"
     inkscape:cx="17.35"
     inkscape:cy="11.356803"
     inkscape:window-x="0"
     inkscape:window-y="27"
     inkscape:window-maximized="0"
     inkscape:current-layer="svg2" /><style
     type="text/css"
     id="style4">
	.st0{display:none;}
	.st1{display:inline;fill:#C6DE9B;}
	.st2{display:inline;}
	.st3{fill:#91C042;}
	.st4{fill:none;}
	.st5{fill:#C4CC6E;}
	.st6{fill:#D6D4D2;}
	.st7{fill:none;stroke:#D6D4D2;stroke-width:0;stroke-linecap:round;stroke-linejoin:round;}
	.st8{fill:#9FC261;}
	.st9{enable-background:new    ;}
	.st10{clip-path:url(#SVGID_2_);}
	.st11{fill:#93C142;}
	.st12{fill:#7AAE2E;}
	.st13{fill:#47840C;}
	.st14{display:inline;fill:#93C142;}
	.st15{display:inline;opacity:0.4;}
	.st16{fill-rule:evenodd;clip-rule:evenodd;fill:#EDE2D2;}
	.st17{fill-rule:evenodd;clip-rule:evenodd;fill:#A58F69;}
	.st18{fill-rule:evenodd;clip-rule:evenodd;fill:#EC7F2C;}
	.st19{fill-rule:evenodd;clip-rule:evenodd;fill:#BC3E26;}
	.st20{fill-rule:evenodd;clip-rule:evenodd;fill:#F37937;}
	.st21{fill:#EC7F2C;}
	.st22{fill-rule:evenodd;clip-rule:evenodd;fill:#F58536;}
	.st23{fill:#EDE2D2;}
	.st24{fill:#A58F69;}
	.st25{clip-path:url(#SVGID_4_);}
	.st26{fill:#18969A;}
	.st27{fill:#D54728;}
	.st28{fill:#45B549;}
	.st29{fill:#EB7F2C;}
	.st30{fill:#FCCF22;}
	.st31{fill:#91C741;}
	.st32{fill:#ECE1D1;}
	.st33{fill:#BC3E26;}
	.st34{fill:#FFFFFF;}
	.st35{fill:#FDD023;}
	.st36{fill:url(#SVGID_5_);}
	.st37{fill:url(#SVGID_6_);}
	.st38{fill:url(#SVGID_7_);}
	.st39{fill:url(#SVGID_8_);}
	.st40{fill:url(#SVGID_9_);}
	.st41{fill:url(#SVGID_10_);}
	.st42{fill:url(#SVGID_11_);}
	.st43{fill:url(#SVGID_12_);}
	.st44{fill:url(#SVGID_13_);}
	.st45{fill:url(#SVGID_14_);}
	.st46{clip-path:url(#SVGID_16_);}
	.st47{clip-path:url(#SVGID_16_);fill:#EDE2D2;stroke:#18969A;stroke-width:1.508;stroke-miterlimit:10;}
	.st48{clip-path:url(#SVGID_16_);fill:#EDE2D2;stroke:#18969A;stroke-width:0.8003;stroke-miterlimit:10;}
	.st49{clip-path:url(#SVGID_16_);fill:#EDE2D2;stroke:#18969A;stroke-miterlimit:10;}
	.st50{clip-path:url(#SVGID_18_);}
	.st51{fill:#484C45;}
	.st52{fill:#C8BFB2;}
	.st53{fill:#898279;}
	.st54{fill:#C8BFB1;}
	.st55{fill:#B7AFA2;}
	.st56{fill:#5B9541;}
	.st57{fill:none;stroke:#5B9541;stroke-width:0.1062;stroke-linecap:round;stroke-linejoin:round;}
	.st58{fill:#29551E;}
	.st59{fill:#B5221C;}
	.st60{fill:#DD2B26;}
	.st61{fill:#4C0000;}
	.st62{fill:#B3AD7C;}
	.st63{fill:#2A0F0F;}
	.st64{fill-rule:evenodd;clip-rule:evenodd;fill:#820F06;}
	.st65{fill:#434244;}
	.st66{fill:#141415;}
	.st67{fill:#8C8B8B;}
	.st68{fill:#AEAEAF;}
	.st69{fill:#00406D;}
	.st70{fill:#0075A7;}
	.st71{fill:none;stroke:#00406D;stroke-width:1.1131;stroke-linecap:round;stroke-linejoin:round;}
	.st72{opacity:0.5;}
	.st73{clip-path:url(#SVGID_22_);fill:#00628A;}
	.st74{fill:#F8C611;}
	.st75{fill:#00628D;}
	.st76{fill:none;stroke:#7D000B;stroke-width:0.2051;}
	.st77{fill:none;stroke:#E4E416;stroke-width:0.2051;}
	.st78{fill:#582906;}
	.st79{fill-rule:evenodd;clip-rule:evenodd;fill:#81431F;}
	.st80{fill:#81431F;}
	.st81{fill-rule:evenodd;clip-rule:evenodd;fill:#FFFFFF;}
	.st82{fill-rule:evenodd;clip-rule:evenodd;fill:#5B9541;}
	.st83{fill:none;stroke:#5B9541;stroke-width:8.209600e-02;stroke-linecap:round;stroke-linejoin:round;}
	.st84{fill:#573A3B;}
	.st85{fill:#E6BD11;}
	.st86{fill:#FACC10;}
	.st87{opacity:0.7;}
	.st88{clip-path:url(#SVGID_32_);fill:#878F89;}
	.st89{fill:#A45C2C;}
	.st90{fill:#42292A;}
	.st91{fill:#7ACDD5;}
	.st92{opacity:0.9;}
	.st93{clip-path:url(#SVGID_34_);fill:#FFFDF6;}
	.st94{clip-path:url(#SVGID_36_);fill:#A7A78A;}
	.st95{fill:#A2A29A;}
	.st96{fill:#BBBAB2;}
	.st97{fill:#A9A89C;}
	.st98{fill:#6B6362;}
	.st99{fill:#E74025;}
	.st100{fill:#BE341C;}
	.st101{fill:#410A00;}
	.st102{fill:#6DBD45;}
	.st103{fill:#423D30;}
	.st104{fill:#5E5747;}
	.st105{fill:#A9231E;}
	.st106{fill:#5D2C0A;}
	.st107{fill:#861710;}
	.st108{fill:#9C4B71;}
	.st109{fill:#DC5B80;}
	.st110{fill:#CAC5A3;}
	.st111{fill:#6B4315;}
	.st112{fill:#8A5824;}
	.st113{fill:#08B3D5;}
	.st114{fill:#C5C7CE;}
	.st115{fill:#AAADB3;}
	.st116{fill:#CACECC;}
	.st117{fill-rule:evenodd;clip-rule:evenodd;fill:#E74025;}
	.st118{fill:#E5E6E5;}
	.st119{fill:#DFF0F1;stroke:#18969A;stroke-miterlimit:10;}
	.st120{fill:#EBEDCA;}
	.st121{fill:#90160E;}
</style><g
     id="Layer_11"><g
       id="g31"><path
         class="st16"
         d="M17.4,24.8c9.6,0,17.4-4.2,17.4-9.4c0-5.2-7.8-9.4-17.4-9.4C7.8,6,0,10.2,0,15.4C0,20.6,7.8,24.8,17.4,24.8z    "
         id="path33" /><path
         class="st17"
         d="M17.6,21.6l-2.2,0l-4.7-2.7l-4.7-2.7l13.6-7.8h0l1.1-0.7l0.4,0.1l0.4,0.1L22.2,8l0.4,0.1l0.4,0.1l0.4,0.1    L24,8.4l0.4,0.1l0.4,0.1l0.4,0.1l0.4,0.1l0.4,0.1L26.7,9l0.4,0.1l0.4,0.1L28,9.3l0.4,0.1l0.4,0.1l0.4,0.1l0.4,0.1l0.4,0.1l0.4,0.1    l0.4,0.1l0.4,0.1l0.2,0c0.8,0.6,1.4,1.3,1.9,2l-0.1,0.1l-0.2,0.2l-0.2,0.2l-0.2,0.2L32.7,13l-0.2,0.2l-0.2,0.2l-0.2,0.2l-0.2,0.2    L31.6,14l-0.1,0l0.2,0.6h0.1c0,0,0.1,0,0.1,0.1c0,0,0,0.1-0.1,0.1h-1.1c0,0-0.1,0-0.1-0.1c0,0,0-0.1,0.1-0.1h0.9l-0.2-0.5    l-6.7,3.9l0.2,0.7H25c0,0,0.1,0,0.1,0.1c0,0,0,0.1-0.1,0.1h-1.1c0,0-0.1,0-0.1-0.1c0,0,0-0.1,0.1-0.1h0.9L24.6,18L18,21.9l0.2,0.7    h0.1c0,0,0.1,0,0.1,0.1c0,0,0,0.1-0.1,0.1h-1.1c0,0-0.1,0-0.1-0.1c0,0,0-0.1,0.1-0.1H18l-0.2-0.7L17.6,21.6L17.6,21.6L17.6,21.6z     M4.4,15.2h1L7,15.6c0,0,0.1,0,0.1,0c0,0,0-0.1,0-0.1l-1.5-0.4c0,0,0,0-0.1,0H4.4C4.4,15.1,4.4,15.1,4.4,15.2    C4.4,15.2,4.4,15.2,4.4,15.2z"
         id="path35" /><path
         class="st18"
         d="M30.5,14.9c-0.1-0.1-0.1-0.2,0-0.2c0.1-0.1,0.3-0.1,0.4,0c0.1,0.1,0.1,0.2,0,0.2    C30.8,14.9,30.6,14.9,30.5,14.9z"
         id="path37" /><polygon
         class="st18"
         points="15.5,18.5 29,10.7 29,13.8 15.5,21.6   "
         id="polygon39" /><polygon
         class="st19"
         points="5.5,13.9 10.5,8.5 24.3,0.5 19.2,6   "
         id="polygon41" /><polygon
         class="st18"
         points="6.1,13.5 11.5,7.8 16.2,19.4 15.5,18.9 15.5,21.6 6.1,16.2   "
         id="polygon43" /><polygon
         class="st20"
         points="6.1,14.4 11.5,8.6 16.2,19.4 15.5,18.9 15.5,21.6 6.1,16.2   "
         id="polygon45" /><path
         class="st17"
         d="M6.6,14.6v1.1c0,0.2,0.1,0.3,0.2,0.4l7.9,4.6c0.1,0,0.1,0,0.2,0c0.1,0,0.1-0.1,0.1-0.2v-2.4l0.2,0.1    l-3.9-8.9L6.6,14.6z"
         id="path47" /><path
         class="st19"
         d="M6.6,14.6v1.1c0,0.1,0,0.2,0.1,0.2l6.1-3.5L11.6,10L10,10.9L6.6,14.6z"
         id="path49" /><g
         id="g51"><path
           class="st18"
           d="M11.8,19l2.9,1.7c0.1,0,0.1,0,0.2,0c0.1,0,0.1-0.1,0.1-0.2v-2.4l0.2,0.1l-3.7-8.5     C11.5,15.2,11.4,16.4,11.8,19z"
           id="path53" /><path
           class="st18"
           d="M11.8,19l2.9,1.7c0.1,0,0.1,0,0.2,0c0.1,0,0.1-0.1,0.1-0.2v-2.4l0.2,0.1l-3.7-8.5     C11.5,15.2,11.4,16.5,11.8,19z"
           id="path55" /><path
           class="st18"
           d="M11.8,19l2.9,1.7c0.1,0,0.1,0,0.2,0c0.1,0,0.1-0.1,0.1-0.2v-2.4l0.2,0.1l-3.7-8.5     C11.5,15.2,11.4,16.5,11.8,19z"
           id="path57" /><path
           class="st18"
           d="M11.8,19l2.9,1.7c0.1,0,0.1,0,0.2,0c0.1,0,0.1-0.1,0.1-0.2v-2.4l0.2,0.1l-3.7-8.5     C11.5,15.2,11.4,16.5,11.8,19z"
           id="path59" /><path
           class="st18"
           d="M11.9,19l2.9,1.7c0.1,0,0.1,0,0.2,0c0.1,0,0.1-0.1,0.1-0.2v-2.4l0.2,0.1l-3.7-8.5     C11.5,15.2,11.4,16.5,11.9,19z"
           id="path61" /><path
           class="st18"
           d="M11.9,19l2.9,1.7c0.1,0,0.1,0,0.2,0c0.1,0,0.1-0.1,0.1-0.2v-2.4l0.2,0.1l-3.7-8.5     C11.5,15.2,11.4,16.5,11.9,19z"
           id="path63" /><path
           class="st18"
           d="M11.9,19l2.9,1.7c0.1,0,0.1,0,0.2,0c0.1,0,0.1-0.1,0.1-0.2v-2.4l0.2,0.1l-3.7-8.5     C11.5,15.2,11.4,16.5,11.9,19z"
           id="path65" /><path
           class="st18"
           d="M11.9,19l2.9,1.7c0.1,0,0.1,0,0.2,0c0.1,0,0.1-0.1,0.1-0.2v-2.4l0.2,0.1l-3.7-8.5     C11.5,15.2,11.4,16.5,11.9,19z"
           id="path67" /><path
           class="st18"
           d="M11.9,19l2.9,1.7c0.1,0,0.1,0,0.2,0c0.1,0,0.1-0.1,0.1-0.2v-2.4l0.2,0.1l-3.7-8.5     C11.5,15.2,11.4,16.5,11.9,19z"
           id="path69" /><path
           class="st18"
           d="M11.9,19.1l2.8,1.6c0.1,0,0.1,0,0.2,0c0.1,0,0.1-0.1,0.1-0.2v-2.4l0.2,0.1l-3.7-8.5     C11.5,15.2,11.5,16.5,11.9,19.1z"
           id="path71" /><path
           class="st18"
           d="M11.9,19.1l2.8,1.6c0.1,0,0.1,0,0.2,0c0.1,0,0.1-0.1,0.1-0.2v-2.4l0.2,0.1l-3.7-8.5     C11.5,15.2,11.5,16.5,11.9,19.1z"
           id="path73" /><path
           class="st18"
           d="M11.9,19.1l2.8,1.6c0.1,0,0.1,0,0.2,0c0.1,0,0.1-0.1,0.1-0.2v-2.4l0.2,0.1l-3.7-8.5     C11.5,15.2,11.5,16.5,11.9,19.1z"
           id="path75" /><path
           class="st18"
           d="M11.9,19.1l2.8,1.6c0.1,0,0.1,0,0.2,0c0.1,0,0.1-0.1,0.1-0.2v-2.4l0.2,0.1l-3.7-8.5     C11.5,15.2,11.5,16.5,11.9,19.1z"
           id="path77" /><path
           class="st18"
           d="M11.9,19.1l2.8,1.6c0.1,0,0.1,0,0.2,0c0.1,0,0.1-0.1,0.1-0.2v-2.4l0.2,0.1l-3.7-8.5     C11.5,15.2,11.5,16.5,11.9,19.1z"
           id="path79" /><path
           class="st18"
           d="M11.9,19.1l2.8,1.6c0.1,0,0.1,0,0.2,0c0.1,0,0.1-0.1,0.1-0.2v-2.4l0.2,0.1l-3.7-8.5     C11.5,15.2,11.5,16.5,11.9,19.1z"
           id="path81" /><path
           class="st18"
           d="M11.9,19.1l2.8,1.6c0.1,0,0.1,0,0.2,0c0.1,0,0.1-0.1,0.1-0.2v-2.4l0.2,0.1l-3.7-8.5     C11.5,15.2,11.5,16.5,11.9,19.1z"
           id="path83" /><path
           class="st18"
           d="M12,19.1l2.8,1.6c0.1,0,0.1,0,0.2,0c0.1,0,0.1-0.1,0.1-0.2v-2.4l0.2,0.1l-3.7-8.5     C11.5,15.2,11.5,16.5,12,19.1z"
           id="path85" /><path
           class="st18"
           d="M12,19.1l2.8,1.6c0.1,0,0.1,0,0.2,0c0.1,0,0.1-0.1,0.1-0.2v-2.4l0.2,0.1l-3.7-8.5     C11.5,15.2,11.5,16.5,12,19.1z"
           id="path87" /><path
           class="st18"
           d="M12,19.1l2.8,1.6c0.1,0,0.1,0,0.2,0c0.1,0,0.1-0.1,0.1-0.2v-2.4l0.2,0.1l-3.7-8.5     C11.5,15.2,11.5,16.5,12,19.1z"
           id="path89" /><path
           class="st18"
           d="M12,19.1l2.8,1.6c0.1,0,0.1,0,0.2,0c0.1,0,0.1-0.1,0.1-0.2v-2.4l0.2,0.1l-3.7-8.5     C11.5,15.2,11.5,16.5,12,19.1z"
           id="path91" /><path
           class="st18"
           d="M12,19.1l2.8,1.6c0.1,0,0.1,0,0.2,0c0.1,0,0.1-0.1,0.1-0.2v-2.4l0.2,0.1l-3.7-8.5     C11.5,15.2,11.5,16.5,12,19.1z"
           id="path93" /><path
           class="st18"
           d="M12,19.1l2.7,1.6c0.1,0,0.1,0,0.2,0c0.1,0,0.1-0.1,0.1-0.2v-2.4l0.2,0.1l-3.7-8.5     C11.5,15.2,11.6,16.6,12,19.1z"
           id="path95" /></g><path
         class="st19"
         d="M6.6,13.9v1.8c0,0.2,0.1,0.3,0.2,0.4l7.9,4.6c0.1,0,0.1,0,0.2,0c0,0,0,0,0,0c0,0,0,0,0,0L7,16.1    c-0.1-0.1-0.2-0.2-0.2-0.4v-1.8c0-0.1,0-0.2,0.1-0.3l4.5-4.9l3.8,9.5l0,0v0.1l0.1,0.1l-4-9.7l-4.6,5C6.6,13.7,6.6,13.8,6.6,13.9z"
         id="path97" /><polygon
         class="st18"
         points="10.5,7.9 15.9,19.9 29.7,12 24.3,0   "
         id="polygon99" /><path
         class="st18"
         d="M9.6,18.1c0.8-1.1,1.7-4.5,1.8-8c0-0.2,0,0,0-0.2c-0.1,0.1-0.1-0.2-0.2-0.2c-0.2,0.2-0.4,0.4-0.7,0.7    c-1.1,1.2-2.2,2.4-3.4,3.6c-0.1,0.1-0.4,0.2-0.4,0.3c0,0.5,0,0.9,0,1.4c0,0.2,0.1,0.3,0.2,0.4c0.2,0.1,0.8,0.4,1,0.6    C9.1,17.3,9.2,17.5,9.6,18.1z"
         id="path101" /><path
         class="st19"
         d="M9.6,18.1l0.1,0.1c0.6-1.1,1.7-4.3,1.7-8.7C11.4,12.9,10.4,16.7,9.6,18.1z"
         id="path103" /><path
         class="st21"
         d="M23.9,18.7C23.9,18.7,23.8,18.7,23.9,18.7l-0.1-1.2c0,0,0-0.1,0.1-0.1c0,0,0.1,0,0.1,0.1L23.9,18.7    C24,18.7,23.9,18.7,23.9,18.7z"
         id="path105" /><path
         class="st18"
         d="M23.7,18.8c-0.1-0.1-0.1-0.2,0-0.2c0.1-0.1,0.3-0.1,0.4,0c0.1,0.1,0.1,0.2,0,0.2    C24,18.9,23.8,18.9,23.7,18.8z"
         id="path107" /><path
         class="st21"
         d="M23.9,17.9C23.8,17.9,23.8,17.8,23.9,17.9l-1.2-1.8c0,0,0-0.1,0-0.1c0,0,0.1,0,0.1,0L23.9,17.9    C23.9,17.8,23.9,17.8,23.9,17.9C23.9,17.9,23.9,17.9,23.9,17.9z"
         id="path109" /><path
         class="st21"
         d="M30.7,13.9C30.7,13.9,30.7,13.9,30.7,13.9l-1.2-1.8c0,0,0-0.1,0-0.1c0,0,0.1,0,0.1,0L30.7,13.9    C30.8,13.8,30.8,13.9,30.7,13.9C30.7,13.9,30.7,13.9,30.7,13.9z"
         id="path111" /><path
         class="st18"
         d="M29.5,12C29.5,12,29.6,12,29.5,12c0.1,0.1,0,0.2,0,0.2c0,0-0.1,0-0.1-0.1C29.4,12.1,29.4,12,29.5,12z"
         id="path113" /><path
         class="st16"
         d="M13,6.5c1.8,4,3.6,8,5.4,12c0.2-0.1,0.4-0.3,0.7-0.4c-1.8-4-3.6-8-5.4-12C13.4,6.3,13.2,6.4,13,6.5L13,6.5z     M14.6,5.6c0.2-0.1,0.4-0.3,0.7-0.4c1.8,4,3.6,8,5.4,12c-0.2,0.1-0.4,0.3-0.7,0.4C18.2,13.6,16.4,9.6,14.6,5.6L14.6,5.6z     M16.3,4.6c0.2-0.1,0.4-0.3,0.7-0.4c1.8,4,3.6,8,5.4,12c-0.2,0.1-0.4,0.3-0.7,0.4C19.8,12.6,18.1,8.6,16.3,4.6L16.3,4.6z     M17.9,3.7c0.2-0.1,0.4-0.3,0.7-0.4c1.8,4,3.6,8,5.4,12c-0.2,0.1-0.4,0.2-0.7,0.4C21.5,11.7,19.7,7.7,17.9,3.7L17.9,3.7z     M19.5,2.7c1.8,4,3.6,8,5.4,12c0.2-0.1,0.4-0.3,0.7-0.4c-1.8-4-3.6-8-5.4-12C20,2.5,19.8,2.6,19.5,2.7L19.5,2.7z M21.2,1.8    c1.8,4,3.6,8,5.4,12c0.2-0.1,0.4-0.2,0.7-0.4c-1.8-4-3.6-8-5.4-12C21.6,1.5,21.4,1.7,21.2,1.8L21.2,1.8z M22.8,0.8    c1.8,4,3.6,8,5.4,12c0.2-0.1,0.4-0.3,0.7-0.4c-1.8-4-3.6-8-5.4-12C23.2,0.6,23,0.7,22.8,0.8L22.8,0.8z M11.4,7.5L12,7.1l5.4,12    l-0.7,0.4L11.4,7.5z"
         id="path115" /><polygon
         class="st22"
         points="5.2,13.7 10.5,7.9 15.9,19.9 15.6,19.7 10.5,8.5 5.5,13.9   "
         id="polygon117" /><path
         class="st18"
         d="M22.7,15.9C22.7,15.9,22.8,15.9,22.7,15.9c0.1,0.1,0,0.2,0,0.2c0,0-0.1,0-0.1-0.1C22.6,16,22.6,16,22.7,15.9    z"
         id="path119" /></g></g></svg>