<?xml version="1.0" encoding="UTF-8" standalone="no"?>
<!-- Generator: Adobe Illustrator 21.0.2, SVG Export Plug-In . SVG Version: 6.00 Build 0)  -->

<svg
   xmlns:dc="http://purl.org/dc/elements/1.1/"
   xmlns:cc="http://creativecommons.org/ns#"
   xmlns:rdf="http://www.w3.org/1999/02/22-rdf-syntax-ns#"
   xmlns:svg="http://www.w3.org/2000/svg"
   xmlns="http://www.w3.org/2000/svg"
   xmlns:sodipodi="http://sodipodi.sourceforge.net/DTD/sodipodi-0.dtd"
   xmlns:inkscape="http://www.inkscape.org/namespaces/inkscape"
   version="1.1"
   x="0px"
   y="0px"
   viewBox="0 0 22.8 22.8"
   style="enable-background:new 0 0 22.8 22.8;"
   xml:space="preserve"
   id="svg3953"
   inkscape:version="0.91 r13725"
   sodipodi:docname="mark-fiets.svg"><metadata
     id="metadata4065"><rdf:RDF><cc:Work
         rdf:about=""><dc:format>image/svg+xml</dc:format><dc:type
           rdf:resource="http://purl.org/dc/dcmitype/StillImage" /></cc:Work></rdf:RDF></metadata><defs
     id="defs4063" /><sodipodi:namedview
     pagecolor="#ffffff"
     bordercolor="#666666"
     borderopacity="1"
     objecttolerance="10"
     gridtolerance="10"
     guidetolerance="10"
     inkscape:pageopacity="0"
     inkscape:pageshadow="2"
     inkscape:window-width="1445"
     inkscape:window-height="910"
     id="namedview4061"
     showgrid="false"
     inkscape:zoom="10.350878"
     inkscape:cx="-5.4584744"
     inkscape:cy="10.482203"
     inkscape:window-x="0"
     inkscape:window-y="27"
     inkscape:window-maximized="0"
     inkscape:current-layer="svg3953" /><style
     type="text/css"
     id="style3955">
	.st0{display:none;}
	.st1{display:inline;fill:#C6DE9B;}
	.st2{display:inline;}
	.st3{fill:#91C042;}
	.st4{fill:none;}
	.st5{fill:#C4CC6E;}
	.st6{fill:#D6D4D2;}
	.st7{fill:none;stroke:#D6D4D2;stroke-width:0;stroke-linecap:round;stroke-linejoin:round;}
	.st8{fill:#9FC261;}
	.st9{enable-background:new    ;}
	.st10{clip-path:url(#SVGID_2_);}
	.st11{fill:#93C142;}
	.st12{fill:#7AAE2E;}
	.st13{fill:#47840C;}
	.st14{display:inline;fill:#93C142;}
	.st15{display:inline;opacity:0.4;}
	.st16{fill-rule:evenodd;clip-rule:evenodd;fill:#EDE2D2;}
	.st17{fill-rule:evenodd;clip-rule:evenodd;fill:#A58F69;}
	.st18{fill-rule:evenodd;clip-rule:evenodd;fill:#EC7F2C;}
	.st19{fill-rule:evenodd;clip-rule:evenodd;fill:#BC3E26;}
	.st20{fill-rule:evenodd;clip-rule:evenodd;fill:#F37937;}
	.st21{fill:#EC7F2C;}
	.st22{fill-rule:evenodd;clip-rule:evenodd;fill:#F58536;}
	.st23{fill:#EDE2D2;}
	.st24{fill:#A58F69;}
	.st25{clip-path:url(#SVGID_4_);}
	.st26{fill:#18969A;}
	.st27{fill:#D54728;}
	.st28{fill:#45B549;}
	.st29{fill:#EB7F2C;}
	.st30{fill:#FCCF22;}
	.st31{fill:#91C741;}
	.st32{fill:#ECE1D1;}
	.st33{fill:#BC3E26;}
	.st34{fill:#FFFFFF;}
	.st35{fill:#FDD023;}
	.st36{fill:url(#SVGID_5_);}
	.st37{fill:url(#SVGID_6_);}
	.st38{fill:url(#SVGID_7_);}
	.st39{fill:url(#SVGID_8_);}
	.st40{fill:url(#SVGID_9_);}
	.st41{fill:url(#SVGID_10_);}
	.st42{fill:url(#SVGID_11_);}
	.st43{fill:url(#SVGID_12_);}
	.st44{fill:url(#SVGID_13_);}
	.st45{fill:url(#SVGID_14_);}
	.st46{clip-path:url(#SVGID_16_);}
	.st47{clip-path:url(#SVGID_16_);fill:#EDE2D2;stroke:#18969A;stroke-width:1.508;stroke-miterlimit:10;}
	.st48{clip-path:url(#SVGID_16_);fill:#EDE2D2;stroke:#18969A;stroke-width:0.8003;stroke-miterlimit:10;}
	.st49{clip-path:url(#SVGID_16_);fill:#EDE2D2;stroke:#18969A;stroke-miterlimit:10;}
	.st50{clip-path:url(#SVGID_18_);}
	.st51{fill:#484C45;}
	.st52{fill:#C8BFB2;}
	.st53{fill:#898279;}
	.st54{fill:#C8BFB1;}
	.st55{fill:#B7AFA2;}
	.st56{fill:#5B9541;}
	.st57{fill:none;stroke:#5B9541;stroke-width:0.1062;stroke-linecap:round;stroke-linejoin:round;}
	.st58{fill:#29551E;}
	.st59{fill:#B5221C;}
	.st60{fill:#DD2B26;}
	.st61{fill:#4C0000;}
	.st62{fill:#B3AD7C;}
	.st63{fill:#2A0F0F;}
	.st64{fill-rule:evenodd;clip-rule:evenodd;fill:#820F06;}
	.st65{fill:#434244;}
	.st66{fill:#141415;}
	.st67{fill:#8C8B8B;}
	.st68{fill:#AEAEAF;}
	.st69{fill:#00406D;}
	.st70{fill:#0075A7;}
	.st71{fill:none;stroke:#00406D;stroke-width:1.1131;stroke-linecap:round;stroke-linejoin:round;}
	.st72{opacity:0.5;}
	.st73{clip-path:url(#SVGID_22_);fill:#00628A;}
	.st74{fill:#F8C611;}
	.st75{fill:#00628D;}
	.st76{fill:none;stroke:#7D000B;stroke-width:0.2051;}
	.st77{fill:none;stroke:#E4E416;stroke-width:0.2051;}
	.st78{fill:#582906;}
	.st79{fill-rule:evenodd;clip-rule:evenodd;fill:#81431F;}
	.st80{fill:#81431F;}
	.st81{fill-rule:evenodd;clip-rule:evenodd;fill:#FFFFFF;}
	.st82{fill-rule:evenodd;clip-rule:evenodd;fill:#5B9541;}
	.st83{fill:none;stroke:#5B9541;stroke-width:8.209600e-02;stroke-linecap:round;stroke-linejoin:round;}
	.st84{fill:#573A3B;}
	.st85{fill:#E6BD11;}
	.st86{fill:#FACC10;}
	.st87{opacity:0.7;}
	.st88{clip-path:url(#SVGID_32_);fill:#878F89;}
	.st89{fill:#A45C2C;}
	.st90{fill:#42292A;}
	.st91{fill:#7ACDD5;}
	.st92{opacity:0.9;}
	.st93{clip-path:url(#SVGID_34_);fill:#FFFDF6;}
	.st94{clip-path:url(#SVGID_36_);fill:#A7A78A;}
	.st95{fill:#A2A29A;}
	.st96{fill:#BBBAB2;}
	.st97{fill:#A9A89C;}
	.st98{fill:#6B6362;}
	.st99{fill:#E74025;}
	.st100{fill:#BE341C;}
	.st101{fill:#410A00;}
	.st102{fill:#6DBD45;}
	.st103{fill:#423D30;}
	.st104{fill:#5E5747;}
	.st105{fill:#A9231E;}
	.st106{fill:#5D2C0A;}
	.st107{fill:#861710;}
	.st108{fill:#9C4B71;}
	.st109{fill:#DC5B80;}
	.st110{fill:#CAC5A3;}
	.st111{fill:#6B4315;}
	.st112{fill:#8A5824;}
	.st113{fill:#08B3D5;}
	.st114{fill:#C5C7CE;}
	.st115{fill:#AAADB3;}
	.st116{fill:#CACECC;}
	.st117{fill-rule:evenodd;clip-rule:evenodd;fill:#E74025;}
	.st118{fill:#E5E6E5;}
	.st119{fill:#DFF0F1;stroke:#18969A;stroke-miterlimit:10;}
	.st120{fill:#EBEDCA;}
	.st121{fill:#90160E;}
</style><g
     id="Layer_11"><g
       id="g4004"><ellipse
         class="st24"
         cx="13.9"
         cy="19.8"
         rx="8.9"
         ry="3"
         id="ellipse4006" /><g
         id="g4008"><circle
           class="st26"
           cx="11.3"
           cy="11.3"
           r="11.3"
           id="circle4010" /><g
           id="g4012"><g
             id="g4014"><circle
               class="st23"
               cx="4.9"
               cy="12.7"
               r="0.5"
               id="circle4016" /><circle
               class="st23"
               cx="17.1"
               cy="12.7"
               r="0.5"
               id="circle4018" /><path
               class="st23"
               d="M9,6.2H7.2C7,6.2,6.9,6.1,6.9,6c0-0.1,0.1-0.2,0.2-0.2H9c0.1,0,0.2,0.1,0.2,0.2C9.3,6.1,9.1,6.2,9,6.2z"
               id="path4020" /><path
               class="st23"
               d="M4.9,16.7c-2.2,0-4-1.8-4-4c0-2.2,1.8-4,4-4c2.2,0,4,1.8,4,4C8.9,14.9,7.1,16.7,4.9,16.7z M4.9,9.2       c-1.9,0-3.5,1.6-3.5,3.5c0,1.9,1.6,3.5,3.5,3.5c1.9,0,3.5-1.6,3.5-3.5C8.4,10.8,6.8,9.2,4.9,9.2z"
               id="path4022" /><path
               class="st23"
               d="M4.9,13c0,0-0.1,0-0.1,0c-0.1-0.1-0.1-0.2-0.1-0.3L8.2,7c0.1-0.1,0.2-0.1,0.3-0.1       c0.1,0.1,0.1,0.2,0.1,0.3l-3.5,5.6C5.1,12.9,5,13,4.9,13z"
               id="path4024" /><path
               class="st23"
               d="M10.1,13H4.9c-0.1,0-0.2-0.1-0.2-0.2c0-0.1,0.1-0.2,0.2-0.2h5.1c0.1,0,0.2,0.1,0.2,0.2       C10.3,12.9,10.2,13,10.1,13z"
               id="path4026" /><path
               class="st23"
               d="M10.1,13c-0.1,0-0.2-0.1-0.2-0.2l-2-6.7c0-0.1,0-0.3,0.2-0.3c0.1,0,0.3,0,0.3,0.2l2,6.8       C10.3,12.8,10.3,12.9,10.1,13C10.1,13,10.1,13,10.1,13z"
               id="path4028" /><path
               class="st23"
               d="M14.8,7.3H8.4c-0.1,0-0.2-0.1-0.2-0.2c0-0.1,0.1-0.2,0.2-0.2h6.4C14.9,6.9,15,7,15,7.1       C15,7.2,14.9,7.3,14.8,7.3z"
               id="path4030" /><path
               class="st23"
               d="M10.1,13c-0.1,0-0.1,0-0.2-0.1c-0.1-0.1-0.1-0.2,0-0.3l4.9-5.1c0.1-0.1,0.2-0.1,0.3,0       c0.1,0.1,0.1,0.2,0,0.3l-4.9,5.1C10.2,13,10.1,13,10.1,13z"
               id="path4032" /><path
               class="st23"
               d="M17.1,13c-0.1,0-0.2,0-0.2-0.1l-2.3-5.6c-0.1-0.1,0-0.3,0.1-0.3c0.1,0,0.3,0,0.3,0.1l2.3,5.6       C17.4,12.8,17.3,12.9,17.1,13C17.2,13,17.1,13,17.1,13z"
               id="path4034" /><path
               class="st23"
               d="M14.8,7.3c-0.1,0-0.2-0.1-0.2-0.1l-0.3-0.7c-0.1-0.1,0-0.3,0.1-0.3c0.1-0.1,0.3,0,0.3,0.1L15,7       C15,7.1,15,7.3,14.8,7.3C14.8,7.3,14.8,7.3,14.8,7.3z"
               id="path4036" /><path
               class="st23"
               d="M15.7,6.7h-1.2c-0.1,0-0.2-0.1-0.2-0.2c0-0.1,0.1-0.2,0.2-0.2h1.2c0.1,0,0.2,0.1,0.2,0.2       C15.9,6.6,15.8,6.7,15.7,6.7z"
               id="path4038" /><path
               class="st23"
               d="M17.1,16.7c-2.2,0-4-1.8-4-4c0-2.2,1.8-4,4-4s4,1.8,4,4C21.1,14.9,19.3,16.7,17.1,16.7z M17.1,9.2       c-1.9,0-3.5,1.6-3.5,3.5c0,1.9,1.6,3.5,3.5,3.5c1.9,0,3.5-1.6,3.5-3.5C20.6,10.8,19,9.2,17.1,9.2z"
               id="path4040" /><circle
               class="st23"
               cx="10.1"
               cy="12.7"
               r="1"
               id="circle4042" /><path
               class="st23"
               d="M10.1,12.9C10,12.9,10,12.9,10.1,12.9c-0.1,0-0.1-0.1-0.1-0.2l0.4-1.6c0-0.1,0.1-0.1,0.2-0.1       c0.1,0,0.1,0.1,0.1,0.2l-0.4,1.6C10.2,12.8,10.1,12.9,10.1,12.9z"
               id="path4044" /><path
               class="st23"
               d="M9.6,14.5C9.6,14.5,9.6,14.5,9.6,14.5c-0.1,0-0.1-0.1-0.1-0.2l0.4-1.6c0-0.1,0.1-0.1,0.2-0.1       c0.1,0,0.1,0.1,0.1,0.2l-0.4,1.6C9.7,14.4,9.7,14.5,9.6,14.5z"
               id="path4046" /><path
               class="st23"
               d="M10,14.5H9.3c-0.1,0-0.1-0.1-0.1-0.1c0-0.1,0.1-0.1,0.1-0.1H10c0.1,0,0.1,0.1,0.1,0.1       C10.1,14.4,10,14.5,10,14.5z"
               id="path4048" /><path
               class="st23"
               d="M10.8,11.3h-0.7c-0.1,0-0.1,0-0.1-0.1c0-0.1,0.1-0.1,0.1-0.1h0.7c0.1,0,0.1,0.1,0.1,0.1       C10.9,11.2,10.9,11.3,10.8,11.3z"
               id="path4050" /></g></g></g></g></g></svg>