<?xml version="1.0" encoding="UTF-8" standalone="no"?>
<!-- Generator: Adobe Illustrator 21.0.2, SVG Export Plug-In . SVG Version: 6.00 Build 0)  -->

<svg
   xmlns:dc="http://purl.org/dc/elements/1.1/"
   xmlns:cc="http://creativecommons.org/ns#"
   xmlns:rdf="http://www.w3.org/1999/02/22-rdf-syntax-ns#"
   xmlns:svg="http://www.w3.org/2000/svg"
   xmlns="http://www.w3.org/2000/svg"
   xmlns:sodipodi="http://sodipodi.sourceforge.net/DTD/sodipodi-0.dtd"
   xmlns:inkscape="http://www.inkscape.org/namespaces/inkscape"
   version="1.1"
   x="0px"
   y="0px"
   viewBox="0 0 22.7 22.8"
   style="enable-background:new 0 0 22.7 22.8;"
   xml:space="preserve"
   id="svg124"
   inkscape:version="0.91 r13725"
   sodipodi:docname="mark-toilet.svg"><metadata
     id="metadata182"><rdf:RDF><cc:Work
         rdf:about=""><dc:format>image/svg+xml</dc:format><dc:type
           rdf:resource="http://purl.org/dc/dcmitype/StillImage" /></cc:Work></rdf:RDF></metadata><defs
     id="defs180" /><sodipodi:namedview
     pagecolor="#ffffff"
     bordercolor="#666666"
     borderopacity="1"
     objecttolerance="10"
     gridtolerance="10"
     guidetolerance="10"
     inkscape:pageopacity="0"
     inkscape:pageshadow="2"
     inkscape:window-width="1541"
     inkscape:window-height="480"
     id="namedview178"
     showgrid="false"
     inkscape:zoom="10.350878"
     inkscape:cx="-5.5084736"
     inkscape:cy="10.482203"
     inkscape:window-x="211"
     inkscape:window-y="241"
     inkscape:window-maximized="0"
     inkscape:current-layer="svg124" /><style
     type="text/css"
     id="style126">
	.st0{display:none;}
	.st1{display:inline;fill:#C6DE9B;}
	.st2{display:inline;}
	.st3{fill:#91C042;}
	.st4{fill:none;}
	.st5{fill:#C4CC6E;}
	.st6{fill:#D6D4D2;}
	.st7{fill:none;stroke:#D6D4D2;stroke-width:0;stroke-linecap:round;stroke-linejoin:round;}
	.st8{fill:#9FC261;}
	.st9{enable-background:new    ;}
	.st10{clip-path:url(#SVGID_2_);}
	.st11{fill:#93C142;}
	.st12{fill:#7AAE2E;}
	.st13{fill:#47840C;}
	.st14{display:inline;fill:#93C142;}
	.st15{display:inline;opacity:0.4;}
	.st16{fill-rule:evenodd;clip-rule:evenodd;fill:#EDE2D2;}
	.st17{fill-rule:evenodd;clip-rule:evenodd;fill:#A58F69;}
	.st18{fill-rule:evenodd;clip-rule:evenodd;fill:#EC7F2C;}
	.st19{fill-rule:evenodd;clip-rule:evenodd;fill:#BC3E26;}
	.st20{fill-rule:evenodd;clip-rule:evenodd;fill:#F37937;}
	.st21{fill:#EC7F2C;}
	.st22{fill-rule:evenodd;clip-rule:evenodd;fill:#F58536;}
	.st23{fill:#EDE2D2;}
	.st24{fill:#A58F69;}
	.st25{clip-path:url(#SVGID_4_);}
	.st26{fill:#18969A;}
	.st27{fill:#D54728;}
	.st28{fill:#45B549;}
	.st29{fill:#EB7F2C;}
	.st30{fill:#FCCF22;}
	.st31{fill:#91C741;}
	.st32{fill:#ECE1D1;}
	.st33{fill:#BC3E26;}
	.st34{fill:#FFFFFF;}
	.st35{fill:#FDD023;}
	.st36{fill:url(#SVGID_5_);}
	.st37{fill:url(#SVGID_6_);}
	.st38{fill:url(#SVGID_7_);}
	.st39{fill:url(#SVGID_8_);}
	.st40{fill:url(#SVGID_9_);}
	.st41{fill:url(#SVGID_10_);}
	.st42{fill:url(#SVGID_11_);}
	.st43{fill:url(#SVGID_12_);}
	.st44{fill:url(#SVGID_13_);}
	.st45{fill:url(#SVGID_14_);}
	.st46{clip-path:url(#SVGID_16_);}
	.st47{clip-path:url(#SVGID_16_);fill:#EDE2D2;stroke:#18969A;stroke-width:1.508;stroke-miterlimit:10;}
	.st48{clip-path:url(#SVGID_16_);fill:#EDE2D2;stroke:#18969A;stroke-width:0.8003;stroke-miterlimit:10;}
	.st49{clip-path:url(#SVGID_16_);fill:#EDE2D2;stroke:#18969A;stroke-miterlimit:10;}
	.st50{clip-path:url(#SVGID_18_);}
	.st51{fill:#484C45;}
	.st52{fill:#C8BFB2;}
	.st53{fill:#898279;}
	.st54{fill:#C8BFB1;}
	.st55{fill:#B7AFA2;}
	.st56{fill:#5B9541;}
	.st57{fill:none;stroke:#5B9541;stroke-width:0.1062;stroke-linecap:round;stroke-linejoin:round;}
	.st58{fill:#29551E;}
	.st59{fill:#B5221C;}
	.st60{fill:#DD2B26;}
	.st61{fill:#4C0000;}
	.st62{fill:#B3AD7C;}
	.st63{fill:#2A0F0F;}
	.st64{fill-rule:evenodd;clip-rule:evenodd;fill:#820F06;}
	.st65{fill:#434244;}
	.st66{fill:#141415;}
	.st67{fill:#8C8B8B;}
	.st68{fill:#AEAEAF;}
	.st69{fill:#00406D;}
	.st70{fill:#0075A7;}
	.st71{fill:none;stroke:#00406D;stroke-width:1.1131;stroke-linecap:round;stroke-linejoin:round;}
	.st72{opacity:0.5;}
	.st73{clip-path:url(#SVGID_22_);fill:#00628A;}
	.st74{fill:#F8C611;}
	.st75{fill:#00628D;}
	.st76{fill:none;stroke:#7D000B;stroke-width:0.2051;}
	.st77{fill:none;stroke:#E4E416;stroke-width:0.2051;}
	.st78{fill:#582906;}
	.st79{fill-rule:evenodd;clip-rule:evenodd;fill:#81431F;}
	.st80{fill:#81431F;}
	.st81{fill-rule:evenodd;clip-rule:evenodd;fill:#FFFFFF;}
	.st82{fill-rule:evenodd;clip-rule:evenodd;fill:#5B9541;}
	.st83{fill:none;stroke:#5B9541;stroke-width:8.209600e-02;stroke-linecap:round;stroke-linejoin:round;}
	.st84{fill:#573A3B;}
	.st85{fill:#E6BD11;}
	.st86{fill:#FACC10;}
	.st87{opacity:0.7;}
	.st88{clip-path:url(#SVGID_32_);fill:#878F89;}
	.st89{fill:#A45C2C;}
	.st90{fill:#42292A;}
	.st91{fill:#7ACDD5;}
	.st92{opacity:0.9;}
	.st93{clip-path:url(#SVGID_34_);fill:#FFFDF6;}
	.st94{clip-path:url(#SVGID_36_);fill:#A7A78A;}
	.st95{fill:#A2A29A;}
	.st96{fill:#BBBAB2;}
	.st97{fill:#A9A89C;}
	.st98{fill:#6B6362;}
	.st99{fill:#E74025;}
	.st100{fill:#BE341C;}
	.st101{fill:#410A00;}
	.st102{fill:#6DBD45;}
	.st103{fill:#423D30;}
	.st104{fill:#5E5747;}
	.st105{fill:#A9231E;}
	.st106{fill:#5D2C0A;}
	.st107{fill:#861710;}
	.st108{fill:#9C4B71;}
	.st109{fill:#DC5B80;}
	.st110{fill:#CAC5A3;}
	.st111{fill:#6B4315;}
	.st112{fill:#8A5824;}
	.st113{fill:#08B3D5;}
	.st114{fill:#C5C7CE;}
	.st115{fill:#AAADB3;}
	.st116{fill:#CACECC;}
	.st117{fill-rule:evenodd;clip-rule:evenodd;fill:#E74025;}
	.st118{fill:#E5E6E5;}
	.st119{fill:#DFF0F1;stroke:#18969A;stroke-miterlimit:10;}
	.st120{fill:#EBEDCA;}
	.st121{fill:#90160E;}
</style><g
     id="Layer_11"><g
       id="g157"><ellipse
         class="st24"
         cx="13.6"
         cy="19.8"
         rx="8.9"
         ry="3"
         id="ellipse159" /><g
         id="g161"><circle
           class="st26"
           cx="11.3"
           cy="11.3"
           r="11.3"
           id="circle163" /><g
           id="g165"><path
             class="st23"
             d="M16.5,5.8c0.7,0,1.3-0.6,1.3-1.3c0-0.7-0.6-1.3-1.3-1.3c-0.7,0-1.3,0.6-1.3,1.3      C15.2,5.2,15.8,5.8,16.5,5.8z M7.4,5.8c0.7,0,1.3-0.6,1.3-1.3c0-0.7-0.6-1.3-1.3-1.3c-0.7,0-1.3,0.6-1.3,1.3      C6.1,5.2,6.6,5.8,7.4,5.8z M12.2,2.6c-0.2,0-0.3,0.2-0.3,0.3v16.5c0,0.2,0.2,0.3,0.3,0.3c0.2,0,0.3-0.2,0.3-0.3V3      C12.6,2.8,12.4,2.6,12.2,2.6z M9.8,7.3C9.7,6.7,9.1,6.2,8.4,6.2H6.3c-0.7,0-1.2,0.5-1.4,1.1L3.8,11c-0.1,0.3,0.1,0.6,0.4,0.7      s0.6-0.1,0.7-0.4l0,0l1-3.3h0.2l-1.7,5.8H6v4.4c0,0.3,0.2,0.6,0.6,0.6s0.6-0.2,0.6-0.6v-4.4h0.4v4.4c0,0.3,0.2,0.6,0.6,0.6      c0.3,0,0.6-0.2,0.6-0.6v-4.4h1.6L8.6,7.9h0.2l1,3.3l0,0c0.1,0.3,0.4,0.5,0.7,0.4c0.3-0.1,0.5-0.4,0.4-0.7L9.8,7.3z M18.1,6.2H15      c-0.8,0-1.4,0.6-1.4,1.4v4.1c0,0.3,0.2,0.6,0.6,0.6c0.3,0,0.6-0.2,0.6-0.6V8.1h0.2v9.8c0,0.4,0.3,0.7,0.7,0.7      c0.4,0,0.7-0.3,0.7-0.7v-5.7h0.2v5.7c0,0.4,0.3,0.7,0.7,0.7c0.4,0,0.7-0.3,0.7-0.7V8.1h0.2v3.5c0,0.3,0.2,0.6,0.6,0.6      c0.3,0,0.6-0.2,0.6-0.6V7.6C19.4,6.8,18.8,6.2,18.1,6.2z"
             id="path167" /></g></g></g></g></svg>