<?xml version="1.0" encoding="UTF-8" standalone="no"?>
<!-- Generator: Adobe Illustrator 18.1.0, SVG Export Plug-In . SVG Version: 6.00 Build 0)  -->

<svg
   xmlns:dc="http://purl.org/dc/elements/1.1/"
   xmlns:cc="http://creativecommons.org/ns#"
   xmlns:rdf="http://www.w3.org/1999/02/22-rdf-syntax-ns#"
   xmlns:svg="http://www.w3.org/2000/svg"
   xmlns="http://www.w3.org/2000/svg"
   xmlns:sodipodi="http://sodipodi.sourceforge.net/DTD/sodipodi-0.dtd"
   xmlns:inkscape="http://www.inkscape.org/namespaces/inkscape"
   version="1.1"
   id="Laag_1"
   x="0px"
   y="0px"
   viewBox="0 0 200.99999 201"
   enable-background="new 0 0 103.3 52"
   xml:space="preserve"
   inkscape:version="0.91 r13725"
   sodipodi:docname="marker_logo_veldenduin.svg"
   width="201"
   height="201"><metadata
     id="metadata31"><rdf:RDF><cc:Work
         rdf:about=""><dc:format>image/svg+xml</dc:format><dc:type
           rdf:resource="http://purl.org/dc/dcmitype/StillImage" /><dc:title></dc:title></cc:Work></rdf:RDF></metadata><defs
     id="defs29" /><sodipodi:namedview
     pagecolor="#ffffff"
     bordercolor="#666666"
     borderopacity="1"
     objecttolerance="10"
     gridtolerance="10000"
     guidetolerance="10"
     inkscape:pageopacity="0"
     inkscape:pageshadow="2"
     inkscape:window-width="1540"
     inkscape:window-height="942"
     id="namedview27"
     showgrid="true"
     inkscape:zoom="2.129756"
     inkscape:cx="176.92538"
     inkscape:cy="18.509278"
     inkscape:window-x="0"
     inkscape:window-y="27"
     inkscape:window-maximized="0"
     inkscape:current-layer="Laag_1"
     fit-margin-top="0"
     fit-margin-left="0"
     fit-margin-right="0"
     fit-margin-bottom="0"
     inkscape:snap-grids="false"
     showguides="true"
     inkscape:guide-bbox="true"><inkscape:grid
       type="xygrid"
       id="grid4191"
       spacingx="9.9999995"
       spacingy="10" /></sodipodi:namedview><path
     style="opacity:1;fill:#ffffff;fill-opacity:0.82352942;stroke:#babb8b;stroke-width:2.91683292;stroke-miterlimit:4;stroke-dasharray:none;stroke-dashoffset:0;stroke-opacity:1"
     d="m 52.557555,12.458416 124.884865,0 c 6.14893,0 11.09915,4.604892 11.09915,10.324869 l 0,56.43343 c 0,5.719977 -4.95064,10.252852 -11.09915,10.324869 L 50.81261,91.024787 c -0.768563,0.009 -2.999544,-0.287806 -4.32832,-0.808889 C 45.155514,89.694815 40.238225,90.82937 10.005586,190.99869 40.084566,91.440199 41.143172,85.962374 40.583012,84.726294 c -0.56016,-1.23608 -0.891081,-3.311703 -0.869549,-4.026376 l 1.744945,-57.916633 c 0.172256,-5.717383 4.95022,-10.324869 11.099147,-10.324869 z"
     id="rect4144"
     inkscape:connector-curvature="0"
     sodipodi:nodetypes="ssssszzczzss" /><g
     id="g4162"
     transform="translate(62.899989,25.1)"><g
       id="g4164"
       style="stroke-width:3;stroke-miterlimit:4;stroke-dasharray:none"><path
         d="m 79.7,27.9 c -0.4,-1 -0.7,-2.1 -0.7,-3.2 0,-2.8 1.1,-4.9 4.2,-7.6 l 7.8,10.8 4.5,0 c -0.2,-0.3 -0.4,-0.5 -0.7,-0.8 2.2,-3.6 2.7,-4.7 4.1,-8.3 l 4.4,0 0,-1.7 -10.2,0 0,1.7 3.7,0 c -1.3,3.1 -1.7,3.9 -3.2,6.6 l -9,-12.5 c -1.5,-2.1 -2.4,-4.4 -2.4,-6.3 0,-2.8 2,-4.9 4.8,-4.9 2.7,0 4.2,1.6 4.2,4.6 0,2.4 -0.8,3.7 -3.7,6 l 1.1,1.5 3.1,-2.4 C 93.6,10 94.6,8 94.6,6 c 0,-3.6 -3.1,-6.1 -7.3,-6.1 -5,0 -8.6,3.2 -8.6,7.6 0,2.6 0.9,4.4 3.5,7.8 -2.5,2 -3.2,2.6 -4.2,3.7 -1.8,1.8 -2.7,4.2 -2.7,6.5 0,0.8 0.1,1.6 0.3,2.3 l 4.1,0 z"
         id="path4166"
         style="fill:#94c93d;stroke-width:3;stroke-miterlimit:4;stroke-dasharray:none"
         inkscape:connector-curvature="0" /></g><g
       id="g4168"><path
         d="m 19.5,9.5 -1.7,0 -8.7,17.4 -4,0 -2.4,-17.4 -1.8,0 0.6,-3.2 6.6,0 0.7,11.3 4.7,-11.3 6.6,0 -0.6,3.2 z"
         id="path4170"
         inkscape:connector-curvature="0"
         style="fill:#babb8b" /><path
         d="m 25,21.3 -0.1,0.5 c -0.1,0.6 0.2,1.1 0.9,1.5 0.9,0.5 2.2,0.6 4.1,0.5 1.7,-0.1 3.3,-0.5 4.7,-1.3 L 34,26 c -1.6,0.9 -3.9,1.3 -6.9,1.3 -2.3,0 -4.2,-0.4 -5.7,-1.2 C 19.8,25.3 19,24.3 19,23 c 0,-0.2 0,-0.3 0,-0.4 l 0.9,-5.2 c 0.2,-1.3 1.2,-2.4 2.9,-3.3 1.7,-0.9 3.7,-1.4 5.9,-1.4 2.1,0 3.8,0.4 5.1,1.2 1.4,0.8 2.1,1.8 2.1,3 0,1.6 -0.9,2.9 -2.7,3.9 -1.5,0.9 -3.1,1.3 -4.8,1.3 C 27.2,22.2 26,21.9 25,21.3 Z m 3.2,-5 c -1.3,0 -2.4,0.9 -2.7,1.9 -0.2,1 0.7,1.9 2,1.9 1.2,0 2.5,-0.9 2.6,-1.9 0.2,-1 -0.7,-1.9 -1.9,-1.9 z"
         id="path4172"
         inkscape:connector-curvature="0"
         style="fill:#babb8b" /><path
         d="m 49.9,26 c -1.2,0.9 -2.8,1.3 -4.8,1.3 -1.6,0 -2.9,-0.4 -4,-1.2 -1,-0.8 -1.5,-1.8 -1.5,-2.9 0,-0.2 0,-0.4 0.1,-0.6 L 42,9.4 l -1.7,0 0.6,-3.2 7.4,0 -2.7,15.4 c 0,0.2 -0.1,0.4 -0.1,0.5 0,1.1 0.7,1.6 2.1,1.5 1.1,-0.1 2.1,-0.5 3,-1.3 L 49.9,26 Z"
         id="path4174"
         inkscape:connector-curvature="0"
         style="fill:#babb8b" /><path
         d="m 69,26.9 -4.6,0 -1.1,-1.4 c -1.5,1.2 -3.4,1.8 -5.5,1.8 -1.7,0 -3.1,-0.4 -4.2,-1.2 -1.1,-0.8 -1.6,-1.8 -1.6,-3 0,-0.2 0,-0.4 0.1,-0.6 L 53,17.3 c 0.2,-1.3 1,-2.4 2.5,-3.3 1.5,-0.9 3.1,-1.4 4.9,-1.4 1.4,0 2.6,0.3 3.6,0.9 l 0.7,-4.2 -1.7,0 0.6,-3.2 7.4,0 -3.1,17.4 1.7,0 -0.6,3.4 z m -5.9,-8.6 c 0.2,-1.1 -0.6,-2 -1.9,-2 -1.3,0 -2.4,0.9 -2.7,2 l -0.6,3.4 c -0.2,1.1 0.6,2 1.9,2 1.3,0 2.4,-0.9 2.7,-2 l 0.6,-3.4 z"
         id="path4176"
         inkscape:connector-curvature="0"
         style="fill:#babb8b" /></g><g
       id="g4178"><path
         d="m 45.1,47.2 c -0.2,1.3 -1.2,2.3 -2.9,3.1 -1.7,0.8 -3.6,1.2 -5.9,1.2 l -9.7,0 0.6,-3.1 1.7,0 2.5,-14.3 -1.7,0 0.6,-3.1 9.7,0 c 2.1,0 3.8,0.3 5.2,1 1.4,0.7 2.1,1.6 2.1,2.8 0,0.2 0,0.3 0,0.5 L 45.1,47.2 Z M 41.3,36.1 c 0.2,-1.1 -0.7,-2 -1.9,-2 l -2.3,0 -2.5,14.3 2.3,0 c 1.3,0 2.4,-0.9 2.6,-2 l 1.8,-10.3 z"
         id="path4180"
         style="fill:#babb8b;fill-opacity:1"
         inkscape:connector-curvature="0" /><path
         d="m 69.4,37.8 -0.6,3.1 -1.7,0 -1.3,7.4 1.7,0 -0.5,3.2 -4.6,0 -1.1,-1.4 c -1.5,1.2 -3.4,1.8 -5.5,1.8 -1.7,0 -3.1,-0.4 -4.2,-1.2 C 50.5,50 50,49 50,47.8 c 0,-0.2 0,-0.4 0.1,-0.6 l 1.1,-6.3 -1.7,0 0.6,-3.1 7.4,0 -1.5,8.5 c -0.2,1.1 0.7,2 1.9,2 1.3,0 2.4,-0.9 2.7,-2 l 1,-5.5 -1.7,0 0.6,-3.1 8.9,0 z"
         id="path4182"
         inkscape:connector-curvature="0"
         style="fill:#babb8b" /><path
         d="m 79,51.5 -9.1,0 0.6,-3.1 1.7,0 1.3,-7.4 -1.7,0 0.6,-3.1 7.4,0 -1.9,10.6 1.7,0 -0.6,3 z m 0.6,-16.6 -4.6,0 0.5,-3.1 4.6,0 -0.5,3.1 z"
         id="path4184"
         inkscape:connector-curvature="0"
         style="fill:#babb8b" /><path
         d="m 100.9,51.5 -7.4,0 1.5,-8.6 c 0.2,-1.1 -0.7,-2 -1.9,-2 -1.2,0 -2.4,0.9 -2.6,2 l -1,5.4 1.7,0 -0.6,3.1 -9.1,0 0.6,-3.1 1.7,0 1.3,-7.4 -1.7,0 0.6,-3.1 4.6,0 1.1,1.4 c 1.5,-1.2 3.4,-1.8 5.5,-1.8 1.7,0 3.1,0.4 4.1,1.2 1.1,0.8 1.7,1.8 1.7,2.9 0,0.2 0,0.4 -0.1,0.6 l -1.1,6.3 1.7,0 -0.6,3.1 z"
         id="path4186"
         inkscape:connector-curvature="0"
         style="fill:#babb8b" /></g></g></svg>