<?xml version="1.0" encoding="UTF-8" standalone="no"?>
<!-- Generator: Adobe Illustrator 18.1.0, SVG Export Plug-In . SVG Version: 6.00 Build 0)  -->

<svg
   xmlns:dc="http://purl.org/dc/elements/1.1/"
   xmlns:cc="http://creativecommons.org/ns#"
   xmlns:rdf="http://www.w3.org/1999/02/22-rdf-syntax-ns#"
   xmlns:svg="http://www.w3.org/2000/svg"
   xmlns="http://www.w3.org/2000/svg"
   xmlns:sodipodi="http://sodipodi.sourceforge.net/DTD/sodipodi-0.dtd"
   xmlns:inkscape="http://www.inkscape.org/namespaces/inkscape"
   version="1.1"
   id="Layer_1"
   x="0px"
   y="0px"
   viewBox="0 0 197.3 40.6"
   enable-background="new 0 0 197.3 40.6"
   xml:space="preserve"
   inkscape:version="0.91 r13725"
   sodipodi:docname="btn_prim_background.svg"><metadata
     id="metadata13"><rdf:RDF><cc:Work
         rdf:about=""><dc:format>image/svg+xml</dc:format><dc:type
           rdf:resource="http://purl.org/dc/dcmitype/StillImage" /></cc:Work></rdf:RDF></metadata><defs
     id="defs11" /><sodipodi:namedview
     pagecolor="#ffffff"
     bordercolor="#666666"
     borderopacity="1"
     objecttolerance="10"
     gridtolerance="10"
     guidetolerance="10"
     inkscape:pageopacity="0"
     inkscape:pageshadow="2"
     inkscape:window-width="1106"
     inkscape:window-height="719"
     id="namedview9"
     showgrid="false"
     inkscape:zoom="3.1626964"
     inkscape:cx="98.650002"
     inkscape:cy="20.299999"
     inkscape:window-x="0"
     inkscape:window-y="27"
     inkscape:window-maximized="0"
     inkscape:current-layer="Layer_1" /><path
     fill="#4D4D4D"
     d="M197.3,36.9c0,2-1.9,3.6-4.2,3.6H4.2c-2.3,0-4.2-1.6-4.2-3.6V4.6C0,2.6,1.9,1,4.2,1h188.9  c2.3,0,4.2,1.6,4.2,3.6V36.9z"
     id="path3" /><path
     fill="#90B743"
     d="M197.3,35.9c0,2-1.9,3.6-4.2,3.6H4.2c-2.3,0-4.2-1.6-4.2-3.6V3.6C0,1.6,1.9,0,4.2,0h188.9  c2.3,0,4.2,1.6,4.2,3.6V35.9z"
     id="path5"
     style="fill:#3ba643;fill-opacity:1" /><path
     fill="#87B450"
     d="M136.2,14.4C81.9,14.4,33.1,22.8,0,36.2c0.1,1.9,1.9,3.4,4.2,3.4h188.9c2.3,0,4.2-1.6,4.2-3.6V18.1  C178.2,15.7,157.7,14.4,136.2,14.4z"
     id="path7"
     style="fill:#2d7e34;fill-opacity:1" /></svg>
