<?xml version="1.0" encoding="UTF-8" standalone="no"?>
<!-- Generator: Adobe Illustrator 18.1.0, SVG Export Plug-In . SVG Version: 6.00 Build 0)  -->

<svg
   xmlns:dc="http://purl.org/dc/elements/1.1/"
   xmlns:cc="http://creativecommons.org/ns#"
   xmlns:rdf="http://www.w3.org/1999/02/22-rdf-syntax-ns#"
   xmlns:svg="http://www.w3.org/2000/svg"
   xmlns="http://www.w3.org/2000/svg"
   xmlns:sodipodi="http://sodipodi.sourceforge.net/DTD/sodipodi-0.dtd"
   xmlns:inkscape="http://www.inkscape.org/namespaces/inkscape"
   version="1.1"
   id="Laag_1"
   x="0px"
   y="0px"
   viewBox="0 0 103.3 52"
   enable-background="new 0 0 103.3 52"
   xml:space="preserve"
   inkscape:version="0.91 r13725"
   sodipodi:docname="logo_veldenduin.svg"><metadata
     id="metadata31"><rdf:RDF><cc:Work
         rdf:about=""><dc:format>image/svg+xml</dc:format><dc:type
           rdf:resource="http://purl.org/dc/dcmitype/StillImage" /><dc:title></dc:title></cc:Work></rdf:RDF></metadata><defs
     id="defs29" /><sodipodi:namedview
     pagecolor="#ffffff"
     bordercolor="#666666"
     borderopacity="1"
     objecttolerance="10"
     gridtolerance="10"
     guidetolerance="10"
     inkscape:pageopacity="0"
     inkscape:pageshadow="2"
     inkscape:window-width="1540"
     inkscape:window-height="942"
     id="namedview27"
     showgrid="false"
     inkscape:zoom="3.785"
     inkscape:cx="92.998679"
     inkscape:cy="100"
     inkscape:window-x="0"
     inkscape:window-y="27"
     inkscape:window-maximized="0"
     inkscape:current-layer="Laag_1" /><g
     id="g3"><path
       d="M79.7,27.9c-0.4-1-0.7-2.1-0.7-3.2c0-2.8,1.1-4.9,4.2-7.6L91,27.9h4.5c-0.2-0.3-0.4-0.5-0.7-0.8   c2.2-3.6,2.7-4.7,4.1-8.3h4.4v-1.7H93.1v1.7h3.7c-1.3,3.1-1.7,3.9-3.2,6.6l-9-12.5c-1.5-2.1-2.4-4.4-2.4-6.3c0-2.8,2-4.9,4.8-4.9   c2.7,0,4.2,1.6,4.2,4.6c0,2.4-0.8,3.7-3.7,6l1.1,1.5l3.1-2.4c1.9-1.4,2.9-3.4,2.9-5.4c0-3.6-3.1-6.1-7.3-6.1c-5,0-8.6,3.2-8.6,7.6   c0,2.6,0.9,4.4,3.5,7.8c-2.5,2-3.2,2.6-4.2,3.7c-1.8,1.8-2.7,4.2-2.7,6.5c0,0.8,0.1,1.6,0.3,2.3H79.7z"
       id="path5"
       fill="#94C93D" /></g><g
     id="g7"><path
       d="M19.5,9.5h-1.7L9.1,26.9h-4L2.7,9.5H0.9l0.6-3.2h6.6l0.7,11.3l4.7-11.3h6.6L19.5,9.5z"
       id="path9"
       fill="#BABB8B" /><path
       d="M25,21.3l-0.1,0.5c-0.1,0.6,0.2,1.1,0.9,1.5c0.9,0.5,2.2,0.6,4.1,0.5c1.7-0.1,3.3-0.5,4.7-1.3L34,26   c-1.6,0.9-3.9,1.3-6.9,1.3c-2.3,0-4.2-0.4-5.7-1.2C19.8,25.3,19,24.3,19,23c0-0.2,0-0.3,0-0.4l0.9-5.2c0.2-1.3,1.2-2.4,2.9-3.3   c1.7-0.9,3.7-1.4,5.9-1.4c2.1,0,3.8,0.4,5.1,1.2c1.4,0.8,2.1,1.8,2.1,3c0,1.6-0.9,2.9-2.7,3.9c-1.5,0.9-3.1,1.3-4.8,1.3   C27.2,22.2,26,21.9,25,21.3z M28.2,16.3c-1.3,0-2.4,0.9-2.7,1.9c-0.2,1,0.7,1.9,2,1.9c1.2,0,2.5-0.9,2.6-1.9   C30.3,17.2,29.4,16.3,28.2,16.3z"
       id="path11"
       fill="#BABB8B" /><path
       d="M49.9,26c-1.2,0.9-2.8,1.3-4.8,1.3c-1.6,0-2.9-0.4-4-1.2c-1-0.8-1.5-1.8-1.5-2.9c0-0.2,0-0.4,0.1-0.6   l2.3-13.2h-1.7l0.6-3.2h7.4l-2.7,15.4c0,0.2-0.1,0.4-0.1,0.5c0,1.1,0.7,1.6,2.1,1.5c1.1-0.1,2.1-0.5,3-1.3L49.9,26z"
       id="path13"
       fill="#BABB8B" /><path
       d="M69,26.9h-4.6l-1.1-1.4c-1.5,1.2-3.4,1.8-5.5,1.8c-1.7,0-3.1-0.4-4.2-1.2c-1.1-0.8-1.6-1.8-1.6-3   c0-0.2,0-0.4,0.1-0.6l0.9-5.2c0.2-1.3,1-2.4,2.5-3.3c1.5-0.9,3.1-1.4,4.9-1.4c1.4,0,2.6,0.3,3.6,0.9l0.7-4.2h-1.7l0.6-3.2h7.4   l-3.1,17.4h1.7L69,26.9z M63.1,18.3c0.2-1.1-0.6-2-1.9-2c-1.3,0-2.4,0.9-2.7,2l-0.6,3.4c-0.2,1.1,0.6,2,1.9,2c1.3,0,2.4-0.9,2.7-2   L63.1,18.3z"
       id="path15"
       fill="#BABB8B" /></g><g
     id="g17"><path
       d="M45.1,47.2c-0.2,1.3-1.2,2.3-2.9,3.1c-1.7,0.8-3.6,1.2-5.9,1.2h-9.7l0.6-3.1h1.7l2.5-14.3h-1.7l0.6-3.1H40   c2.1,0,3.8,0.3,5.2,1c1.4,0.7,2.1,1.6,2.1,2.8c0,0.2,0,0.3,0,0.5L45.1,47.2z M41.3,36.1c0.2-1.1-0.7-2-1.9-2h-2.3l-2.5,14.3h2.3   c1.3,0,2.4-0.9,2.6-2L41.3,36.1z"
       id="path19"
       fill="#BABB8B" /><path
       d="M69.4,37.8l-0.6,3.1h-1.7l-1.3,7.4h1.7L67,51.5h-4.6l-1.1-1.4c-1.5,1.2-3.4,1.8-5.5,1.8   c-1.7,0-3.1-0.4-4.2-1.2C50.5,50,50,49,50,47.8c0-0.2,0-0.4,0.1-0.6l1.1-6.3h-1.7l0.6-3.1h7.4l-1.5,8.5c-0.2,1.1,0.7,2,1.9,2   c1.3,0,2.4-0.9,2.7-2l1-5.5h-1.7l0.6-3.1H69.4z"
       id="path21"
       fill="#BABB8B" /><path
       d="M79,51.5h-9.1l0.6-3.1h1.7l1.3-7.4h-1.7l0.6-3.1h7.4l-1.9,10.6h1.7L79,51.5z M79.6,34.9h-4.6l0.5-3.1h4.6   L79.6,34.9z"
       id="path23"
       fill="#BABB8B" /><path
       d="M100.9,51.5h-7.4l1.5-8.6c0.2-1.1-0.7-2-1.9-2c-1.2,0-2.4,0.9-2.6,2l-1,5.4h1.7l-0.6,3.1h-9.1l0.6-3.1h1.7   l1.3-7.4h-1.7l0.6-3.1h4.6l1.1,1.4c1.5-1.2,3.4-1.8,5.5-1.8c1.7,0,3.1,0.4,4.1,1.2c1.1,0.8,1.7,1.8,1.7,2.9c0,0.2,0,0.4-0.1,0.6   l-1.1,6.3h1.7L100.9,51.5z"
       id="path25"
       fill="#BABB8B" /></g></svg>