<?xml version="1.0" encoding="UTF-8" standalone="no"?>
<!-- Generator: Adobe Illustrator 21.0.2, SVG Export Plug-In . SVG Version: 6.00 Build 0)  -->

<svg
   xmlns:dc="http://purl.org/dc/elements/1.1/"
   xmlns:cc="http://creativecommons.org/ns#"
   xmlns:rdf="http://www.w3.org/1999/02/22-rdf-syntax-ns#"
   xmlns:svg="http://www.w3.org/2000/svg"
   xmlns="http://www.w3.org/2000/svg"
   xmlns:xlink="http://www.w3.org/1999/xlink"
   xmlns:sodipodi="http://sodipodi.sourceforge.net/DTD/sodipodi-0.dtd"
   xmlns:inkscape="http://www.inkscape.org/namespaces/inkscape"
   version="1.1"
   x="0px"
   y="0px"
   viewBox="0 0 734.16941 1317.5794"
   xml:space="preserve"
   id="svg2"
   inkscape:version="0.91 r13725"
   sodipodi:docname="grondplan.svg"
   inkscape:export-filename="/home/mpo/projects/jubileum/nav/plan/grondplan.svg.png"
   inkscape:export-xdpi="1200.0188"
   inkscape:export-ydpi="1200.0188"
   width="734.16937"
   height="1317.5793"><metadata
     id="metadata205"><rdf:RDF><cc:Work
         rdf:about=""><dc:format>image/svg+xml</dc:format><dc:type
           rdf:resource="http://purl.org/dc/dcmitype/StillImage" /><dc:title></dc:title></cc:Work></rdf:RDF></metadata><defs
     id="defs203" /><sodipodi:namedview
     pagecolor="#ffffff"
     bordercolor="#666666"
     borderopacity="1"
     objecttolerance="10"
     gridtolerance="10"
     guidetolerance="10"
     inkscape:pageopacity="0"
     inkscape:pageshadow="2"
     inkscape:window-width="1506"
     inkscape:window-height="925"
     id="namedview201"
     showgrid="false"
     inkscape:zoom="0.5399289"
     inkscape:cx="-113.08595"
     inkscape:cy="647.64613"
     inkscape:window-x="2001"
     inkscape:window-y="99"
     inkscape:window-maximized="0"
     inkscape:current-layer="svg2"
     fit-margin-top="0"
     fit-margin-left="0"
     fit-margin-right="0"
     fit-margin-bottom="0" /><style
     type="text/css"
     id="style4">
	.st0{display:none;}
	.st1{display:inline;fill:#C6DE9B;}
	.st2{display:inline;}
	.st3{fill:#91C042;}
	.st4{fill:#D6D4D2;}
	.st5{fill:#91C142;}
	.st6{fill:#C4CD6E;}
	.st7{fill:#D7D6D4;}
	.st8{fill:none;stroke:#D7D6D4;stroke-width:0;stroke-linecap:round;stroke-linejoin:round;}
	.st9{fill:#9FC261;}
	.st10{fill:#79B745;}
	.st11{fill:#33A64A;}
	.st12{clip-path:url(#SVGID_2_);fill:#79B745;}
</style><g
     id="Layer_11"
     transform="matrix(-0.31172731,-0.95017161,0.95017161,-0.31172731,332.03684,1333.0582)"
     style="opacity:1"><g
       id="g31"
       style=""><path
         class="st5"
         d="m 1222.8,92 -5.9,346 c -0.4,24.9 -21.2,46.3 -46.1,47.4 0,0 -200.4,9.2 -259.8,9.2 -59.4,0 -456,-1.8 -456,-1.8 -24.9,-0.1 -50.5,6.8 -56.7,15.5 -6.2,8.6 -25.6,1.1 -43,-16.8 L 10.1,137 C -7.3,119.1 -1.5,100.5 22.9,95.5 L 491.3,0.9 C 515.8,-4 535,12.3 534.1,37.2 l -1.4,37.4 c -0.9,24.9 18.8,44.8 43.7,44.2 L 813,113 c 24.9,-0.6 45.3,-3.7 45.3,-6.8 0,-3.1 20.4,-6.1 45.3,-6.7 L 1222.8,92"
         id="path33"
         inkscape:connector-curvature="0"
         style="fill:#91c142" /><g
         id="g35"
         style=""><g
           id="g37"
           style=""><path
             class="st6"
             d="m 988.9,216.6 c 1.6,0 2.8,-1.3 2.8,-2.8 l 0,-108.9 c 0,-1.6 -1.3,-2.8 -2.8,-2.8 l -5.7,0 c -1.6,0 -2.8,1.3 -2.8,2.8 l 0.2,108.8 c 0,1.6 1.3,2.8 2.8,2.8 l 5.5,0 z"
             id="path39"
             inkscape:connector-curvature="0"
             style="fill:#c4cd6e" /></g><g
           id="g41"
           style=""><path
             class="st6"
             d="m 963.6,102.1 c -1.6,0 -2.8,1.3 -2.8,2.8 l 0,108.8 c 0,1.6 1.3,2.8 2.8,2.8 l 6.3,0 c 1.6,0 2.8,-1.3 2.8,-2.8 l -0.2,-108.8 c 0,-1.6 -1.3,-2.8 -2.8,-2.8 l -6.1,0 z"
             id="path43"
             inkscape:connector-curvature="0"
             style="fill:#c4cd6e" /></g><g
           id="g45"
           style=""><path
             class="st6"
             d="m 1030.4,267.2 c 0,-9.7 -9,-12.1 -9,-12.1 -1.5,-0.4 -4,-0.7 -5.6,-0.8 l -14.4,-0.1 c -1.6,0 -2.9,1.3 -2.9,2.8 l -1.1,88.2 c 0,1.6 0.3,4.1 0.6,5.6 0,0 3.1,13.4 14.8,13.4 11,0 14.6,-11.3 14.6,-11.3 0.5,-1.5 0.9,-4 0.9,-5.5 l 0,-1.3 c 0,-1.6 0.1,-3.1 0.1,-3.4 0,-0.3 0,-0.5 0,-0.5 0,0 0.1,-1 0.1,-2.5 l 2,-65.8 c 0,-1.6 0,-3.9 -0.1,-5.2 0,0 0,0 0,-1.5 z"
             id="path47"
             inkscape:connector-curvature="0"
             style="fill:#c4cd6e" /></g><g
           id="g49"
           style=""><path
             class="st6"
             d="m 1166.9,458.2 c 1.6,0 2.8,-1.3 2.8,-2.8 l 0,-8.2 c 0,-1.6 -1.3,-2.8 -2.8,-2.8 l -34,0 c -1.6,0 -2.8,1.3 -2.8,2.8 l 0,8.2 c 0,1.6 1.3,2.8 2.8,2.8 l 34,0 z"
             id="path51"
             inkscape:connector-curvature="0"
             style="fill:#c4cd6e" /></g><g
           id="g53"
           style=""><path
             class="st6"
             d="m 1123.4,463.6 c 0,-1.6 0,-2.8 -0.1,-2.8 -0.1,0 -0.1,1.3 -0.1,2.8 l 0,14.4 c 0,1.6 1.3,2.8 2.8,2.8 l 48.1,0 c 1.6,0 2.8,-1.3 2.8,-2.8 l 0,-7.9 c 0,-1.6 -1.3,-2.8 -2.8,-2.8 l -47.9,0 c -1.6,0 -2.8,-1.3 -2.8,-2.8 l 0,-0.9 z"
             id="path55"
             inkscape:connector-curvature="0"
             style="fill:#c4cd6e" /></g><g
           id="g57"
           style=""><path
             class="st6"
             d="m 995.6,483 c 0,1.6 1.2,2.9 2.8,2.9 l 9.4,0.1 c 1.6,0 2.9,-1.2 2.9,-2.8 l 1.4,-101.4 c 0,-1.6 -1.1,-2.3 -2.6,-1.7 l -10,4.2 c -1.4,0.6 -2.6,2.4 -2.6,3.9 l -1.3,94.8 z"
             id="path59"
             inkscape:connector-curvature="0"
             style="fill:#c4cd6e" /></g><g
           id="g61"
           style=""><path
             class="st6"
             d="m 986.1,257.2 c -1.6,0 -2.9,0 -2.9,0 0,0 -0.1,0 -0.1,0 0,0 0,0 0,0 0,0 -0.1,0 -0.1,0 0,0 0,0 -0.1,0 -0.2,0 -0.5,0 -1,0 -0.7,0 -0.7,0 -0.7,0 -1.2,0.1 -2.2,1.4 -2.2,2.9 l -3,222.6 c 0,1.6 1.2,2.9 2.8,2.9 l 9,0.1 c 1.6,0 2.9,-1.2 2.9,-2.8 L 993.6,260 c 0,-1.6 -1.2,-2.8 -2.8,-2.8 l -4.7,0 z"
             id="path63"
             inkscape:connector-curvature="0"
             style="fill:#c4cd6e" /></g><g
           id="g65"
           style=""><path
             class="st6"
             d="m 826.8,282.1 c -1.6,0 -4,0.5 -5.5,1.1 0,0 -9.2,3.7 -9.2,15.4 0,17 1.6,71.8 1.6,71.8 0,1.6 0.1,2.8 0,2.8 -0.1,0 0.9,0.8 2.1,1.8 l 11.8,10.1 c 1.2,1 2.1,0.6 2.1,-1 l 0,-87.3 c 0,-1.6 1.3,-2.8 2.8,-2.8 l 86.8,0 c 1.6,0 2.8,-1.3 2.8,-2.8 l 0,-6.4 c 0,-1.6 -1.3,-2.8 -2.8,-2.8 l -3.5,0 c -1.6,0 -4.1,0 -5.7,0 l -83.3,0 z"
             id="path67"
             inkscape:connector-curvature="0"
             style="fill:#c4cd6e" /></g><g
           id="g69"
           style=""><path
             class="st6"
             d="m 802.1,284.9 c 0,-1.6 -1.3,-2.8 -2.9,-2.8 l -144.8,0 c -1.6,0 -3.8,0.9 -4.9,1.9 l -9.4,8.2 c -0.1,1.6 -0.3,4.1 -0.3,5.7 l 0,70.6 c 0,1.6 1.1,3.4 2.5,4.2 l 7.5,4.1 c 1.4,0.7 2.5,0.1 2.5,-1.5 l 0,-78.3 c 0,-1.6 1.3,-2.8 2.8,-2.8 l 127.3,0 c 1.6,0 2.8,1.3 2.8,2.8 l 0,87.3 c 0,1.6 1,2 2.2,1.1 l 13.2,-10.7 c 1.2,-1 2.2,-3.1 2.2,-4.6 l -0.7,-85.2 z"
             id="path71"
             inkscape:connector-curvature="0"
             style="fill:#c4cd6e" /></g><g
           id="g73"
           style=""><path
             class="st6"
             d="m 575.5,397.5 c 0.7,1.4 2.5,2.5 4.1,2.5 l 28.8,0 c 1.6,0 2.3,-1.1 1.6,-2.5 l -5.7,-11.4 c -0.7,-1.4 -2.5,-2.5 -4.1,-2.6 l -29,-0.3 c -1.6,0 -2.3,1.1 -1.6,2.5 l 5.9,11.8 z"
             id="path75"
             inkscape:connector-curvature="0"
             style="fill:#c4cd6e" /></g><g
           id="g77"
           style=""><path
             class="st6"
             d="m 521.5,397.5 c 0.7,1.4 2.5,2.5 4.1,2.5 l 24.8,0 c 1.6,0 2.3,-1.1 1.6,-2.5 l -5.9,-11.9 c -0.7,-1.4 -2.5,-2.5 -4.1,-2.6 l -25,-0.2 c -1.6,0 -2.3,1.1 -1.6,2.5 l 6.1,12.2 z"
             id="path79"
             inkscape:connector-curvature="0"
             style="fill:#c4cd6e" /></g><g
           id="g81"
           style=""><path
             class="st6"
             d="m 352.5,394.5 c 0.7,1.4 2.5,2.5 4.1,2.6 l 93.8,0.9 c 1.6,0 2.3,-1.1 1.6,-2.5 l -5.4,-10.7 c -0.7,-1.4 -2.5,-2.5 -4.1,-2.6 l -93.8,-0.8 c -1.6,0 -2.3,1.1 -1.6,2.5 l 5.4,10.6 z"
             id="path83"
             inkscape:connector-curvature="0"
             style="fill:#c4cd6e" /></g><g
           id="g85"
           style=""><path
             class="st6"
             d="m 391.1,258.6 c -1.6,0 -2.8,1.3 -2.8,2.8 l 0,7.9 c 0,1.6 1.3,2.8 2.8,2.8 l 42.3,-0.2 c 1.6,0 2.8,-1.3 2.8,-2.8 l 0,-7.7 c 0,-1.6 -1.3,-2.8 -2.8,-2.8 l -42.3,0 z"
             id="path87"
             inkscape:connector-curvature="0"
             style="fill:#c4cd6e" /></g><g
           id="g89"
           style=""><path
             class="st6"
             d="m 321.4,288.7 c -0.3,-0.5 -1.6,-0.4 -3,0.3 l -8.2,4.2 c -1.4,0.7 -2.5,2.6 -2.5,4.1 l 0,44.3 c 0,1.6 1.1,2.2 2.5,1.5 l 9.6,-5 c 1.4,-0.7 2.5,-2.6 2.5,-4.1 l -0.4,-41.6 c 0,-1.4 -0.2,-3.2 -0.5,-3.7 z"
             id="path91"
             inkscape:connector-curvature="0"
             style="fill:#c4cd6e" /></g><g
           id="g93"
           style=""><path
             class="st6"
             d="m 345.7,315.4 c 0,-1.6 -1.2,-3.4 -2.6,-4 l -10.6,-4.9 c -1.4,-0.7 -2.6,0.1 -2.5,1.6 l 0.2,18.1 c 0,1.6 1.2,3.4 2.6,4 l 10.3,4.8 c 1.4,0.7 2.6,-0.1 2.6,-1.6 l 0,-18 z"
             id="path95"
             inkscape:connector-curvature="0"
             style="fill:#c4cd6e" /></g><g
           id="g97"
           style=""><path
             class="st6"
             d="m 231.3,281.6 c 0,0 -0.1,0.1 -0.1,0.1 0,0 -1.1,-0.1 -2,-0.1 -1,0 -1.7,1.3 -1.7,2.8 l 0,5.4 c 0,1.6 1.3,2.8 2.8,2.8 l 52.7,0 c 1.6,0 2.8,-1.3 2.8,-2.8 l 0,-5.4 c 0,-1.6 -1.3,-2.8 -2.8,-2.8 l -48.7,0 c -1.7,-0.1 -3,-0.1 -3,0 z"
             id="path99"
             inkscape:connector-curvature="0"
             style="fill:#c4cd6e" /></g><g
           id="g101"
           style=""><path
             class="st6"
             d="m 185.6,197.2 c 0.2,-1.5 -0.9,-2.6 -2.5,-2.3 l -90,18.3 c -1.5,0.3 -1.9,1.5 -0.8,2.6 l 7.2,7.4 c 1.1,1.1 3.2,1.8 4.8,1.5 l 77.8,-15.6 c 1.5,-0.3 2.8,-0.6 2.8,-0.6 0,0 0,0 0,0 -0.1,-5.1 0.7,-11.3 0.7,-11.3 z"
             id="path103"
             inkscape:connector-curvature="0"
             style="fill:#c4cd6e" /></g><g
           id="g105"
           style=""><path
             class="st6"
             d="m 190.4,175.8 c 1.3,-3.6 3,-7.3 3,-7.3 0.7,-1.4 0,-2.3 -1.6,-2 L 70.2,189.7 c -1.5,0.3 -1.9,1.4 -0.8,2.6 l 8.6,8.9 c 1.1,1.1 3.2,1.8 4.7,1.4 l 103.4,-21.8 c 1.5,-0.3 3.1,-1.8 3.6,-3.3 0.1,0 0.2,-0.3 0.7,-1.7 z"
             id="path107"
             inkscape:connector-curvature="0"
             style="fill:#c4cd6e" /></g><g
           id="g109"
           style=""><path
             class="st7"
             d="m 1225.1,74.5 c -1.6,0 -2.9,1.2 -2.9,2.8 l -2.2,150.2 c 0,1.6 -0.1,2.7 -0.2,2.5 -0.1,-0.2 0.1,0.9 0.3,2.4 l -10.6,6.6 c -1.1,1.1 -3.4,1.9 -4.9,1.9 l -215.1,-1.7 c -1.6,0 -2.8,0 -2.8,-0.1 0,0 -0.7,-1.1 -1.5,-2.4 l -3,-4.8 c -0.8,-1.3 -1.5,-3.7 -1.5,-5.2 l 0,-7.3 c 0,-1.6 0,-4.1 0,-5.7 l -0.2,-108.8 c 0,-1.6 0,-2.9 0,-2.9 0,0 -1.3,-0.1 -2.8,-0.1 l -2.3,0 c -1.6,0 -2.8,0 -2.8,0.1 0,0 0,1.4 0,2.9 l 0.2,108.8 c 0,1.6 0,4.1 0,5.7 l 0,10.5 c 0,1.6 0,3.2 -0.1,3.6 0,0 0,0 0,0.4 -1,11.5 -7.3,14.7 -7.3,14.7 -1.4,0.7 -2.5,1.3 -2.5,1.3 0,0 -0.2,0.1 -0.4,0.2 0,0 0,0 -0.2,0.1 -2.7,1.3 -5.3,2.9 -7.7,5.2 -4.1,3.9 -7.3,6.9 -9.9,9 -2,1.6 -3.7,2.7 -5.4,3.6 -1.3,0.6 -2.5,1.1 -4,1.5 -2.2,0.6 -4.9,1 -8.5,1.3 -3.6,0.2 -10.7,0.3 -10.7,0.3 -1.6,0 -4.1,0 -5.7,0 l -275,0 c -1.6,0 -2.8,0 -2.8,-0.1 0,0 -1.3,-0.1 -2.8,-0.1 l -17.6,0.1 c -1.6,0 -4,-0.5 -5.5,-1.1 l -25.4,-11 c -1.1,-1.1 -2.4,-3.2 -3,-4.7 l -45,-114.7 c -0.6,-1.5 -1,-2.7 -1.1,-2.7 0,0 -0.7,-1.1 -1.5,-2.5 0,0 -4,-6.6 -7.7,-9.7 -2.5,-2.1 -5.6,-3.8 -5.6,-3.8 -1.4,-0.8 -3.1,-2.5 -3.9,-3.8 0,0 -0.7,-1.3 -1.9,-3.6 -1,-2.1 -2.1,-4.2 -2.9,-6.3 -0.8,-2 -1.4,-3.9 -1.6,-5.2 0,-0.2 -0.1,-0.6 -0.1,-1.1 -0.1,-1.8 -0.2,-4.9 -0.3,-8.9 -0.1,-4 -0.1,-8.8 -0.1,-14 0,-10.9 0.1,-23.4 0.2,-33.2 0,-4.9 0.1,-9.1 0.1,-12.1 0,-3 0,-3 0,-3 0,-1 -1.1,-1.8 -2.5,-1.8 -1.4,0 -2.5,1.2 -2.5,2.8 0,0 -0.3,25.4 -0.3,47.2 0,6 0,11.5 0.1,15.8 0,2.2 0.1,4 0.1,5.5 0,0.8 0.1,1.4 0.1,2 0,0.6 0.1,1 0.1,1.4 0.3,2.1 1.1,4.4 2.1,6.8 1,2.5 2.1,4.7 2.1,4.7 0.7,1.4 0.4,2.3 -0.8,1.9 0,0 0,0 -1,-0.2 -6.3,-1.5 -12.4,-1.9 -17.2,-1.9 -5.9,0 -7.3,0.2 -7.3,0.2 -1.5,0.2 -2.6,1.7 -2.4,3.2 l 0.4,2.3 c 0.2,1.5 1.7,2.6 3.2,2.4 0,0 0.9,-0.1 6.1,-0.1 5.8,0 13.6,0.7 20.7,3.4 3.5,1.3 6.9,3.1 9.7,5.6 2.9,2.4 5.6,6.8 5.6,6.8 0.8,1.3 2,3.6 2.5,5.1 L 547,197 c 0.6,1.5 1,3.9 0.9,5.5 0,0 -0.4,9.1 -15.6,10 -17.3,1 -89.2,-0.3 -89.2,-0.3 -1.6,0 -4.1,-0.4 -5.5,-0.9 l -6.6,-8.9 c -1.1,-1.1 -2,-3.3 -2.1,-4.9 l -3.5,-92.8 c -0.1,-1.6 -1.4,-2.8 -2.9,-2.8 l -209.2,5.3 c -1.6,0 -4.1,0.5 -5.5,0.9 L 93.7,144 c -1.5,0.5 -2.4,1.9 -2,3.2 0.4,1.3 2,2 3.5,1.5 l 103.4,-32.4 c 1.5,-0.5 4,-0.9 5.5,-1 l 12.1,10.8 c 1.1,1.1 2,3.3 2,4.8 l 0,5.1 c 0,1.6 -1.1,3.5 -2.4,4.4 0,0 -6.8,4.3 -14,13.7 -2.5,3.3 -5,7.2 -7.3,11.7 -1.5,3 -3,6.3 -4.2,9.9 -0.5,1.4 -0.6,1.7 -0.6,1.7 -0.5,1.5 -2.1,3 -3.6,3.3 L 82.8,202.6 c -1.5,0.3 -2.8,0.6 -2.9,0.6 -0.1,0 0.8,1 1.8,2.1 l 6.1,6.5 c 1.1,1.1 2.1,2 2.2,2 0.2,0 1.5,-0.3 3.1,-0.6 l 90,-18.3 c 1.5,-0.3 2.6,0.7 2.5,2.3 0,0 -0.7,6.3 -0.8,11.3 0,0 0,0.1 0,0.1 0,0.5 0,1.1 0,1.6 0,12.8 2.9,23.8 7.3,33 3.3,6.9 7.4,12.7 11.7,17.6 6.4,7.3 13.2,12.5 18.5,15.9 0.3,0.2 0.3,0.2 0.3,0.2 0.4,0.2 0.7,1.4 0.7,2.5 0,1.2 1,2.1 2.1,2.1 1.2,0 2.9,0 3.9,0 1,0 1.8,0 1.9,0.1 0.1,0 0.2,0.1 0.3,0 0,0 1.3,-0.1 2.9,-0.1 l 48.7,0 c 1.6,0 4.1,0 5.7,0 l 23.5,0 c 1.6,0 3.8,0.8 5,1.8 0,0 2.7,2.2 3.8,4.4 0.6,1.1 0.6,1.1 0.6,1.1 0.2,0.5 0.3,2.1 0.4,3.7 l 0.4,41.6 c 0,1.6 0,4.1 0.1,5.7 l 0.4,38.5 c 0,1.6 1.3,2.8 2.9,2.9 l 17.5,0.2 c 1.6,0 4.1,0 5.7,0 l 93.8,0.8 c 1.6,0 4.1,0 5.7,0 l 63.1,0.5 c 1.6,0 4.1,0 5.7,0 l 25,0.2 c 1.6,0 4.1,0 5.7,0 l 17.9,0.2 c 1.6,0 4.1,0 5.7,0 l 29,0.3 c 1.6,0 4.1,0 5.7,0 l 23.1,0.2 c 1.6,0 2.8,1.3 2.8,2.9 l 0,61.6 c 0,1.6 0,2.9 0,3 0,0.1 0,0.1 0,0.1 0,0 0,0.4 0.1,0.9 0,0 0,0 0,1.1 0,1.4 -0.1,3.4 -0.6,5.6 -0.4,1.6 -1,3.3 -1.9,4.9 -1.4,2.4 -3.3,4.6 -6.5,6.3 -3.2,1.7 -7.7,3 -14.1,3 -15.3,0 -65.2,0 -111.3,0 -23,0 -45.1,0 -61.4,0 -8.2,0 -14.9,0 -19.6,0 -2.3,0 -4.2,0 -5.4,0 -1.2,0 -1.2,0 -1.2,0 -0.4,0 -0.7,1.3 -0.7,2.8 l 0,2.3 c 0,1.6 1.3,2.8 2.8,2.8 0,0 166.2,0 196.8,0 6.6,0 12,-1.2 16.4,-3.2 3.2,-1.5 5.9,-3.5 7.9,-5.7 3.1,-3.3 4.8,-7 5.7,-10.4 1,-3.4 1.2,-6.4 1.2,-8.6 0,-1.3 0,-1.3 0,-1.3 -0.1,-0.8 -0.1,-2.7 -0.1,-4.3 l 0,-73.7 c 0,-1.6 0,-4.1 0,-5.7 l 0,-70.6 c 0,-1.6 0.1,-4.1 0.3,-5.7 l 9.4,-8.2 c 1.2,-1 3.4,-1.9 4.9,-1.9 l 144.9,0 c 1.6,0 2.8,1.3 2.9,2.8 l 0.7,85.1 c 0,1.6 0,2.9 0,3 0,0.1 1.3,0.2 2.8,0.2 l 5.1,0 c 1.6,0 2.9,0 2.9,0 0,0 0,-1.3 0,-2.8 0,0 -1.6,-54.8 -1.6,-71.8 0,-11.8 9.2,-15.4 9.2,-15.4 1.4,-0.6 3.9,-1.1 5.5,-1.1 l 83.5,0 c 1.6,0 4.1,0 5.7,0 0,0 3.6,0 6.3,-0.1 2.7,-0.1 5.1,-0.2 7.3,-0.4 3.4,-0.3 6.4,-0.8 9.2,-1.7 2.1,-0.6 4.1,-1.4 6,-2.4 2.8,-1.5 5.4,-3.4 8.2,-5.7 2.7,-2.3 5.6,-5 9.1,-8.3 1.4,-1.3 3,-2.3 4.8,-3.2 2.7,-1.3 5.8,-2.1 8.5,-2.5 1.3,-0.2 2.6,-0.3 3.7,-0.4 1.2,-0.1 2.1,-0.1 2.8,-0.1 0.4,0 0.7,0 1,0 0.1,0 0.1,0 0.1,0 0.1,0 0.1,0 0.1,0 0,0 0,0 0,0 0,0 0,0 0.1,0 0,0 1.4,0 2.9,0 l 4.6,0 c 1.6,0 2.8,1.3 2.8,2.8 l -2.9,222.9 c 0,1.6 0,2.9 0,2.9 0,0 0.6,0.1 1.2,0.1 0.7,0 1.8,0 2.5,0 0.7,0 1.3,0 1.3,0 0,0 0,-1.3 0,-2.9 l 1.2,-94.7 c 0,-1.6 1.2,-3.3 2.6,-3.9 l 10,-4.2 c 1.4,-0.6 3,-1.3 3.5,-1.5 0.5,-0.2 2.2,-0.6 3.7,-0.8 l 7.9,-1.1 c 1.5,-0.2 2.8,-0.4 2.8,-0.3 0,0 1.3,0 2.8,0 l 76.2,-1 c 1.6,0 3.5,1 4.4,2.3 l 11,16.7 c 0.9,1.3 1.6,3.6 1.6,5.2 l 0,58.7 c 0,1.6 0,4.1 0,5.7 l 0,0.7 c 0,1.6 1.3,2.8 2.8,2.8 l 47.9,0 c 1.6,0 2.9,0 3,0 0.1,0 0.2,-1.3 0.2,-2.8 l 0,-3.3 c 0,-1.6 -1.3,-2.8 -2.8,-2.8 l -2,0 c -1.6,0 -4.1,0 -5.7,0 l -34,0 c -1.6,0 -2.8,-1.3 -2.8,-2.8 l 0,-8.2 c 0,-1.6 0,-4.1 0,-5.7 l 0,-19.7 c 0,-1.6 1,-3.7 2.1,-4.7 l 40.7,-35.6 c 1.2,-1 3.4,-1.9 5,-1.8 l 22.4,0.2 c 1.6,0 4,0.6 5.4,1.2 l 9.4,4.5 c 1.4,0.7 2.5,2.5 2.5,4.1 l -1.3,92 c 0,1.6 1.2,2.9 2.8,2.9 l 9.3,0.1 c 1.6,0 2.9,-1.2 2.9,-2.8 l 5.9,-404.3 c 0,-1.6 -1.2,-2.9 -2.8,-2.9 l -9.7,-0.3 z m -804.2,37.9 c 0.1,1.6 -1.1,2.4 -2.6,1.9 0,0 -10.7,-3.9 -21.1,-3.9 -6.8,0 -14.4,1.3 -22.1,4.9 -24.9,11.6 -56.3,24.2 -99.4,24.5 -21.7,0.2 -33.9,0.3 -42.3,1.6 -4,0.6 -7.4,1.9 -7.4,1.9 -1.5,0.5 -2.6,-0.3 -2.6,-1.8 l 0.2,-19 c 0,-1.6 0,-4.1 0,-5.7 0,0 -0.1,-3.8 9.2,-4.8 0.2,0 0.2,0 0.2,0 0.2,0 1.6,-0.1 3.2,-0.1 l 181.6,-4.6 c 1.6,0 2.9,1.2 2.9,2.8 l 0.2,2.3 z M 212.9,256 c -4.7,-5 -9.2,-11.3 -12.6,-18.8 -3.3,-7.6 -5.5,-16.5 -5.5,-27 0,-0.5 0,-1 0,-1.5 0.2,-11.9 2.2,-21.6 5.1,-29.5 4.2,-11.9 10.3,-19.9 15.3,-24.8 2.5,-2.5 4.7,-4.2 6.2,-5.3 0.8,-0.5 1.4,-0.9 1.8,-1.2 0.1,-0.1 0.1,-0.1 0.1,-0.1 0.1,-0.1 0.4,-0.2 0.8,-0.4 0,0 0,0 0.3,-0.2 2,-1 4.2,-1.7 6.8,-2.3 7.9,-1.7 20.3,-1.9 44.6,-2.1 43.6,-0.3 75.6,-13.1 100.6,-24.8 7.3,-3.4 14.4,-4.6 20.8,-4.6 7.6,0 14.2,1.6 18.9,3.3 2,0.7 2.3,0.8 2.3,0.8 1.4,0.6 2.6,2.4 2.7,4 l 2.9,77 c 0.1,1.6 0.1,4.1 0,5.6 -0.1,1.5 0.4,6.3 0.5,6.7 0,0.4 0.1,0.7 0.1,0.7 0.1,0 0.5,1.2 1.1,2.7 l 2.8,3.5 c 1.2,1 3.4,1.9 5,2 l 34,2.1 c 1.6,0 4.1,-0.1 5.7,-0.1 l 79.4,-2.8 c 1.6,-0.1 3.3,1.1 3.9,2.5 l 18.6,47.3 c 0.6,1.5 -0.2,2.6 -1.8,2.7 l -134.2,0.7 c -1.6,0 -4.1,0 -5.7,0 l -42.3,0.2 c -1.6,0 -4.1,0 -5.7,0 l -147.6,0.8 c -1.6,0 -2.8,-0.1 -2.7,-0.2 0.1,-0.1 0.1,-0.2 0.1,-0.2 0,0 -0.1,0 -0.2,-0.1 0,0 0,0 -0.3,-0.1 -2.2,-1.3 -12.4,-6.5 -21.8,-16.5 z m 120.6,117.3 c -1.6,0 -2.8,-1.3 -2.9,-2.9 l -0.4,-38.6 c 0,-1.6 0,-4.1 -0.1,-5.7 L 329.9,308 c 0,-1.6 0,-4.1 -0.1,-5.7 l -0.1,-10.4 c 0,-1.6 0.8,-3.8 1.8,-5 l 2.8,-4.5 c 1.5,-0.5 3.9,-1 5.5,-1 l 288.9,0.1 c 1.6,0 2.8,1.3 2.8,2.8 l 0,88.7 c 0,1.6 -1.3,2.8 -2.8,2.8 l -295.2,-2.5 z m 695,-33.5 c 0,1.6 -0.1,2.7 -0.1,2.6 0,-0.1 0,0 0,0.3 0,0.3 0,1.8 -0.1,3.4 l 0,1.3 c 0,1.6 -0.5,4 -0.9,5.5 0,0 -3.6,11.3 -14.6,11.3 -11.6,0 -14.8,-13.4 -14.8,-13.4 -0.4,-1.5 -0.6,-4 -0.6,-5.6 l 1.1,-88.2 c 0,-1.6 1.3,-2.8 2.9,-2.8 l 14.4,0.1 c 1.6,0 4.1,0.4 5.6,0.8 0,0 9,2.4 9,12.1 0,1.5 0,1.5 0,1.5 0.1,1.3 0.2,3.7 0.1,5.2 l -2,65.9 z m 11,27.5 c -1.6,0 -2.8,-1.2 -2.7,-2.8 l 2.9,-97.9 c 0,-1.6 0.8,-3.9 1.8,-5.1 l 3.4,-4.6 c 0.9,-1.3 3,-2.3 4.5,-2.3 l 151.3,1.2 c 1.6,0 2.8,0 2.8,0 0,0 1.2,-0.1 2.8,-0.2 0,0 12.7,-1 12.7,15.2 0,2.3 0,2.5 0,2.5 0.1,1.6 0.2,4.1 0.2,5.7 l -1.3,86.9 c 0,1.6 -1.3,2.8 -2.9,2.8 l -40.2,0 c -1.6,0 -3.8,0.8 -5,1.9 l -20.7,18.3 c -1.2,1 -3.4,1.9 -5,1.9 l -11.1,0 c -1.6,0 -3.5,-1.1 -4.4,-2.4 l -12.9,-19.6 c -0.9,-1.3 -2.8,-2.4 -4.4,-2.3 l -71.8,0.8 z"
             id="path111"
             inkscape:connector-curvature="0"
             style="fill:#d7d6d4" /></g><g
           id="g113"
           style=""><path
             class="st7"
             d="m 478.3,122.1 c 0,-0.2 0,-0.2 0,0 0,0.2 0.1,0.4 0.1,0.4 0,0 -0.1,-0.2 -0.1,-0.4 z"
             id="path115"
             inkscape:connector-curvature="0"
             style="fill:#d7d6d4" /></g><g
           id="g117"
           style=""><line
             class="st8"
             x1="993.09998"
             y1="485.89999"
             x2="993.09998"
             y2="485.89999"
             id="line119"
             style="fill:none;stroke:#d7d6d4;stroke-width:0;stroke-linecap:round;stroke-linejoin:round" /></g><g
           id="g121"
           style=""><circle
             class="st9"
             cx="1133.6"
             cy="199.10001"
             r="9"
             id="circle123"
             style="fill:#9fc261" /></g></g><path
         class="st10"
         d="m 282,197.3 c 14.2,0 30.3,-2.5 39.1,-7.8 7.7,-4.7 19.9,-10 29.2,-10 6.4,0 11.3,2.5 12.4,9.4 1.9,12.2 -7,15.5 -17.4,15.5 -3.9,0 -8.1,-0.5 -11.9,-1.1 -6.6,-1.1 -12.8,-1.4 -18.8,-1.4 -6.7,0 -13.1,0.4 -19.5,0.6 -12.1,0.4 -23.5,6.4 -26.2,8.5 -1.6,1.3 -3.9,2.3 -6,2.3 -1.3,0 -2.5,-0.4 -3.5,-1.3 0,0 -8.7,-16.8 1.5,-16.8 0.9,0 1.9,0.1 3,0.4 5,1.1 11.3,1.7 18.1,1.7 m 74.9,-26.4 c -7,0 -13.9,3.2 -17.1,4.6 -5.3,2.4 -20.6,10.8 -37.5,10.8 -2.1,0 -4.3,-0.1 -6.5,-0.4 -9,-1.2 -11.6,-1.8 -15,-1.8 -3.8,0 -8.6,0.7 -25,1.8 -30.7,2 -6,34 -6,34 2.3,1.7 5.2,2.3 8.5,2.3 9.9,0 23.5,-5.6 37.5,-5.6 11.5,0 26.5,1 40.6,1 8.8,0 17.2,-0.4 24.1,-1.7 18,-3.3 20.7,-16 12.7,-34 -3.9,-8.5 -10.1,-11 -16.3,-11"
         id="path125"
         inkscape:connector-curvature="0"
         style="fill:#79b745" /><path
         class="st11"
         d="m 350.3,179.5 c -9.2,0 -21.5,5.3 -29.2,10 -8.8,5.3 -24.9,7.8 -39.1,7.8 -6.8,0 -13.1,-0.6 -17.9,-1.7 -1.2,-0.3 -2.2,-0.4 -3,-0.4 -10.2,0 -1.5,16.8 -1.5,16.8 1,0.9 2.2,1.3 3.5,1.3 2.1,0 4.4,-1 6,-2.3 2.7,-2.1 14,-8.1 26.2,-8.5 6.4,-0.2 12.8,-0.6 19.5,-0.6 6,0 12.2,0.3 18.8,1.4 3.8,0.6 8,1.1 11.9,1.1 10.4,0 19.3,-3.2 17.4,-15.5 -1.3,-6.9 -6.3,-9.4 -12.6,-9.4"
         id="path127"
         inkscape:connector-curvature="0"
         style="fill:#33a64a" /><path
         class="st5"
         d="m 352.8,220.3 c 0,0 -0.7,-7.1 -3.1,-9.9 0,0 3.5,4.7 4,8 0,0 0.2,-5.4 1.6,-8.5 0,0 -0.7,6.1 -0.2,9.7 l -2.3,0.7 z"
         id="path129"
         inkscape:connector-curvature="0"
         style="fill:#91c142" /><path
         class="st5"
         d="m 369,215.1 c 0,0 -0.7,-7.1 -3.1,-9.9 0,0 3.5,4.7 4,8 0,0 0.2,-5.4 1.6,-8.5 0,0 -0.7,6.1 -0.2,9.7 l -2.3,0.7 z"
         id="path131"
         inkscape:connector-curvature="0"
         style="fill:#91c142" /><path
         class="st5"
         d="m 367.2,218.8 c 0,0 -0.4,-7.1 -1.8,-9.9 0,0 2.1,4.7 2.4,8 0,0 0.1,-5.4 1,-8.5 0,0 -0.4,6.1 -0.1,9.7 l -1.5,0.7 z"
         id="path133"
         inkscape:connector-curvature="0"
         style="fill:#91c142" /><path
         class="st5"
         d="m 326.4,219.4 c 0,0 -0.4,-7.1 -1.8,-9.9 0,0 2.1,4.7 2.4,8 0,0 0.1,-5.4 1,-8.5 0,0 -0.4,6.1 -0.1,9.7 l -1.5,0.7 z"
         id="path135"
         inkscape:connector-curvature="0"
         style="fill:#91c142" /><path
         class="st5"
         d="m 354.2,196.4 c 0,0 -0.4,-7.1 -1.8,-9.9 0,0 2.1,4.7 2.4,8 0,0 0.1,-5.4 1,-8.5 0,0 -0.4,6.1 -0.1,9.7 l -1.5,0.7 z"
         id="path137"
         inkscape:connector-curvature="0"
         style="fill:#91c142" /><path
         class="st5"
         d="m 354.8,196.7 c 0,0 -2.4,-6.6 -4.6,-9 0,0 3.3,3.9 4.6,7 0,0 -1.4,-5.2 -1.5,-8.4 0,0 1.4,6 2.6,9.3 l -1.1,1.1 z"
         id="path139"
         inkscape:connector-curvature="0"
         style="fill:#91c142" /><path
         class="st5"
         d="m 355,196.1 c 0,0 -0.2,-5.4 -1.5,-7.6 0,0 1.9,3.7 2.1,6.2 0,0 0.3,-4.1 1.3,-6.4 0,0 -0.6,4.6 -0.5,7.3 l -1.4,0.5 z"
         id="path141"
         inkscape:connector-curvature="0"
         style="fill:#91c142" /><path
         class="st5"
         d="m 353,221.8 c 0,0 -0.4,-7.1 -1.8,-9.9 0,0 2.1,4.7 2.4,8 0,0 0.1,-5.4 1,-8.5 0,0 -0.4,6.1 -0.1,9.7 l -1.5,0.7 z"
         id="path143"
         inkscape:connector-curvature="0"
         style="fill:#91c142" /><path
         class="st5"
         d="m 353.7,222 c 0,0 -2.4,-6.6 -4.6,-9 0,0 3.3,3.9 4.6,7 0,0 -1.4,-5.2 -1.5,-8.4 0,0 1.4,6 2.6,9.3 l -1.1,1.1 z"
         id="path145"
         inkscape:connector-curvature="0"
         style="fill:#91c142" /><path
         class="st5"
         d="m 353.8,221.4 c 0,0 -0.2,-5.4 -1.5,-7.6 0,0 1.9,3.7 2.1,6.2 0,0 0.3,-4.1 1.3,-6.4 0,0 -0.6,4.6 -0.5,7.3 l -1.4,0.5 z"
         id="path147"
         inkscape:connector-curvature="0"
         style="fill:#91c142" /><path
         class="st5"
         d="m 275,222.9 c 0,0 -0.4,-7.1 -1.8,-9.9 0,0 2.1,4.7 2.4,8 0,0 0.1,-5.4 1,-8.5 0,0 -0.4,6.1 -0.1,9.7 l -1.5,0.7 z"
         id="path149"
         inkscape:connector-curvature="0"
         style="fill:#91c142" /><path
         class="st5"
         d="m 275.7,223.2 c 0,0 -2.4,-6.6 -4.6,-9 0,0 3.3,3.9 4.6,7 0,0 -1.4,-5.2 -1.5,-8.4 0,0 1.4,6 2.6,9.3 l -1.1,1.1 z"
         id="path151"
         inkscape:connector-curvature="0"
         style="fill:#91c142" /><path
         class="st5"
         d="m 275.8,222.6 c 0,0 -0.2,-5.4 -1.5,-7.6 0,0 1.9,3.7 2.1,6.2 0,0 0.3,-4.1 1.3,-6.4 0,0 -0.6,4.6 -0.5,7.3 l -1.4,0.5 z"
         id="path153"
         inkscape:connector-curvature="0"
         style="fill:#91c142" /><path
         class="st5"
         d="m 248.9,223.1 c 0,0 -0.4,-7.1 -1.8,-9.9 0,0 2.1,4.7 2.4,8 0,0 0.1,-5.4 1,-8.5 0,0 -0.4,6.1 -0.1,9.7 l -1.5,0.7 z"
         id="path155"
         inkscape:connector-curvature="0"
         style="fill:#91c142" /><path
         class="st5"
         d="m 249.5,223.3 c 0,0 -2.4,-6.6 -4.6,-9 0,0 3.3,3.9 4.6,7 0,0 -1.4,-5.2 -1.5,-8.4 0,0 1.4,6 2.6,9.3 l -1.1,1.1 z"
         id="path157"
         inkscape:connector-curvature="0"
         style="fill:#91c142" /><path
         class="st5"
         d="m 249.6,222.8 c 0,0 -0.2,-5.4 -1.5,-7.6 0,0 1.9,3.7 2.1,6.2 0,0 0.3,-4.1 1.3,-6.4 0,0 -0.6,4.6 -0.5,7.3 l -1.4,0.5 z"
         id="path159"
         inkscape:connector-curvature="0"
         style="fill:#91c142" /><path
         class="st5"
         d="m 265,198 c 0,0 -0.3,-4.2 -1.2,-5.8 0,0 1.4,2.8 1.5,4.7 0,0 0.1,-3.2 0.6,-5 0,0 -0.3,3.6 -0.1,5.7 L 265,198 Z"
         id="path161"
         inkscape:connector-curvature="0"
         style="fill:#91c142" /><path
         class="st5"
         d="m 265.4,198.2 c 0,0 -1.6,-3.9 -3,-5.3 0,0 2.2,2.3 3,4.1 0,0 -0.9,-3.1 -1,-5 0,0 0.9,3.5 1.7,5.5 l -0.7,0.7 z"
         id="path163"
         inkscape:connector-curvature="0"
         style="fill:#91c142" /><path
         class="st5"
         d="m 265.5,197.8 c 0,0 -0.1,-3.2 -1,-4.5 0,0 1.3,2.2 1.4,3.6 0,0 0.2,-2.4 0.8,-3.8 0,0 -0.4,2.7 -0.3,4.3 l -0.9,0.4 z"
         id="path165"
         inkscape:connector-curvature="0"
         style="fill:#91c142" /><g
         id="g167"
         style=""><defs
           id="defs169"><path
             id="SVGID_1_"
             d="m 374,179.9 c 0,0 0,0 0,0 0,0.1 0,0.1 0,0.2 0,0 0,-0.1 0,-0.2 m -0.5,-0.1 c -0.2,0.6 -0.4,1 -0.4,1 l 0.3,0 c 0.1,-0.2 0.1,-0.6 0.1,-1 m 3.3,-4 c -0.7,0.7 -1.4,1.9 -2,2.8 0,0.5 -0.1,0.9 -0.2,1.4 0.8,-2 2.2,-4.2 2.2,-4.2 m -2.1,-0.3 c -0.1,0.9 -0.4,2.2 -0.8,3.2 0,0.4 0.1,0.8 0.1,1.2 0,0 0,-0.1 0,-0.1 0.1,-0.4 0.3,-1.3 0.5,-2.2 0.1,-0.8 0.2,-1.6 0.2,-2.1 m 0,-0.5 c 0,0 0,0.2 0,0.5 0,-0.2 0,-0.3 0,-0.5"
             inkscape:connector-curvature="0" /></defs><clipPath
           id="SVGID_2_"><use
             xlink:href="#SVGID_1_"
             style="overflow:visible"
             id="use173"
             x="0"
             y="0"
             width="100%"
             height="100%" /></clipPath><rect
           x="373.10001"
           y="175"
           class="st12"
           width="3.5999999"
           height="5.8000002"
           id="rect175"
           clip-path="url(#SVGID_2_)"
           style="fill:#79b745" /></g><path
         class="st10"
         d="m 374.4,180.2 c 0,0 0,0.1 0,0.1 0,0 0,0 0,-0.1 0,0 0,0 0,0 m -1.1,-4.7 c 0.3,1.2 0.3,3.1 0.2,4.3 0,0.4 0,0.8 -0.1,1 0,0.2 0,0.3 0,0.3 l 0.7,-0.2 -0.5,-0.1 c 0,0 1.1,-2.5 1.2,-4 0,-0.2 0,-0.3 0,-0.3 -0.1,0.4 -0.2,0.7 -0.3,1.1 -0.2,0.9 -0.4,1.8 -0.5,2.2 0,0 0,0 0,0.1 0,0.1 0,0.2 0,0.2 0,0 0,-0.1 0,-0.1 0,0 0,0 0,0 0,-0.4 0,-0.8 -0.1,-1.2 -0.1,-1.3 -0.4,-2.6 -0.6,-3.3 m 2,-0.3 c -0.2,0.4 -0.3,0.8 -0.5,1.3 0,0.1 0,0.2 0,0.3 0,0.2 0,0.5 0,0.8 0.3,-1.3 0.5,-2.4 0.5,-2.4 m -2.1,-0.2 c 0,0 0.1,0.2 0.1,0.5 0,-0.2 -0.1,-0.3 -0.1,-0.5"
         id="path177"
         inkscape:connector-curvature="0"
         style="fill:#79b745" /><path
         class="st10"
         d="m 374.8,176.8 c 0,1.6 -1.2,4 -1.2,4 l 0.5,0.1 0.4,0.1 c 0.6,-1.5 2.2,-3.7 2.2,-3.7 -1,0.8 -2.2,2.6 -2.4,2.9 0,0 0,0.1 0,0.1 0,0 0,-0.1 0,-0.1 0,-0.1 0.1,-0.2 0.1,-0.3 0.1,-0.4 0.2,-0.9 0.2,-1.4 0,-0.3 0.1,-0.7 0.1,-1 0.1,-0.2 0.1,-0.5 0.1,-0.7 m 0,-0.4 c 0,0 0,0 0,0 0,0.1 0,0.2 0,0.4 0,-0.1 0,-0.2 0,-0.4 0,0 0,0 0,0"
         id="path179"
         inkscape:connector-curvature="0"
         style="fill:#79b745" /><path
         class="st10"
         d="m 290,227.7 c 0,0 0,0.1 0,0 0,0.1 0,0.1 0,0.2 0,0 0,-0.1 0,-0.2 m -0.5,-0.1 c -0.2,0.6 -0.4,1 -0.4,1 l 0.3,0 c 0.1,-0.2 0.1,-0.5 0.1,-1 m 3.3,-4 c -0.7,0.7 -1.4,1.9 -2,2.8 0,0.5 -0.1,0.9 -0.2,1.4 0.8,-1.9 2.2,-4.2 2.2,-4.2 m -2.1,-0.3 c -0.1,0.9 -0.4,2.2 -0.8,3.2 0,0.4 0.1,0.8 0.1,1.2 0,0 0,-0.1 0,-0.1 0.1,-0.4 0.3,-1.3 0.5,-2.2 0.1,-0.8 0.2,-1.6 0.2,-2.1 m 0,-0.4 c 0,0 0,0.2 0,0.5 0,-0.2 0,-0.4 0,-0.5"
         id="path181"
         inkscape:connector-curvature="0"
         style="fill:#79b745" /><path
         class="st10"
         d="m 290.4,228 c 0,0 0,0.1 0,0.1 0,0 0,0 0,-0.1 0,0 0,0 0,0 m -1.1,-4.7 c 0.3,1.2 0.3,3.1 0.2,4.3 0,0.4 0,0.8 -0.1,1 0,0.2 0,0.3 0,0.3 l 0.7,-0.2 -0.5,-0.1 c 0,0 1.1,-2.5 1.2,-4 0,-0.2 0,-0.3 0,-0.3 -0.1,0.4 -0.2,0.7 -0.3,1.1 -0.2,0.9 -0.4,1.8 -0.5,2.2 0,0 0,0 0,0.1 0,0.1 0,0.2 0,0.2 0,0 0,-0.1 0,-0.1 0,0 0,0 0,0 0,-0.4 0,-0.8 -0.1,-1.2 -0.1,-1.3 -0.4,-2.6 -0.6,-3.3 m 2,-0.3 c -0.2,0.4 -0.3,0.8 -0.5,1.3 0,0.1 0,0.2 0,0.3 0,0.2 0,0.5 0,0.8 0.3,-1.3 0.5,-2.4 0.5,-2.4 m -2.1,-0.1 c 0,0 0.1,0.2 0.1,0.5 0,-0.2 -0.1,-0.4 -0.1,-0.5"
         id="path183"
         inkscape:connector-curvature="0"
         style="fill:#79b745" /><path
         class="st10"
         d="m 290.8,224.6 c 0,1.6 -1.2,4 -1.2,4 l 0.5,0.1 0.4,0.1 c 0.6,-1.5 2.2,-3.7 2.2,-3.7 -1,0.8 -2.2,2.6 -2.4,2.9 0,0 0,0.1 0,0.1 0,0 0,-0.1 0,-0.1 0,-0.1 0.1,-0.2 0.1,-0.3 0.1,-0.4 0.2,-0.9 0.2,-1.4 0,-0.3 0.1,-0.7 0.1,-1 0,-0.3 0.1,-0.5 0.1,-0.7 m 0,-0.4 c 0,0 0,0.1 0,0 0,0.1 0,0.2 0,0.4 0,-0.1 0,-0.2 0,-0.4 0,0.1 0,0.1 0,0"
         id="path185"
         inkscape:connector-curvature="0"
         style="fill:#79b745" /><path
         class="st10"
         d="m 354.3,169.5 c -0.1,0.6 -0.1,1 -0.1,1 l 0.3,-0.1 c 0,-0.2 -0.1,-0.5 -0.2,-0.9 m 0.5,-0.1 c 0,0.1 0,0.1 0,0 0,0.1 0,0.1 0,0.2 0,0 0,0 0,-0.2 m -0.5,-4.4 c 0.2,0.9 0.2,2.2 0.1,3.3 0.2,0.4 0.3,0.8 0.4,1.2 0,0 0,-0.1 0,-0.1 0,-0.4 -0.1,-1.3 -0.1,-2.3 -0.1,-0.8 -0.3,-1.6 -0.4,-2.1 m 2.1,-0.3 c -0.5,0.9 -0.9,2.2 -1.2,3.2 0.1,0.5 0.1,0.9 0.1,1.4 0.4,-2 1.1,-4.6 1.1,-4.6 m -2.2,-0.1 c 0,0 0,0.2 0.1,0.5 0,-0.2 0,-0.4 -0.1,-0.5"
         id="path187"
         inkscape:connector-curvature="0"
         style="fill:#79b745" /><path
         class="st10"
         d="m 355.3,169.6 c 0,0 0,0.1 0,0.1 0,0 0,0 0,-0.1 0,0 0,0 0,0 m -2.3,-4.2 c 0.6,1.1 1.1,2.9 1.4,4.1 0.1,0.4 0.2,0.7 0.2,1 0,0.2 0.1,0.3 0.1,0.3 l 0.6,-0.4 -0.5,0 c 0,0 0.4,-2.7 0.1,-4.2 0,-0.1 -0.1,-0.3 -0.1,-0.3 0,0.4 0,0.8 0,1.2 0,1 0.1,1.9 0.1,2.3 0,0 0,0 0,0.1 0,0.1 0,0.2 0,0.2 0,0 0,-0.1 0,-0.1 0,0 0,0 0,0 -0.1,-0.4 -0.2,-0.8 -0.4,-1.2 -0.5,-1.2 -1.2,-2.4 -1.5,-3 m -0.3,-0.4 c 0,0 0.1,0.2 0.2,0.4 0,-0.1 -0.1,-0.3 -0.2,-0.4 m 2.1,-0.4 c -0.1,0.4 -0.1,0.9 -0.1,1.3 0,0.1 0.1,0.2 0.1,0.3 0.1,0.2 0.1,0.4 0.2,0.7 -0.1,-1.2 -0.2,-2.3 -0.2,-2.3"
         id="path189"
         inkscape:connector-curvature="0"
         style="fill:#79b745" /><path
         class="st10"
         d="m 356.8,166.2 c -0.8,1.1 -1.4,3.1 -1.5,3.5 0,0 0,0.1 0,0.1 0,0 0,-0.1 0,-0.1 0,-0.1 0,-0.2 0,-0.3 0,-0.4 0,-0.9 -0.1,-1.4 -0.1,-0.3 -0.1,-0.7 -0.2,-1 -0.1,-0.3 -0.1,-0.5 -0.2,-0.7 0.4,1.5 -0.1,4.2 -0.1,4.2 l 0.5,0 0.5,0 c 0.2,-1.7 1.1,-4.3 1.1,-4.3 m -2.1,-0.3 c 0,0 0,0 0,0 0,0.1 0.1,0.2 0.1,0.4 0,-0.2 -0.1,-0.3 -0.1,-0.4 0,0 0,0 0,0"
         id="path191"
         inkscape:connector-curvature="0"
         style="fill:#79b745" /></g></g></svg>